%TF.GenerationSoftware,KiCad,Pcbnew,(5.1.8)-1*%
%TF.CreationDate,2021-12-10T09:08:06+01:00*%
%TF.ProjectId,Schema_Commande_Chacon_54650TX_V2,53636865-6d61-45f4-936f-6d6d616e6465,rev?*%
%TF.SameCoordinates,Original*%
%TF.FileFunction,Other,User*%
%FSLAX46Y46*%
G04 Gerber Fmt 4.6, Leading zero omitted, Abs format (unit mm)*
G04 Created by KiCad (PCBNEW (5.1.8)-1) date 2021-12-10 09:08:06*
%MOMM*%
%LPD*%
G01*
G04 APERTURE LIST*
%ADD10C,0.150000*%
%ADD11C,0.050000*%
%ADD12C,0.120000*%
G04 APERTURE END LIST*
D10*
X166680952Y-86752380D02*
X166633333Y-86847619D01*
X166585714Y-86895238D01*
X166490476Y-86942857D01*
X166442857Y-86942857D01*
X166347619Y-86895238D01*
X166300000Y-86847619D01*
X166252380Y-86752380D01*
X166252380Y-86561904D01*
X166300000Y-86466666D01*
X166347619Y-86419047D01*
X166442857Y-86371428D01*
X166490476Y-86371428D01*
X166585714Y-86419047D01*
X166633333Y-86466666D01*
X166680952Y-86561904D01*
X166680952Y-86752380D01*
X166728571Y-86847619D01*
X166776190Y-86895238D01*
X166871428Y-86942857D01*
X167061904Y-86942857D01*
X167157142Y-86895238D01*
X167204761Y-86847619D01*
X167252380Y-86752380D01*
X167252380Y-86561904D01*
X167204761Y-86466666D01*
X167157142Y-86419047D01*
X167061904Y-86371428D01*
X166871428Y-86371428D01*
X166776190Y-86419047D01*
X166728571Y-86466666D01*
X166680952Y-86561904D01*
X166252380Y-85466666D02*
X166252380Y-85942857D01*
X166728571Y-85990476D01*
X166680952Y-85942857D01*
X166633333Y-85847619D01*
X166633333Y-85609523D01*
X166680952Y-85514285D01*
X166728571Y-85466666D01*
X166823809Y-85419047D01*
X167061904Y-85419047D01*
X167157142Y-85466666D01*
X167204761Y-85514285D01*
X167252380Y-85609523D01*
X167252380Y-85847619D01*
X167204761Y-85942857D01*
X167157142Y-85990476D01*
X167204761Y-84942857D02*
X167252380Y-84942857D01*
X167347619Y-84990476D01*
X167395238Y-85038095D01*
X166252380Y-84323809D02*
X166252380Y-84228571D01*
X166300000Y-84133333D01*
X166347619Y-84085714D01*
X166442857Y-84038095D01*
X166633333Y-83990476D01*
X166871428Y-83990476D01*
X167061904Y-84038095D01*
X167157142Y-84085714D01*
X167204761Y-84133333D01*
X167252380Y-84228571D01*
X167252380Y-84323809D01*
X167204761Y-84419047D01*
X167157142Y-84466666D01*
X167061904Y-84514285D01*
X166871428Y-84561904D01*
X166633333Y-84561904D01*
X166442857Y-84514285D01*
X166347619Y-84466666D01*
X166300000Y-84419047D01*
X166252380Y-84323809D01*
X166252380Y-83371428D02*
X166252380Y-83276190D01*
X166300000Y-83180952D01*
X166347619Y-83133333D01*
X166442857Y-83085714D01*
X166633333Y-83038095D01*
X166871428Y-83038095D01*
X167061904Y-83085714D01*
X167157142Y-83133333D01*
X167204761Y-83180952D01*
X167252380Y-83276190D01*
X167252380Y-83371428D01*
X167204761Y-83466666D01*
X167157142Y-83514285D01*
X167061904Y-83561904D01*
X166871428Y-83609523D01*
X166633333Y-83609523D01*
X166442857Y-83561904D01*
X166347619Y-83514285D01*
X166300000Y-83466666D01*
X166252380Y-83371428D01*
X166252380Y-82419047D02*
X166252380Y-82323809D01*
X166300000Y-82228571D01*
X166347619Y-82180952D01*
X166442857Y-82133333D01*
X166633333Y-82085714D01*
X166871428Y-82085714D01*
X167061904Y-82133333D01*
X167157142Y-82180952D01*
X167204761Y-82228571D01*
X167252380Y-82323809D01*
X167252380Y-82419047D01*
X167204761Y-82514285D01*
X167157142Y-82561904D01*
X167061904Y-82609523D01*
X166871428Y-82657142D01*
X166633333Y-82657142D01*
X166442857Y-82609523D01*
X166347619Y-82561904D01*
X166300000Y-82514285D01*
X166252380Y-82419047D01*
X167252380Y-80895238D02*
X166585714Y-80895238D01*
X166680952Y-80895238D02*
X166633333Y-80847619D01*
X166585714Y-80752380D01*
X166585714Y-80609523D01*
X166633333Y-80514285D01*
X166728571Y-80466666D01*
X167252380Y-80466666D01*
X166728571Y-80466666D02*
X166633333Y-80419047D01*
X166585714Y-80323809D01*
X166585714Y-80180952D01*
X166633333Y-80085714D01*
X166728571Y-80038095D01*
X167252380Y-80038095D01*
X167252380Y-79561904D02*
X166585714Y-79561904D01*
X166680952Y-79561904D02*
X166633333Y-79514285D01*
X166585714Y-79419047D01*
X166585714Y-79276190D01*
X166633333Y-79180952D01*
X166728571Y-79133333D01*
X167252380Y-79133333D01*
X166728571Y-79133333D02*
X166633333Y-79085714D01*
X166585714Y-78990476D01*
X166585714Y-78847619D01*
X166633333Y-78752380D01*
X166728571Y-78704761D01*
X167252380Y-78704761D01*
D11*
X165600000Y-125300000D02*
X165600000Y-40300000D01*
X165600000Y-125300000D02*
X166186421Y-125300000D01*
X165600000Y-40300000D02*
X166186421Y-40300000D01*
X165600000Y-40300000D02*
X166186421Y-41426504D01*
X165600000Y-40300000D02*
X165013579Y-41426504D01*
X165600000Y-125300000D02*
X166186421Y-124173496D01*
X165600000Y-125300000D02*
X165013579Y-124173496D01*
D10*
X96752380Y-128952380D02*
X96180952Y-128952380D01*
X96466666Y-128952380D02*
X96466666Y-127952380D01*
X96371428Y-128095238D01*
X96276190Y-128190476D01*
X96180952Y-128238095D01*
X97133333Y-128047619D02*
X97180952Y-128000000D01*
X97276190Y-127952380D01*
X97514285Y-127952380D01*
X97609523Y-128000000D01*
X97657142Y-128047619D01*
X97704761Y-128142857D01*
X97704761Y-128238095D01*
X97657142Y-128380952D01*
X97085714Y-128952380D01*
X97704761Y-128952380D01*
X98657142Y-128952380D02*
X98085714Y-128952380D01*
X98371428Y-128952380D02*
X98371428Y-127952380D01*
X98276190Y-128095238D01*
X98180952Y-128190476D01*
X98085714Y-128238095D01*
X99133333Y-128904761D02*
X99133333Y-128952380D01*
X99085714Y-129047619D01*
X99038095Y-129095238D01*
X99752380Y-127952380D02*
X99847619Y-127952380D01*
X99942857Y-128000000D01*
X99990476Y-128047619D01*
X100038095Y-128142857D01*
X100085714Y-128333333D01*
X100085714Y-128571428D01*
X100038095Y-128761904D01*
X99990476Y-128857142D01*
X99942857Y-128904761D01*
X99847619Y-128952380D01*
X99752380Y-128952380D01*
X99657142Y-128904761D01*
X99609523Y-128857142D01*
X99561904Y-128761904D01*
X99514285Y-128571428D01*
X99514285Y-128333333D01*
X99561904Y-128142857D01*
X99609523Y-128047619D01*
X99657142Y-128000000D01*
X99752380Y-127952380D01*
X100704761Y-127952380D02*
X100800000Y-127952380D01*
X100895238Y-128000000D01*
X100942857Y-128047619D01*
X100990476Y-128142857D01*
X101038095Y-128333333D01*
X101038095Y-128571428D01*
X100990476Y-128761904D01*
X100942857Y-128857142D01*
X100895238Y-128904761D01*
X100800000Y-128952380D01*
X100704761Y-128952380D01*
X100609523Y-128904761D01*
X100561904Y-128857142D01*
X100514285Y-128761904D01*
X100466666Y-128571428D01*
X100466666Y-128333333D01*
X100514285Y-128142857D01*
X100561904Y-128047619D01*
X100609523Y-128000000D01*
X100704761Y-127952380D01*
X101657142Y-127952380D02*
X101752380Y-127952380D01*
X101847619Y-128000000D01*
X101895238Y-128047619D01*
X101942857Y-128142857D01*
X101990476Y-128333333D01*
X101990476Y-128571428D01*
X101942857Y-128761904D01*
X101895238Y-128857142D01*
X101847619Y-128904761D01*
X101752380Y-128952380D01*
X101657142Y-128952380D01*
X101561904Y-128904761D01*
X101514285Y-128857142D01*
X101466666Y-128761904D01*
X101419047Y-128571428D01*
X101419047Y-128333333D01*
X101466666Y-128142857D01*
X101514285Y-128047619D01*
X101561904Y-128000000D01*
X101657142Y-127952380D01*
X103180952Y-128952380D02*
X103180952Y-128285714D01*
X103180952Y-128380952D02*
X103228571Y-128333333D01*
X103323809Y-128285714D01*
X103466666Y-128285714D01*
X103561904Y-128333333D01*
X103609523Y-128428571D01*
X103609523Y-128952380D01*
X103609523Y-128428571D02*
X103657142Y-128333333D01*
X103752380Y-128285714D01*
X103895238Y-128285714D01*
X103990476Y-128333333D01*
X104038095Y-128428571D01*
X104038095Y-128952380D01*
X104514285Y-128952380D02*
X104514285Y-128285714D01*
X104514285Y-128380952D02*
X104561904Y-128333333D01*
X104657142Y-128285714D01*
X104800000Y-128285714D01*
X104895238Y-128333333D01*
X104942857Y-128428571D01*
X104942857Y-128952380D01*
X104942857Y-128428571D02*
X104990476Y-128333333D01*
X105085714Y-128285714D01*
X105228571Y-128285714D01*
X105323809Y-128333333D01*
X105371428Y-128428571D01*
X105371428Y-128952380D01*
D11*
X40300000Y-127300000D02*
X161300000Y-127300000D01*
X40300000Y-127300000D02*
X40300000Y-127886421D01*
X161300000Y-127300000D02*
X161300000Y-127886421D01*
X161300000Y-127300000D02*
X160173496Y-127886421D01*
X161300000Y-127300000D02*
X160173496Y-126713579D01*
X40300000Y-127300000D02*
X41426504Y-127886421D01*
X40300000Y-127300000D02*
X41426504Y-126713579D01*
%TO.C,3\u002C5mm*%
X47750000Y-120960000D02*
G75*
G03*
X47750000Y-120960000I-3450000J0D01*
G01*
X47750000Y-44460000D02*
G75*
G03*
X47750000Y-44460000I-3450000J0D01*
G01*
X160750000Y-120960000D02*
G75*
G03*
X160750000Y-120960000I-3450000J0D01*
G01*
X160590000Y-44510000D02*
G75*
G03*
X160590000Y-44510000I-3450000J0D01*
G01*
D12*
%TO.C,U1*%
X68700000Y-84410000D02*
X68700000Y-114010000D01*
X93800000Y-84410000D02*
X93800000Y-114010000D01*
X68700000Y-114010000D02*
X93800000Y-114010000D01*
X68700000Y-84410000D02*
X93800000Y-84410000D01*
X75900000Y-113810000D02*
X86500000Y-113810000D01*
X75900000Y-98310000D02*
X86500000Y-98310000D01*
X75900000Y-113810000D02*
X75900000Y-98310000D01*
X86500000Y-113810000D02*
X86500000Y-98310000D01*
D11*
%TO.C,C2*%
X76750000Y-59000000D02*
X76750000Y-68000000D01*
X76750000Y-68000000D02*
X93850000Y-68000000D01*
X93850000Y-68000000D02*
X93850000Y-59000000D01*
X93850000Y-59000000D02*
X76750000Y-59000000D01*
%TO.C,F1*%
X45250000Y-82750000D02*
X55350000Y-82750000D01*
X45250000Y-108750000D02*
X45250000Y-82750000D01*
X55350000Y-82750000D02*
X55350000Y-108750000D01*
X55350000Y-108750000D02*
X45250000Y-108750000D01*
%TO.C,C1*%
X109900000Y-50200000D02*
G75*
G03*
X109900000Y-50200000I-8750000J0D01*
G01*
%TO.C,C3*%
X88500000Y-123600000D02*
X94000000Y-123600000D01*
X88500000Y-120600000D02*
X88500000Y-123600000D01*
X94000000Y-120600000D02*
X88500000Y-120600000D01*
X94000000Y-123600000D02*
X94000000Y-120600000D01*
D12*
%TO.C,D1*%
X78214724Y-52110280D02*
X87075000Y-52100000D01*
X78214723Y-52110280D02*
G75*
G02*
X87075000Y-52100000I4425009J4426479D01*
G01*
D11*
%TO.C,D2*%
X90950000Y-70650000D02*
X90950000Y-77150000D01*
X90950000Y-77150000D02*
X97400000Y-77150000D01*
X97400000Y-77150000D02*
X97400000Y-70650000D01*
X97400000Y-70650000D02*
X90950000Y-70650000D01*
%TO.C,D3*%
X151350000Y-98050000D02*
X151350000Y-104550000D01*
X151350000Y-104550000D02*
X157800000Y-104550000D01*
X157800000Y-104550000D02*
X157800000Y-98050000D01*
X157800000Y-98050000D02*
X151350000Y-98050000D01*
%TO.C,D4*%
X157800000Y-88350000D02*
X151350000Y-88350000D01*
X157800000Y-94850000D02*
X157800000Y-88350000D01*
X151350000Y-94850000D02*
X157800000Y-94850000D01*
X151350000Y-88350000D02*
X151350000Y-94850000D01*
%TO.C,D5*%
X151350000Y-78750000D02*
X151350000Y-85250000D01*
X151350000Y-85250000D02*
X157800000Y-85250000D01*
X157800000Y-85250000D02*
X157800000Y-78750000D01*
X157800000Y-78750000D02*
X151350000Y-78750000D01*
%TO.C,D6*%
X157800000Y-68950000D02*
X151350000Y-68950000D01*
X157800000Y-75450000D02*
X157800000Y-68950000D01*
X151350000Y-75450000D02*
X157800000Y-75450000D01*
X151350000Y-68950000D02*
X151350000Y-75450000D01*
%TO.C,D7*%
X151350000Y-59250000D02*
X151350000Y-65750000D01*
X151350000Y-65750000D02*
X157800000Y-65750000D01*
X157800000Y-65750000D02*
X157800000Y-59250000D01*
X157800000Y-59250000D02*
X151350000Y-59250000D01*
%TO.C,D8*%
X157800000Y-50850000D02*
X151350000Y-50850000D01*
X157800000Y-57350000D02*
X157800000Y-50850000D01*
X151350000Y-57350000D02*
X157800000Y-57350000D01*
X151350000Y-50850000D02*
X151350000Y-57350000D01*
%TO.C,R1*%
X77350000Y-72400000D02*
X77350000Y-75400000D01*
X77350000Y-75400000D02*
X87070000Y-75400000D01*
X87070000Y-75400000D02*
X87070000Y-72400000D01*
X87070000Y-72400000D02*
X77350000Y-72400000D01*
%TO.C,R2*%
X101150000Y-62000000D02*
X101150000Y-65000000D01*
X101150000Y-65000000D02*
X110870000Y-65000000D01*
X110870000Y-65000000D02*
X110870000Y-62000000D01*
X110870000Y-62000000D02*
X101150000Y-62000000D01*
%TO.C,R3*%
X101150000Y-66000000D02*
X101150000Y-69000000D01*
X101150000Y-69000000D02*
X110870000Y-69000000D01*
X110870000Y-69000000D02*
X110870000Y-66000000D01*
X110870000Y-66000000D02*
X101150000Y-66000000D01*
%TO.C,R4*%
X110870000Y-70100000D02*
X101150000Y-70100000D01*
X110870000Y-73100000D02*
X110870000Y-70100000D01*
X101150000Y-73100000D02*
X110870000Y-73100000D01*
X101150000Y-70100000D02*
X101150000Y-73100000D01*
%TO.C,R5*%
X101050000Y-74100000D02*
X101050000Y-77100000D01*
X101050000Y-77100000D02*
X110770000Y-77100000D01*
X110770000Y-77100000D02*
X110770000Y-74100000D01*
X110770000Y-74100000D02*
X101050000Y-74100000D01*
%TO.C,R6*%
X110770000Y-78100000D02*
X101050000Y-78100000D01*
X110770000Y-81100000D02*
X110770000Y-78100000D01*
X101050000Y-81100000D02*
X110770000Y-81100000D01*
X101050000Y-78100000D02*
X101050000Y-81100000D01*
%TO.C,R7*%
X110770000Y-82100000D02*
X101050000Y-82100000D01*
X110770000Y-85100000D02*
X110770000Y-82100000D01*
X101050000Y-85100000D02*
X110770000Y-85100000D01*
X101050000Y-82100000D02*
X101050000Y-85100000D01*
%TO.C,R8*%
X137750000Y-82400000D02*
X137750000Y-85400000D01*
X137750000Y-85400000D02*
X147470000Y-85400000D01*
X147470000Y-85400000D02*
X147470000Y-82400000D01*
X147470000Y-82400000D02*
X137750000Y-82400000D01*
%TO.C,R9*%
X147470000Y-78500000D02*
X137750000Y-78500000D01*
X147470000Y-81500000D02*
X147470000Y-78500000D01*
X137750000Y-81500000D02*
X147470000Y-81500000D01*
X137750000Y-78500000D02*
X137750000Y-81500000D01*
%TO.C,R10*%
X147470000Y-74700000D02*
X137750000Y-74700000D01*
X147470000Y-77700000D02*
X147470000Y-74700000D01*
X137750000Y-77700000D02*
X147470000Y-77700000D01*
X137750000Y-74700000D02*
X137750000Y-77700000D01*
%TO.C,R11*%
X137750000Y-70600000D02*
X137750000Y-73600000D01*
X137750000Y-73600000D02*
X147470000Y-73600000D01*
X147470000Y-73600000D02*
X147470000Y-70600000D01*
X147470000Y-70600000D02*
X137750000Y-70600000D01*
%TO.C,R12*%
X147470000Y-66400000D02*
X137750000Y-66400000D01*
X147470000Y-69400000D02*
X147470000Y-66400000D01*
X137750000Y-69400000D02*
X147470000Y-69400000D01*
X137750000Y-66400000D02*
X137750000Y-69400000D01*
%TO.C,R13*%
X137750000Y-62400000D02*
X137750000Y-65400000D01*
X137750000Y-65400000D02*
X147470000Y-65400000D01*
X147470000Y-65400000D02*
X147470000Y-62400000D01*
X147470000Y-62400000D02*
X137750000Y-62400000D01*
%TO.C,U2*%
X114870000Y-44740000D02*
X133150000Y-44740000D01*
X114870000Y-44740000D02*
X114870000Y-90960000D01*
X133150000Y-90960000D02*
X133150000Y-44740000D01*
X133150000Y-90960000D02*
X114870000Y-90960000D01*
D12*
%TO.C,U3*%
X119300000Y-123950000D02*
X106550000Y-123950000D01*
X119300000Y-104265000D02*
X119300000Y-123950000D01*
X106550000Y-104265000D02*
X106550000Y-123950000D01*
X119300000Y-104265000D02*
X106550000Y-104265000D01*
D11*
%TO.C,J5*%
X142900000Y-48900000D02*
X139300000Y-48900000D01*
X142900000Y-55050000D02*
X142900000Y-48900000D01*
X139300000Y-55050000D02*
X142900000Y-55050000D01*
X139300000Y-48900000D02*
X139300000Y-55050000D01*
%TO.C,J1*%
X50030000Y-119800000D02*
X50030000Y-109800000D01*
X66370000Y-119800000D02*
X50030000Y-119800000D01*
X66370000Y-109800000D02*
X66370000Y-119800000D01*
X50030000Y-109800000D02*
X66370000Y-109800000D01*
%TO.C,TR1*%
X72650000Y-50050000D02*
X72650000Y-81550000D01*
X72650000Y-50050000D02*
X44150000Y-50050000D01*
X44150000Y-81550000D02*
X72650000Y-81550000D01*
X44150000Y-81550000D02*
X44150000Y-50050000D01*
%TO.C,J2*%
X97500000Y-99910000D02*
X97500000Y-116210000D01*
X97500000Y-116210000D02*
X101100000Y-116210000D01*
X101100000Y-116210000D02*
X101100000Y-99910000D01*
X101100000Y-99910000D02*
X97500000Y-99910000D01*
%TO.C,J3*%
X104500000Y-86700000D02*
X104500000Y-103000000D01*
X104500000Y-103000000D02*
X108100000Y-103000000D01*
X108100000Y-103000000D02*
X108100000Y-86700000D01*
X108100000Y-86700000D02*
X104500000Y-86700000D01*
%TO.C,J4*%
X147600000Y-88500000D02*
X144000000Y-88500000D01*
X147600000Y-104800000D02*
X147600000Y-88500000D01*
X144000000Y-104800000D02*
X147600000Y-104800000D01*
X144000000Y-88500000D02*
X144000000Y-104800000D01*
%TO.C,J6*%
X125000000Y-119600000D02*
X121400000Y-119600000D01*
X125000000Y-123200000D02*
X125000000Y-119600000D01*
X121400000Y-123200000D02*
X125000000Y-123200000D01*
X121400000Y-119600000D02*
X121400000Y-123200000D01*
%TD*%
M02*
