%TF.GenerationSoftware,KiCad,Pcbnew,(5.1.8)-1*%
%TF.CreationDate,2021-12-10T09:08:05+01:00*%
%TF.ProjectId,Schema_Commande_Chacon_54650TX_V2,53636865-6d61-45f4-936f-6d6d616e6465,rev?*%
%TF.SameCoordinates,Original*%
%TF.FileFunction,Soldermask,Top*%
%TF.FilePolarity,Negative*%
%FSLAX46Y46*%
G04 Gerber Fmt 4.6, Leading zero omitted, Abs format (unit mm)*
G04 Created by KiCad (PCBNEW (5.1.8)-1) date 2021-12-10 09:08:05*
%MOMM*%
%LPD*%
G01*
G04 APERTURE LIST*
%ADD10C,8.000000*%
%ADD11O,1.900000X2.500000*%
%ADD12R,1.900000X2.500000*%
%ADD13O,3.500000X3.500000*%
%ADD14C,2.000000*%
%ADD15O,3.500000X2.500000*%
%ADD16R,2.000000X2.000000*%
%ADD17C,1.600000*%
%ADD18C,2.500000*%
%ADD19R,2.500000X2.500000*%
%ADD20R,1.600000X1.600000*%
%ADD21R,2.500000X1.700000*%
%ADD22O,2.500000X1.700000*%
%ADD23C,1.760000*%
%ADD24R,1.760000X1.760000*%
%ADD25O,2.400000X1.760000*%
%ADD26R,1.950000X1.950000*%
%ADD27C,1.950000*%
%ADD28R,1.700000X1.700000*%
%ADD29O,1.700000X1.700000*%
G04 APERTURE END LIST*
D10*
%TO.C,3\u002C5mm*%
X44300000Y-120960000D03*
%TD*%
%TO.C,3\u002C5mm*%
X44300000Y-44460000D03*
%TD*%
%TO.C,3\u002C5mm*%
X157300000Y-120960000D03*
%TD*%
%TO.C,3\u002C5mm*%
X157140000Y-44510000D03*
%TD*%
D11*
%TO.C,U1*%
X83840000Y-117710000D03*
X81300000Y-117710000D03*
D12*
X78760000Y-117710000D03*
D13*
X81300000Y-101510000D03*
%TD*%
D14*
%TO.C,C2*%
X77800000Y-63500000D03*
X92800000Y-63500000D03*
%TD*%
D15*
%TO.C,F1*%
X50300000Y-84500000D03*
X50300000Y-107000000D03*
%TD*%
D16*
%TO.C,C1*%
X97400000Y-50200000D03*
D14*
X104900000Y-50200000D03*
%TD*%
D17*
%TO.C,C3*%
X92500000Y-122100000D03*
X90000000Y-122100000D03*
%TD*%
D18*
%TO.C,D1*%
X85700000Y-44600000D03*
D19*
X80100000Y-50200000D03*
D18*
X85700000Y-50200000D03*
X80100000Y-44600000D03*
%TD*%
D20*
%TO.C,D2*%
X92900000Y-73900000D03*
D17*
X95440000Y-73900000D03*
%TD*%
D20*
%TO.C,D3*%
X153300000Y-101300000D03*
D17*
X155840000Y-101300000D03*
%TD*%
%TO.C,D4*%
X155840000Y-91600000D03*
D20*
X153300000Y-91600000D03*
%TD*%
%TO.C,D5*%
X153300000Y-82000000D03*
D17*
X155840000Y-82000000D03*
%TD*%
%TO.C,D6*%
X155840000Y-72200000D03*
D20*
X153300000Y-72200000D03*
%TD*%
%TO.C,D7*%
X153300000Y-62500000D03*
D17*
X155840000Y-62500000D03*
%TD*%
%TO.C,D8*%
X155840000Y-54100000D03*
D20*
X153300000Y-54100000D03*
%TD*%
D14*
%TO.C,R1*%
X78400000Y-73900000D03*
X86020000Y-73900000D03*
%TD*%
%TO.C,R2*%
X102200000Y-63500000D03*
X109820000Y-63500000D03*
%TD*%
%TO.C,R3*%
X102200000Y-67500000D03*
X109820000Y-67500000D03*
%TD*%
%TO.C,R4*%
X109820000Y-71600000D03*
X102200000Y-71600000D03*
%TD*%
%TO.C,R5*%
X102100000Y-75600000D03*
X109720000Y-75600000D03*
%TD*%
%TO.C,R6*%
X109720000Y-79600000D03*
X102100000Y-79600000D03*
%TD*%
%TO.C,R7*%
X109720000Y-83600000D03*
X102100000Y-83600000D03*
%TD*%
%TO.C,R8*%
X138800000Y-83900000D03*
X146420000Y-83900000D03*
%TD*%
%TO.C,R9*%
X146420000Y-80000000D03*
X138800000Y-80000000D03*
%TD*%
%TO.C,R10*%
X146420000Y-76200000D03*
X138800000Y-76200000D03*
%TD*%
%TO.C,R11*%
X138800000Y-72100000D03*
X146420000Y-72100000D03*
%TD*%
%TO.C,R12*%
X146420000Y-67900000D03*
X138800000Y-67900000D03*
%TD*%
%TO.C,R13*%
X138800000Y-63900000D03*
X146420000Y-63900000D03*
%TD*%
D21*
%TO.C,U2*%
X116400000Y-48800000D03*
D22*
X131640000Y-81820000D03*
X116400000Y-51340000D03*
X131640000Y-79280000D03*
X116400000Y-53880000D03*
X131640000Y-76740000D03*
X116400000Y-56420000D03*
X131640000Y-74200000D03*
X116400000Y-58960000D03*
X131640000Y-71660000D03*
X116400000Y-61500000D03*
X131640000Y-69120000D03*
X116400000Y-64040000D03*
X131640000Y-66580000D03*
X116400000Y-66580000D03*
X131640000Y-64040000D03*
X116400000Y-69120000D03*
X131640000Y-61500000D03*
X116400000Y-71660000D03*
X131640000Y-58960000D03*
X116400000Y-74200000D03*
X131640000Y-56420000D03*
X116400000Y-76740000D03*
X131640000Y-53880000D03*
X116400000Y-79280000D03*
X131640000Y-51340000D03*
X116400000Y-81820000D03*
X131640000Y-48800000D03*
X116400000Y-84360000D03*
X131640000Y-84360000D03*
%TD*%
D23*
%TO.C,U3*%
X116710000Y-121410000D03*
X114170000Y-121410000D03*
X111630000Y-121410000D03*
D24*
X109090000Y-121410000D03*
%TD*%
%TO.C,J5*%
X141100000Y-50700000D03*
D25*
X141100000Y-53240000D03*
%TD*%
D26*
%TO.C,J1*%
X53420000Y-114800000D03*
D27*
X58500000Y-114800000D03*
X63580000Y-114800000D03*
%TD*%
D16*
%TO.C,TR1*%
X48400000Y-55800000D03*
D14*
X48400000Y-60800000D03*
X48400000Y-70800000D03*
X48400000Y-75800000D03*
X68400000Y-75800000D03*
X68400000Y-70800000D03*
X68400000Y-65800000D03*
X68400000Y-60800000D03*
X68400000Y-55800000D03*
%TD*%
D28*
%TO.C,J2*%
X99300000Y-101710000D03*
D29*
X99300000Y-104250000D03*
X99300000Y-106790000D03*
X99300000Y-109330000D03*
X99300000Y-111870000D03*
X99300000Y-114410000D03*
%TD*%
D28*
%TO.C,J3*%
X106300000Y-88500000D03*
D29*
X106300000Y-91040000D03*
X106300000Y-93580000D03*
X106300000Y-96120000D03*
X106300000Y-98660000D03*
X106300000Y-101200000D03*
%TD*%
%TO.C,J4*%
X145800000Y-103000000D03*
X145800000Y-100460000D03*
X145800000Y-97920000D03*
X145800000Y-95380000D03*
X145800000Y-92840000D03*
D28*
X145800000Y-90300000D03*
%TD*%
D24*
%TO.C,J6*%
X123200000Y-121400000D03*
%TD*%
M02*
