%TF.GenerationSoftware,KiCad,Pcbnew,(5.1.8)-1*%
%TF.CreationDate,2021-12-10T09:08:06+01:00*%
%TF.ProjectId,Schema_Commande_Chacon_54650TX_V2,53636865-6d61-45f4-936f-6d6d616e6465,rev?*%
%TF.SameCoordinates,Original*%
%TF.FileFunction,Other,Fab,Top*%
%FSLAX46Y46*%
G04 Gerber Fmt 4.6, Leading zero omitted, Abs format (unit mm)*
G04 Created by KiCad (PCBNEW (5.1.8)-1) date 2021-12-10 09:08:06*
%MOMM*%
%LPD*%
G01*
G04 APERTURE LIST*
%ADD10C,0.120000*%
%ADD11C,0.100000*%
%ADD12C,0.127000*%
%ADD13C,0.150000*%
%ADD14C,0.200000*%
%ADD15C,0.015000*%
G04 APERTURE END LIST*
D10*
%TO.C,U1*%
X86200000Y-98610000D02*
X86200000Y-113485000D01*
X76150000Y-98610000D02*
X76150000Y-113485000D01*
X76150000Y-98610000D02*
X86200000Y-98610000D01*
X76150000Y-113485000D02*
X86200000Y-113485000D01*
D11*
X83135000Y-101485000D02*
G75*
G03*
X83135000Y-101485000I-1850000J0D01*
G01*
%TO.C,C2*%
X79300000Y-59250000D02*
X79300000Y-67750000D01*
X79300000Y-67750000D02*
X91300000Y-67750000D01*
X91300000Y-67750000D02*
X91300000Y-59250000D01*
X91300000Y-59250000D02*
X79300000Y-59250000D01*
X77800000Y-63500000D02*
X79300000Y-63500000D01*
X92800000Y-63500000D02*
X91300000Y-63500000D01*
%TO.C,F1*%
X55100000Y-84500000D02*
X45500000Y-84500000D01*
X45500000Y-84500000D02*
X45500000Y-107000000D01*
X45500000Y-107000000D02*
X55100000Y-107000000D01*
X55100000Y-107000000D02*
X55100000Y-84500000D01*
%TO.C,C1*%
X109650000Y-50200000D02*
G75*
G03*
X109650000Y-50200000I-8500000J0D01*
G01*
X93843781Y-46472500D02*
X95543781Y-46472500D01*
X94693781Y-45622500D02*
X94693781Y-47322500D01*
%TO.C,C3*%
X88750000Y-123350000D02*
X93750000Y-123350000D01*
X88750000Y-120850000D02*
X88750000Y-123350000D01*
X93750000Y-120850000D02*
X88750000Y-120850000D01*
X93750000Y-123350000D02*
X93750000Y-120850000D01*
D10*
%TO.C,D1*%
X78200000Y-51700000D02*
X87000000Y-51700000D01*
X78200000Y-51700000D02*
G75*
G02*
X87000000Y-51700000I4400000J4000000D01*
G01*
D11*
%TO.C,D2*%
X96670000Y-73900000D02*
G75*
G03*
X96670000Y-73900000I-2500000J0D01*
G01*
X91670000Y-72430306D02*
X91670000Y-75369694D01*
X91669984Y-75369666D02*
G75*
G03*
X91670000Y-72430306I2500016J1469666D01*
G01*
%TO.C,D3*%
X157070000Y-101300000D02*
G75*
G03*
X157070000Y-101300000I-2500000J0D01*
G01*
X152070000Y-99830306D02*
X152070000Y-102769694D01*
X152069984Y-102769666D02*
G75*
G03*
X152070000Y-99830306I2500016J1469666D01*
G01*
%TO.C,D4*%
X152070000Y-90130306D02*
X152070000Y-93069694D01*
X157070000Y-91600000D02*
G75*
G03*
X157070000Y-91600000I-2500000J0D01*
G01*
X152069984Y-93069666D02*
G75*
G03*
X152070000Y-90130306I2500016J1469666D01*
G01*
%TO.C,D5*%
X157070000Y-82000000D02*
G75*
G03*
X157070000Y-82000000I-2500000J0D01*
G01*
X152070000Y-80530306D02*
X152070000Y-83469694D01*
X152069984Y-83469666D02*
G75*
G03*
X152070000Y-80530306I2500016J1469666D01*
G01*
%TO.C,D6*%
X152070000Y-70730306D02*
X152070000Y-73669694D01*
X157070000Y-72200000D02*
G75*
G03*
X157070000Y-72200000I-2500000J0D01*
G01*
X152069984Y-73669666D02*
G75*
G03*
X152070000Y-70730306I2500016J1469666D01*
G01*
%TO.C,D7*%
X157070000Y-62500000D02*
G75*
G03*
X157070000Y-62500000I-2500000J0D01*
G01*
X152070000Y-61030306D02*
X152070000Y-63969694D01*
X152069984Y-63969666D02*
G75*
G03*
X152070000Y-61030306I2500016J1469666D01*
G01*
%TO.C,D8*%
X152070000Y-52630306D02*
X152070000Y-55569694D01*
X157070000Y-54100000D02*
G75*
G03*
X157070000Y-54100000I-2500000J0D01*
G01*
X152069984Y-55569666D02*
G75*
G03*
X152070000Y-52630306I2500016J1469666D01*
G01*
%TO.C,R1*%
X79060000Y-72650000D02*
X79060000Y-75150000D01*
X79060000Y-75150000D02*
X85360000Y-75150000D01*
X85360000Y-75150000D02*
X85360000Y-72650000D01*
X85360000Y-72650000D02*
X79060000Y-72650000D01*
X78400000Y-73900000D02*
X79060000Y-73900000D01*
X86020000Y-73900000D02*
X85360000Y-73900000D01*
%TO.C,R2*%
X102860000Y-62250000D02*
X102860000Y-64750000D01*
X102860000Y-64750000D02*
X109160000Y-64750000D01*
X109160000Y-64750000D02*
X109160000Y-62250000D01*
X109160000Y-62250000D02*
X102860000Y-62250000D01*
X102200000Y-63500000D02*
X102860000Y-63500000D01*
X109820000Y-63500000D02*
X109160000Y-63500000D01*
%TO.C,R3*%
X102860000Y-66250000D02*
X102860000Y-68750000D01*
X102860000Y-68750000D02*
X109160000Y-68750000D01*
X109160000Y-68750000D02*
X109160000Y-66250000D01*
X109160000Y-66250000D02*
X102860000Y-66250000D01*
X102200000Y-67500000D02*
X102860000Y-67500000D01*
X109820000Y-67500000D02*
X109160000Y-67500000D01*
%TO.C,R4*%
X109820000Y-71600000D02*
X109160000Y-71600000D01*
X102200000Y-71600000D02*
X102860000Y-71600000D01*
X109160000Y-70350000D02*
X102860000Y-70350000D01*
X109160000Y-72850000D02*
X109160000Y-70350000D01*
X102860000Y-72850000D02*
X109160000Y-72850000D01*
X102860000Y-70350000D02*
X102860000Y-72850000D01*
%TO.C,R5*%
X102760000Y-74350000D02*
X102760000Y-76850000D01*
X102760000Y-76850000D02*
X109060000Y-76850000D01*
X109060000Y-76850000D02*
X109060000Y-74350000D01*
X109060000Y-74350000D02*
X102760000Y-74350000D01*
X102100000Y-75600000D02*
X102760000Y-75600000D01*
X109720000Y-75600000D02*
X109060000Y-75600000D01*
%TO.C,R6*%
X109720000Y-79600000D02*
X109060000Y-79600000D01*
X102100000Y-79600000D02*
X102760000Y-79600000D01*
X109060000Y-78350000D02*
X102760000Y-78350000D01*
X109060000Y-80850000D02*
X109060000Y-78350000D01*
X102760000Y-80850000D02*
X109060000Y-80850000D01*
X102760000Y-78350000D02*
X102760000Y-80850000D01*
%TO.C,R7*%
X109720000Y-83600000D02*
X109060000Y-83600000D01*
X102100000Y-83600000D02*
X102760000Y-83600000D01*
X109060000Y-82350000D02*
X102760000Y-82350000D01*
X109060000Y-84850000D02*
X109060000Y-82350000D01*
X102760000Y-84850000D02*
X109060000Y-84850000D01*
X102760000Y-82350000D02*
X102760000Y-84850000D01*
%TO.C,R8*%
X139460000Y-82650000D02*
X139460000Y-85150000D01*
X139460000Y-85150000D02*
X145760000Y-85150000D01*
X145760000Y-85150000D02*
X145760000Y-82650000D01*
X145760000Y-82650000D02*
X139460000Y-82650000D01*
X138800000Y-83900000D02*
X139460000Y-83900000D01*
X146420000Y-83900000D02*
X145760000Y-83900000D01*
%TO.C,R9*%
X146420000Y-80000000D02*
X145760000Y-80000000D01*
X138800000Y-80000000D02*
X139460000Y-80000000D01*
X145760000Y-78750000D02*
X139460000Y-78750000D01*
X145760000Y-81250000D02*
X145760000Y-78750000D01*
X139460000Y-81250000D02*
X145760000Y-81250000D01*
X139460000Y-78750000D02*
X139460000Y-81250000D01*
%TO.C,R10*%
X146420000Y-76200000D02*
X145760000Y-76200000D01*
X138800000Y-76200000D02*
X139460000Y-76200000D01*
X145760000Y-74950000D02*
X139460000Y-74950000D01*
X145760000Y-77450000D02*
X145760000Y-74950000D01*
X139460000Y-77450000D02*
X145760000Y-77450000D01*
X139460000Y-74950000D02*
X139460000Y-77450000D01*
%TO.C,R11*%
X139460000Y-70850000D02*
X139460000Y-73350000D01*
X139460000Y-73350000D02*
X145760000Y-73350000D01*
X145760000Y-73350000D02*
X145760000Y-70850000D01*
X145760000Y-70850000D02*
X139460000Y-70850000D01*
X138800000Y-72100000D02*
X139460000Y-72100000D01*
X146420000Y-72100000D02*
X145760000Y-72100000D01*
%TO.C,R12*%
X146420000Y-67900000D02*
X145760000Y-67900000D01*
X138800000Y-67900000D02*
X139460000Y-67900000D01*
X145760000Y-66650000D02*
X139460000Y-66650000D01*
X145760000Y-69150000D02*
X145760000Y-66650000D01*
X139460000Y-69150000D02*
X145760000Y-69150000D01*
X139460000Y-66650000D02*
X139460000Y-69150000D01*
%TO.C,R13*%
X139460000Y-62650000D02*
X139460000Y-65150000D01*
X139460000Y-65150000D02*
X145760000Y-65150000D01*
X145760000Y-65150000D02*
X145760000Y-62650000D01*
X145760000Y-62650000D02*
X139460000Y-62650000D01*
X138800000Y-63900000D02*
X139460000Y-63900000D01*
X146420000Y-63900000D02*
X145760000Y-63900000D01*
%TO.C,U2*%
X120210000Y-80550000D02*
X127830000Y-80550000D01*
X127830000Y-80550000D02*
X127830000Y-90710000D01*
X127830000Y-90710000D02*
X120210000Y-90710000D01*
X120210000Y-90710000D02*
X120210000Y-80550000D01*
X132910000Y-88170000D02*
X115130000Y-88170000D01*
X115130000Y-88170000D02*
X115130000Y-46260000D01*
X115130000Y-46260000D02*
X116400000Y-44990000D01*
X116400000Y-44990000D02*
X132910000Y-44990000D01*
X132910000Y-44990000D02*
X132910000Y-88170000D01*
D10*
%TO.C,U3*%
X106950000Y-104750000D02*
X106950000Y-123550000D01*
X118850000Y-104650000D02*
X106950000Y-104650000D01*
X118950000Y-104650000D02*
X118950000Y-123550000D01*
X118850000Y-123550000D02*
X106950000Y-123550000D01*
D11*
%TO.C,J5*%
X139830000Y-50065000D02*
X140465000Y-49430000D01*
X139830000Y-54510000D02*
X139830000Y-50065000D01*
X142370000Y-54510000D02*
X139830000Y-54510000D01*
X142370000Y-49430000D02*
X142370000Y-54510000D01*
X140465000Y-49430000D02*
X142370000Y-49430000D01*
D12*
%TO.C,J1*%
X50280000Y-119550000D02*
X50880000Y-119550000D01*
X50280000Y-110050000D02*
X50280000Y-119550000D01*
X50880000Y-110050000D02*
X50280000Y-110050000D01*
X50880000Y-119550000D02*
X50880000Y-110050000D01*
X66120000Y-119550000D02*
X50880000Y-119550000D01*
X66120000Y-110050000D02*
X66120000Y-119550000D01*
X50880000Y-110050000D02*
X66120000Y-110050000D01*
D11*
%TO.C,TR1*%
X69400000Y-54300000D02*
X47400000Y-54300000D01*
X47400000Y-54300000D02*
X47400000Y-77300000D01*
X47400000Y-77300000D02*
X69400000Y-77300000D01*
X69400000Y-77300000D02*
X69400000Y-54300000D01*
X72400000Y-50300000D02*
X72400000Y-81300000D01*
X72400000Y-81300000D02*
X44400000Y-81300000D01*
X44400000Y-81300000D02*
X44400000Y-50300000D01*
X44400000Y-50300000D02*
X72400000Y-50300000D01*
%TO.C,J2*%
X98665000Y-100440000D02*
X100570000Y-100440000D01*
X100570000Y-100440000D02*
X100570000Y-115680000D01*
X100570000Y-115680000D02*
X98030000Y-115680000D01*
X98030000Y-115680000D02*
X98030000Y-101075000D01*
X98030000Y-101075000D02*
X98665000Y-100440000D01*
%TO.C,J3*%
X105665000Y-87230000D02*
X107570000Y-87230000D01*
X107570000Y-87230000D02*
X107570000Y-102470000D01*
X107570000Y-102470000D02*
X105030000Y-102470000D01*
X105030000Y-102470000D02*
X105030000Y-87865000D01*
X105030000Y-87865000D02*
X105665000Y-87230000D01*
%TO.C,J4*%
X144530000Y-89665000D02*
X145165000Y-89030000D01*
X144530000Y-104270000D02*
X144530000Y-89665000D01*
X147070000Y-104270000D02*
X144530000Y-104270000D01*
X147070000Y-89030000D02*
X147070000Y-104270000D01*
X145165000Y-89030000D02*
X147070000Y-89030000D01*
%TO.C,J6*%
X121930000Y-120765000D02*
X122565000Y-120130000D01*
X121930000Y-122670000D02*
X121930000Y-120765000D01*
X124470000Y-122670000D02*
X121930000Y-122670000D01*
X124470000Y-120130000D02*
X124470000Y-122670000D01*
X122565000Y-120130000D02*
X124470000Y-120130000D01*
%TD*%
%TO.C,3\u002C5mm*%
D13*
X33395238Y-125612380D02*
X33395238Y-124612380D01*
X33728571Y-125326666D01*
X34061904Y-124612380D01*
X34061904Y-125612380D01*
X34680952Y-125612380D02*
X34585714Y-125564761D01*
X34538095Y-125517142D01*
X34490476Y-125421904D01*
X34490476Y-125136190D01*
X34538095Y-125040952D01*
X34585714Y-124993333D01*
X34680952Y-124945714D01*
X34823809Y-124945714D01*
X34919047Y-124993333D01*
X34966666Y-125040952D01*
X35014285Y-125136190D01*
X35014285Y-125421904D01*
X34966666Y-125517142D01*
X34919047Y-125564761D01*
X34823809Y-125612380D01*
X34680952Y-125612380D01*
X35871428Y-124945714D02*
X35871428Y-125612380D01*
X35442857Y-124945714D02*
X35442857Y-125469523D01*
X35490476Y-125564761D01*
X35585714Y-125612380D01*
X35728571Y-125612380D01*
X35823809Y-125564761D01*
X35871428Y-125517142D01*
X36347619Y-124945714D02*
X36347619Y-125612380D01*
X36347619Y-125040952D02*
X36395238Y-124993333D01*
X36490476Y-124945714D01*
X36633333Y-124945714D01*
X36728571Y-124993333D01*
X36776190Y-125088571D01*
X36776190Y-125612380D01*
X37109523Y-124945714D02*
X37490476Y-124945714D01*
X37252380Y-124612380D02*
X37252380Y-125469523D01*
X37300000Y-125564761D01*
X37395238Y-125612380D01*
X37490476Y-125612380D01*
X37823809Y-125612380D02*
X37823809Y-124945714D01*
X37823809Y-124612380D02*
X37776190Y-124660000D01*
X37823809Y-124707619D01*
X37871428Y-124660000D01*
X37823809Y-124612380D01*
X37823809Y-124707619D01*
X38300000Y-124945714D02*
X38300000Y-125612380D01*
X38300000Y-125040952D02*
X38347619Y-124993333D01*
X38442857Y-124945714D01*
X38585714Y-124945714D01*
X38680952Y-124993333D01*
X38728571Y-125088571D01*
X38728571Y-125612380D01*
X39633333Y-124945714D02*
X39633333Y-125755238D01*
X39585714Y-125850476D01*
X39538095Y-125898095D01*
X39442857Y-125945714D01*
X39300000Y-125945714D01*
X39204761Y-125898095D01*
X39633333Y-125564761D02*
X39538095Y-125612380D01*
X39347619Y-125612380D01*
X39252380Y-125564761D01*
X39204761Y-125517142D01*
X39157142Y-125421904D01*
X39157142Y-125136190D01*
X39204761Y-125040952D01*
X39252380Y-124993333D01*
X39347619Y-124945714D01*
X39538095Y-124945714D01*
X39633333Y-124993333D01*
X40109523Y-125612380D02*
X40109523Y-124612380D01*
X40109523Y-125088571D02*
X40680952Y-125088571D01*
X40680952Y-125612380D02*
X40680952Y-124612380D01*
X41300000Y-125612380D02*
X41204761Y-125564761D01*
X41157142Y-125517142D01*
X41109523Y-125421904D01*
X41109523Y-125136190D01*
X41157142Y-125040952D01*
X41204761Y-124993333D01*
X41300000Y-124945714D01*
X41442857Y-124945714D01*
X41538095Y-124993333D01*
X41585714Y-125040952D01*
X41633333Y-125136190D01*
X41633333Y-125421904D01*
X41585714Y-125517142D01*
X41538095Y-125564761D01*
X41442857Y-125612380D01*
X41300000Y-125612380D01*
X42204761Y-125612380D02*
X42109523Y-125564761D01*
X42061904Y-125469523D01*
X42061904Y-124612380D01*
X42966666Y-125564761D02*
X42871428Y-125612380D01*
X42680952Y-125612380D01*
X42585714Y-125564761D01*
X42538095Y-125469523D01*
X42538095Y-125088571D01*
X42585714Y-124993333D01*
X42680952Y-124945714D01*
X42871428Y-124945714D01*
X42966666Y-124993333D01*
X43014285Y-125088571D01*
X43014285Y-125183809D01*
X42538095Y-125279047D01*
X43204761Y-125707619D02*
X43966666Y-125707619D01*
X44109523Y-124612380D02*
X44728571Y-124612380D01*
X44395238Y-124993333D01*
X44538095Y-124993333D01*
X44633333Y-125040952D01*
X44680952Y-125088571D01*
X44728571Y-125183809D01*
X44728571Y-125421904D01*
X44680952Y-125517142D01*
X44633333Y-125564761D01*
X44538095Y-125612380D01*
X44252380Y-125612380D01*
X44157142Y-125564761D01*
X44109523Y-125517142D01*
X45157142Y-125517142D02*
X45204761Y-125564761D01*
X45157142Y-125612380D01*
X45109523Y-125564761D01*
X45157142Y-125517142D01*
X45157142Y-125612380D01*
X45585714Y-124707619D02*
X45633333Y-124660000D01*
X45728571Y-124612380D01*
X45966666Y-124612380D01*
X46061904Y-124660000D01*
X46109523Y-124707619D01*
X46157142Y-124802857D01*
X46157142Y-124898095D01*
X46109523Y-125040952D01*
X45538095Y-125612380D01*
X46157142Y-125612380D01*
X46585714Y-125612380D02*
X46585714Y-124945714D01*
X46585714Y-125040952D02*
X46633333Y-124993333D01*
X46728571Y-124945714D01*
X46871428Y-124945714D01*
X46966666Y-124993333D01*
X47014285Y-125088571D01*
X47014285Y-125612380D01*
X47014285Y-125088571D02*
X47061904Y-124993333D01*
X47157142Y-124945714D01*
X47299999Y-124945714D01*
X47395238Y-124993333D01*
X47442857Y-125088571D01*
X47442857Y-125612380D01*
X47919047Y-125612380D02*
X47919047Y-124945714D01*
X47919047Y-125040952D02*
X47966666Y-124993333D01*
X48061904Y-124945714D01*
X48204761Y-124945714D01*
X48300000Y-124993333D01*
X48347619Y-125088571D01*
X48347619Y-125612380D01*
X48347619Y-125088571D02*
X48395238Y-124993333D01*
X48490476Y-124945714D01*
X48633333Y-124945714D01*
X48728571Y-124993333D01*
X48776190Y-125088571D01*
X48776190Y-125612380D01*
X49014285Y-125707619D02*
X49776190Y-125707619D01*
X50014285Y-125612380D02*
X50014285Y-124612380D01*
X50347619Y-125326666D01*
X50680952Y-124612380D01*
X50680952Y-125612380D01*
X51061904Y-124612380D02*
X51680952Y-124612380D01*
X51347619Y-124993333D01*
X51490476Y-124993333D01*
X51585714Y-125040952D01*
X51633333Y-125088571D01*
X51680952Y-125183809D01*
X51680952Y-125421904D01*
X51633333Y-125517142D01*
X51585714Y-125564761D01*
X51490476Y-125612380D01*
X51204761Y-125612380D01*
X51109523Y-125564761D01*
X51061904Y-125517142D01*
X51871428Y-125707619D02*
X52633333Y-125707619D01*
X52871428Y-125612380D02*
X52871428Y-124612380D01*
X53252380Y-124612380D01*
X53347619Y-124660000D01*
X53395238Y-124707619D01*
X53442857Y-124802857D01*
X53442857Y-124945714D01*
X53395238Y-125040952D01*
X53347619Y-125088571D01*
X53252380Y-125136190D01*
X52871428Y-125136190D01*
X54300000Y-125612380D02*
X54300000Y-125088571D01*
X54252380Y-124993333D01*
X54157142Y-124945714D01*
X53966666Y-124945714D01*
X53871428Y-124993333D01*
X54300000Y-125564761D02*
X54204761Y-125612380D01*
X53966666Y-125612380D01*
X53871428Y-125564761D01*
X53823809Y-125469523D01*
X53823809Y-125374285D01*
X53871428Y-125279047D01*
X53966666Y-125231428D01*
X54204761Y-125231428D01*
X54300000Y-125183809D01*
X55204761Y-125612380D02*
X55204761Y-124612380D01*
X55204761Y-125564761D02*
X55109523Y-125612380D01*
X54919047Y-125612380D01*
X54823809Y-125564761D01*
X54776190Y-125517142D01*
X54728571Y-125421904D01*
X54728571Y-125136190D01*
X54776190Y-125040952D01*
X54823809Y-124993333D01*
X54919047Y-124945714D01*
X55109523Y-124945714D01*
X55204761Y-124993333D01*
X42219047Y-120412380D02*
X42838095Y-120412380D01*
X42504761Y-120793333D01*
X42647619Y-120793333D01*
X42742857Y-120840952D01*
X42790476Y-120888571D01*
X42838095Y-120983809D01*
X42838095Y-121221904D01*
X42790476Y-121317142D01*
X42742857Y-121364761D01*
X42647619Y-121412380D01*
X42361904Y-121412380D01*
X42266666Y-121364761D01*
X42219047Y-121317142D01*
X43314285Y-121364761D02*
X43314285Y-121412380D01*
X43266666Y-121507619D01*
X43219047Y-121555238D01*
X44219047Y-120412380D02*
X43742857Y-120412380D01*
X43695238Y-120888571D01*
X43742857Y-120840952D01*
X43838095Y-120793333D01*
X44076190Y-120793333D01*
X44171428Y-120840952D01*
X44219047Y-120888571D01*
X44266666Y-120983809D01*
X44266666Y-121221904D01*
X44219047Y-121317142D01*
X44171428Y-121364761D01*
X44076190Y-121412380D01*
X43838095Y-121412380D01*
X43742857Y-121364761D01*
X43695238Y-121317142D01*
X44695238Y-121412380D02*
X44695238Y-120745714D01*
X44695238Y-120840952D02*
X44742857Y-120793333D01*
X44838095Y-120745714D01*
X44980952Y-120745714D01*
X45076190Y-120793333D01*
X45123809Y-120888571D01*
X45123809Y-121412380D01*
X45123809Y-120888571D02*
X45171428Y-120793333D01*
X45266666Y-120745714D01*
X45409523Y-120745714D01*
X45504761Y-120793333D01*
X45552380Y-120888571D01*
X45552380Y-121412380D01*
X46028571Y-121412380D02*
X46028571Y-120745714D01*
X46028571Y-120840952D02*
X46076190Y-120793333D01*
X46171428Y-120745714D01*
X46314285Y-120745714D01*
X46409523Y-120793333D01*
X46457142Y-120888571D01*
X46457142Y-121412380D01*
X46457142Y-120888571D02*
X46504761Y-120793333D01*
X46600000Y-120745714D01*
X46742857Y-120745714D01*
X46838095Y-120793333D01*
X46885714Y-120888571D01*
X46885714Y-121412380D01*
X33395238Y-49112380D02*
X33395238Y-48112380D01*
X33728571Y-48826666D01*
X34061904Y-48112380D01*
X34061904Y-49112380D01*
X34680952Y-49112380D02*
X34585714Y-49064761D01*
X34538095Y-49017142D01*
X34490476Y-48921904D01*
X34490476Y-48636190D01*
X34538095Y-48540952D01*
X34585714Y-48493333D01*
X34680952Y-48445714D01*
X34823809Y-48445714D01*
X34919047Y-48493333D01*
X34966666Y-48540952D01*
X35014285Y-48636190D01*
X35014285Y-48921904D01*
X34966666Y-49017142D01*
X34919047Y-49064761D01*
X34823809Y-49112380D01*
X34680952Y-49112380D01*
X35871428Y-48445714D02*
X35871428Y-49112380D01*
X35442857Y-48445714D02*
X35442857Y-48969523D01*
X35490476Y-49064761D01*
X35585714Y-49112380D01*
X35728571Y-49112380D01*
X35823809Y-49064761D01*
X35871428Y-49017142D01*
X36347619Y-48445714D02*
X36347619Y-49112380D01*
X36347619Y-48540952D02*
X36395238Y-48493333D01*
X36490476Y-48445714D01*
X36633333Y-48445714D01*
X36728571Y-48493333D01*
X36776190Y-48588571D01*
X36776190Y-49112380D01*
X37109523Y-48445714D02*
X37490476Y-48445714D01*
X37252380Y-48112380D02*
X37252380Y-48969523D01*
X37300000Y-49064761D01*
X37395238Y-49112380D01*
X37490476Y-49112380D01*
X37823809Y-49112380D02*
X37823809Y-48445714D01*
X37823809Y-48112380D02*
X37776190Y-48160000D01*
X37823809Y-48207619D01*
X37871428Y-48160000D01*
X37823809Y-48112380D01*
X37823809Y-48207619D01*
X38300000Y-48445714D02*
X38300000Y-49112380D01*
X38300000Y-48540952D02*
X38347619Y-48493333D01*
X38442857Y-48445714D01*
X38585714Y-48445714D01*
X38680952Y-48493333D01*
X38728571Y-48588571D01*
X38728571Y-49112380D01*
X39633333Y-48445714D02*
X39633333Y-49255238D01*
X39585714Y-49350476D01*
X39538095Y-49398095D01*
X39442857Y-49445714D01*
X39300000Y-49445714D01*
X39204761Y-49398095D01*
X39633333Y-49064761D02*
X39538095Y-49112380D01*
X39347619Y-49112380D01*
X39252380Y-49064761D01*
X39204761Y-49017142D01*
X39157142Y-48921904D01*
X39157142Y-48636190D01*
X39204761Y-48540952D01*
X39252380Y-48493333D01*
X39347619Y-48445714D01*
X39538095Y-48445714D01*
X39633333Y-48493333D01*
X40109523Y-49112380D02*
X40109523Y-48112380D01*
X40109523Y-48588571D02*
X40680952Y-48588571D01*
X40680952Y-49112380D02*
X40680952Y-48112380D01*
X41300000Y-49112380D02*
X41204761Y-49064761D01*
X41157142Y-49017142D01*
X41109523Y-48921904D01*
X41109523Y-48636190D01*
X41157142Y-48540952D01*
X41204761Y-48493333D01*
X41300000Y-48445714D01*
X41442857Y-48445714D01*
X41538095Y-48493333D01*
X41585714Y-48540952D01*
X41633333Y-48636190D01*
X41633333Y-48921904D01*
X41585714Y-49017142D01*
X41538095Y-49064761D01*
X41442857Y-49112380D01*
X41300000Y-49112380D01*
X42204761Y-49112380D02*
X42109523Y-49064761D01*
X42061904Y-48969523D01*
X42061904Y-48112380D01*
X42966666Y-49064761D02*
X42871428Y-49112380D01*
X42680952Y-49112380D01*
X42585714Y-49064761D01*
X42538095Y-48969523D01*
X42538095Y-48588571D01*
X42585714Y-48493333D01*
X42680952Y-48445714D01*
X42871428Y-48445714D01*
X42966666Y-48493333D01*
X43014285Y-48588571D01*
X43014285Y-48683809D01*
X42538095Y-48779047D01*
X43204761Y-49207619D02*
X43966666Y-49207619D01*
X44109523Y-48112380D02*
X44728571Y-48112380D01*
X44395238Y-48493333D01*
X44538095Y-48493333D01*
X44633333Y-48540952D01*
X44680952Y-48588571D01*
X44728571Y-48683809D01*
X44728571Y-48921904D01*
X44680952Y-49017142D01*
X44633333Y-49064761D01*
X44538095Y-49112380D01*
X44252380Y-49112380D01*
X44157142Y-49064761D01*
X44109523Y-49017142D01*
X45157142Y-49017142D02*
X45204761Y-49064761D01*
X45157142Y-49112380D01*
X45109523Y-49064761D01*
X45157142Y-49017142D01*
X45157142Y-49112380D01*
X45585714Y-48207619D02*
X45633333Y-48160000D01*
X45728571Y-48112380D01*
X45966666Y-48112380D01*
X46061904Y-48160000D01*
X46109523Y-48207619D01*
X46157142Y-48302857D01*
X46157142Y-48398095D01*
X46109523Y-48540952D01*
X45538095Y-49112380D01*
X46157142Y-49112380D01*
X46585714Y-49112380D02*
X46585714Y-48445714D01*
X46585714Y-48540952D02*
X46633333Y-48493333D01*
X46728571Y-48445714D01*
X46871428Y-48445714D01*
X46966666Y-48493333D01*
X47014285Y-48588571D01*
X47014285Y-49112380D01*
X47014285Y-48588571D02*
X47061904Y-48493333D01*
X47157142Y-48445714D01*
X47299999Y-48445714D01*
X47395238Y-48493333D01*
X47442857Y-48588571D01*
X47442857Y-49112380D01*
X47919047Y-49112380D02*
X47919047Y-48445714D01*
X47919047Y-48540952D02*
X47966666Y-48493333D01*
X48061904Y-48445714D01*
X48204761Y-48445714D01*
X48300000Y-48493333D01*
X48347619Y-48588571D01*
X48347619Y-49112380D01*
X48347619Y-48588571D02*
X48395238Y-48493333D01*
X48490476Y-48445714D01*
X48633333Y-48445714D01*
X48728571Y-48493333D01*
X48776190Y-48588571D01*
X48776190Y-49112380D01*
X49014285Y-49207619D02*
X49776190Y-49207619D01*
X50014285Y-49112380D02*
X50014285Y-48112380D01*
X50347619Y-48826666D01*
X50680952Y-48112380D01*
X50680952Y-49112380D01*
X51061904Y-48112380D02*
X51680952Y-48112380D01*
X51347619Y-48493333D01*
X51490476Y-48493333D01*
X51585714Y-48540952D01*
X51633333Y-48588571D01*
X51680952Y-48683809D01*
X51680952Y-48921904D01*
X51633333Y-49017142D01*
X51585714Y-49064761D01*
X51490476Y-49112380D01*
X51204761Y-49112380D01*
X51109523Y-49064761D01*
X51061904Y-49017142D01*
X51871428Y-49207619D02*
X52633333Y-49207619D01*
X52871428Y-49112380D02*
X52871428Y-48112380D01*
X53252380Y-48112380D01*
X53347619Y-48160000D01*
X53395238Y-48207619D01*
X53442857Y-48302857D01*
X53442857Y-48445714D01*
X53395238Y-48540952D01*
X53347619Y-48588571D01*
X53252380Y-48636190D01*
X52871428Y-48636190D01*
X54300000Y-49112380D02*
X54300000Y-48588571D01*
X54252380Y-48493333D01*
X54157142Y-48445714D01*
X53966666Y-48445714D01*
X53871428Y-48493333D01*
X54300000Y-49064761D02*
X54204761Y-49112380D01*
X53966666Y-49112380D01*
X53871428Y-49064761D01*
X53823809Y-48969523D01*
X53823809Y-48874285D01*
X53871428Y-48779047D01*
X53966666Y-48731428D01*
X54204761Y-48731428D01*
X54300000Y-48683809D01*
X55204761Y-49112380D02*
X55204761Y-48112380D01*
X55204761Y-49064761D02*
X55109523Y-49112380D01*
X54919047Y-49112380D01*
X54823809Y-49064761D01*
X54776190Y-49017142D01*
X54728571Y-48921904D01*
X54728571Y-48636190D01*
X54776190Y-48540952D01*
X54823809Y-48493333D01*
X54919047Y-48445714D01*
X55109523Y-48445714D01*
X55204761Y-48493333D01*
X42219047Y-43912380D02*
X42838095Y-43912380D01*
X42504761Y-44293333D01*
X42647619Y-44293333D01*
X42742857Y-44340952D01*
X42790476Y-44388571D01*
X42838095Y-44483809D01*
X42838095Y-44721904D01*
X42790476Y-44817142D01*
X42742857Y-44864761D01*
X42647619Y-44912380D01*
X42361904Y-44912380D01*
X42266666Y-44864761D01*
X42219047Y-44817142D01*
X43314285Y-44864761D02*
X43314285Y-44912380D01*
X43266666Y-45007619D01*
X43219047Y-45055238D01*
X44219047Y-43912380D02*
X43742857Y-43912380D01*
X43695238Y-44388571D01*
X43742857Y-44340952D01*
X43838095Y-44293333D01*
X44076190Y-44293333D01*
X44171428Y-44340952D01*
X44219047Y-44388571D01*
X44266666Y-44483809D01*
X44266666Y-44721904D01*
X44219047Y-44817142D01*
X44171428Y-44864761D01*
X44076190Y-44912380D01*
X43838095Y-44912380D01*
X43742857Y-44864761D01*
X43695238Y-44817142D01*
X44695238Y-44912380D02*
X44695238Y-44245714D01*
X44695238Y-44340952D02*
X44742857Y-44293333D01*
X44838095Y-44245714D01*
X44980952Y-44245714D01*
X45076190Y-44293333D01*
X45123809Y-44388571D01*
X45123809Y-44912380D01*
X45123809Y-44388571D02*
X45171428Y-44293333D01*
X45266666Y-44245714D01*
X45409523Y-44245714D01*
X45504761Y-44293333D01*
X45552380Y-44388571D01*
X45552380Y-44912380D01*
X46028571Y-44912380D02*
X46028571Y-44245714D01*
X46028571Y-44340952D02*
X46076190Y-44293333D01*
X46171428Y-44245714D01*
X46314285Y-44245714D01*
X46409523Y-44293333D01*
X46457142Y-44388571D01*
X46457142Y-44912380D01*
X46457142Y-44388571D02*
X46504761Y-44293333D01*
X46600000Y-44245714D01*
X46742857Y-44245714D01*
X46838095Y-44293333D01*
X46885714Y-44388571D01*
X46885714Y-44912380D01*
X146395238Y-125612380D02*
X146395238Y-124612380D01*
X146728571Y-125326666D01*
X147061904Y-124612380D01*
X147061904Y-125612380D01*
X147680952Y-125612380D02*
X147585714Y-125564761D01*
X147538095Y-125517142D01*
X147490476Y-125421904D01*
X147490476Y-125136190D01*
X147538095Y-125040952D01*
X147585714Y-124993333D01*
X147680952Y-124945714D01*
X147823809Y-124945714D01*
X147919047Y-124993333D01*
X147966666Y-125040952D01*
X148014285Y-125136190D01*
X148014285Y-125421904D01*
X147966666Y-125517142D01*
X147919047Y-125564761D01*
X147823809Y-125612380D01*
X147680952Y-125612380D01*
X148871428Y-124945714D02*
X148871428Y-125612380D01*
X148442857Y-124945714D02*
X148442857Y-125469523D01*
X148490476Y-125564761D01*
X148585714Y-125612380D01*
X148728571Y-125612380D01*
X148823809Y-125564761D01*
X148871428Y-125517142D01*
X149347619Y-124945714D02*
X149347619Y-125612380D01*
X149347619Y-125040952D02*
X149395238Y-124993333D01*
X149490476Y-124945714D01*
X149633333Y-124945714D01*
X149728571Y-124993333D01*
X149776190Y-125088571D01*
X149776190Y-125612380D01*
X150109523Y-124945714D02*
X150490476Y-124945714D01*
X150252380Y-124612380D02*
X150252380Y-125469523D01*
X150300000Y-125564761D01*
X150395238Y-125612380D01*
X150490476Y-125612380D01*
X150823809Y-125612380D02*
X150823809Y-124945714D01*
X150823809Y-124612380D02*
X150776190Y-124660000D01*
X150823809Y-124707619D01*
X150871428Y-124660000D01*
X150823809Y-124612380D01*
X150823809Y-124707619D01*
X151300000Y-124945714D02*
X151300000Y-125612380D01*
X151300000Y-125040952D02*
X151347619Y-124993333D01*
X151442857Y-124945714D01*
X151585714Y-124945714D01*
X151680952Y-124993333D01*
X151728571Y-125088571D01*
X151728571Y-125612380D01*
X152633333Y-124945714D02*
X152633333Y-125755238D01*
X152585714Y-125850476D01*
X152538095Y-125898095D01*
X152442857Y-125945714D01*
X152300000Y-125945714D01*
X152204761Y-125898095D01*
X152633333Y-125564761D02*
X152538095Y-125612380D01*
X152347619Y-125612380D01*
X152252380Y-125564761D01*
X152204761Y-125517142D01*
X152157142Y-125421904D01*
X152157142Y-125136190D01*
X152204761Y-125040952D01*
X152252380Y-124993333D01*
X152347619Y-124945714D01*
X152538095Y-124945714D01*
X152633333Y-124993333D01*
X153109523Y-125612380D02*
X153109523Y-124612380D01*
X153109523Y-125088571D02*
X153680952Y-125088571D01*
X153680952Y-125612380D02*
X153680952Y-124612380D01*
X154300000Y-125612380D02*
X154204761Y-125564761D01*
X154157142Y-125517142D01*
X154109523Y-125421904D01*
X154109523Y-125136190D01*
X154157142Y-125040952D01*
X154204761Y-124993333D01*
X154300000Y-124945714D01*
X154442857Y-124945714D01*
X154538095Y-124993333D01*
X154585714Y-125040952D01*
X154633333Y-125136190D01*
X154633333Y-125421904D01*
X154585714Y-125517142D01*
X154538095Y-125564761D01*
X154442857Y-125612380D01*
X154300000Y-125612380D01*
X155204761Y-125612380D02*
X155109523Y-125564761D01*
X155061904Y-125469523D01*
X155061904Y-124612380D01*
X155966666Y-125564761D02*
X155871428Y-125612380D01*
X155680952Y-125612380D01*
X155585714Y-125564761D01*
X155538095Y-125469523D01*
X155538095Y-125088571D01*
X155585714Y-124993333D01*
X155680952Y-124945714D01*
X155871428Y-124945714D01*
X155966666Y-124993333D01*
X156014285Y-125088571D01*
X156014285Y-125183809D01*
X155538095Y-125279047D01*
X156204761Y-125707619D02*
X156966666Y-125707619D01*
X157109523Y-124612380D02*
X157728571Y-124612380D01*
X157395238Y-124993333D01*
X157538095Y-124993333D01*
X157633333Y-125040952D01*
X157680952Y-125088571D01*
X157728571Y-125183809D01*
X157728571Y-125421904D01*
X157680952Y-125517142D01*
X157633333Y-125564761D01*
X157538095Y-125612380D01*
X157252380Y-125612380D01*
X157157142Y-125564761D01*
X157109523Y-125517142D01*
X158157142Y-125517142D02*
X158204761Y-125564761D01*
X158157142Y-125612380D01*
X158109523Y-125564761D01*
X158157142Y-125517142D01*
X158157142Y-125612380D01*
X158585714Y-124707619D02*
X158633333Y-124660000D01*
X158728571Y-124612380D01*
X158966666Y-124612380D01*
X159061904Y-124660000D01*
X159109523Y-124707619D01*
X159157142Y-124802857D01*
X159157142Y-124898095D01*
X159109523Y-125040952D01*
X158538095Y-125612380D01*
X159157142Y-125612380D01*
X159585714Y-125612380D02*
X159585714Y-124945714D01*
X159585714Y-125040952D02*
X159633333Y-124993333D01*
X159728571Y-124945714D01*
X159871428Y-124945714D01*
X159966666Y-124993333D01*
X160014285Y-125088571D01*
X160014285Y-125612380D01*
X160014285Y-125088571D02*
X160061904Y-124993333D01*
X160157142Y-124945714D01*
X160300000Y-124945714D01*
X160395238Y-124993333D01*
X160442857Y-125088571D01*
X160442857Y-125612380D01*
X160919047Y-125612380D02*
X160919047Y-124945714D01*
X160919047Y-125040952D02*
X160966666Y-124993333D01*
X161061904Y-124945714D01*
X161204761Y-124945714D01*
X161300000Y-124993333D01*
X161347619Y-125088571D01*
X161347619Y-125612380D01*
X161347619Y-125088571D02*
X161395238Y-124993333D01*
X161490476Y-124945714D01*
X161633333Y-124945714D01*
X161728571Y-124993333D01*
X161776190Y-125088571D01*
X161776190Y-125612380D01*
X162014285Y-125707619D02*
X162776190Y-125707619D01*
X163014285Y-125612380D02*
X163014285Y-124612380D01*
X163347619Y-125326666D01*
X163680952Y-124612380D01*
X163680952Y-125612380D01*
X164061904Y-124612380D02*
X164680952Y-124612380D01*
X164347619Y-124993333D01*
X164490476Y-124993333D01*
X164585714Y-125040952D01*
X164633333Y-125088571D01*
X164680952Y-125183809D01*
X164680952Y-125421904D01*
X164633333Y-125517142D01*
X164585714Y-125564761D01*
X164490476Y-125612380D01*
X164204761Y-125612380D01*
X164109523Y-125564761D01*
X164061904Y-125517142D01*
X164871428Y-125707619D02*
X165633333Y-125707619D01*
X165871428Y-125612380D02*
X165871428Y-124612380D01*
X166252380Y-124612380D01*
X166347619Y-124660000D01*
X166395238Y-124707619D01*
X166442857Y-124802857D01*
X166442857Y-124945714D01*
X166395238Y-125040952D01*
X166347619Y-125088571D01*
X166252380Y-125136190D01*
X165871428Y-125136190D01*
X167300000Y-125612380D02*
X167300000Y-125088571D01*
X167252380Y-124993333D01*
X167157142Y-124945714D01*
X166966666Y-124945714D01*
X166871428Y-124993333D01*
X167300000Y-125564761D02*
X167204761Y-125612380D01*
X166966666Y-125612380D01*
X166871428Y-125564761D01*
X166823809Y-125469523D01*
X166823809Y-125374285D01*
X166871428Y-125279047D01*
X166966666Y-125231428D01*
X167204761Y-125231428D01*
X167300000Y-125183809D01*
X168204761Y-125612380D02*
X168204761Y-124612380D01*
X168204761Y-125564761D02*
X168109523Y-125612380D01*
X167919047Y-125612380D01*
X167823809Y-125564761D01*
X167776190Y-125517142D01*
X167728571Y-125421904D01*
X167728571Y-125136190D01*
X167776190Y-125040952D01*
X167823809Y-124993333D01*
X167919047Y-124945714D01*
X168109523Y-124945714D01*
X168204761Y-124993333D01*
X155219047Y-120412380D02*
X155838095Y-120412380D01*
X155504761Y-120793333D01*
X155647619Y-120793333D01*
X155742857Y-120840952D01*
X155790476Y-120888571D01*
X155838095Y-120983809D01*
X155838095Y-121221904D01*
X155790476Y-121317142D01*
X155742857Y-121364761D01*
X155647619Y-121412380D01*
X155361904Y-121412380D01*
X155266666Y-121364761D01*
X155219047Y-121317142D01*
X156314285Y-121364761D02*
X156314285Y-121412380D01*
X156266666Y-121507619D01*
X156219047Y-121555238D01*
X157219047Y-120412380D02*
X156742857Y-120412380D01*
X156695238Y-120888571D01*
X156742857Y-120840952D01*
X156838095Y-120793333D01*
X157076190Y-120793333D01*
X157171428Y-120840952D01*
X157219047Y-120888571D01*
X157266666Y-120983809D01*
X157266666Y-121221904D01*
X157219047Y-121317142D01*
X157171428Y-121364761D01*
X157076190Y-121412380D01*
X156838095Y-121412380D01*
X156742857Y-121364761D01*
X156695238Y-121317142D01*
X157695238Y-121412380D02*
X157695238Y-120745714D01*
X157695238Y-120840952D02*
X157742857Y-120793333D01*
X157838095Y-120745714D01*
X157980952Y-120745714D01*
X158076190Y-120793333D01*
X158123809Y-120888571D01*
X158123809Y-121412380D01*
X158123809Y-120888571D02*
X158171428Y-120793333D01*
X158266666Y-120745714D01*
X158409523Y-120745714D01*
X158504761Y-120793333D01*
X158552380Y-120888571D01*
X158552380Y-121412380D01*
X159028571Y-121412380D02*
X159028571Y-120745714D01*
X159028571Y-120840952D02*
X159076190Y-120793333D01*
X159171428Y-120745714D01*
X159314285Y-120745714D01*
X159409523Y-120793333D01*
X159457142Y-120888571D01*
X159457142Y-121412380D01*
X159457142Y-120888571D02*
X159504761Y-120793333D01*
X159600000Y-120745714D01*
X159742857Y-120745714D01*
X159838095Y-120793333D01*
X159885714Y-120888571D01*
X159885714Y-121412380D01*
X146235238Y-49162380D02*
X146235238Y-48162380D01*
X146568571Y-48876666D01*
X146901904Y-48162380D01*
X146901904Y-49162380D01*
X147520952Y-49162380D02*
X147425714Y-49114761D01*
X147378095Y-49067142D01*
X147330476Y-48971904D01*
X147330476Y-48686190D01*
X147378095Y-48590952D01*
X147425714Y-48543333D01*
X147520952Y-48495714D01*
X147663809Y-48495714D01*
X147759047Y-48543333D01*
X147806666Y-48590952D01*
X147854285Y-48686190D01*
X147854285Y-48971904D01*
X147806666Y-49067142D01*
X147759047Y-49114761D01*
X147663809Y-49162380D01*
X147520952Y-49162380D01*
X148711428Y-48495714D02*
X148711428Y-49162380D01*
X148282857Y-48495714D02*
X148282857Y-49019523D01*
X148330476Y-49114761D01*
X148425714Y-49162380D01*
X148568571Y-49162380D01*
X148663809Y-49114761D01*
X148711428Y-49067142D01*
X149187619Y-48495714D02*
X149187619Y-49162380D01*
X149187619Y-48590952D02*
X149235238Y-48543333D01*
X149330476Y-48495714D01*
X149473333Y-48495714D01*
X149568571Y-48543333D01*
X149616190Y-48638571D01*
X149616190Y-49162380D01*
X149949523Y-48495714D02*
X150330476Y-48495714D01*
X150092380Y-48162380D02*
X150092380Y-49019523D01*
X150140000Y-49114761D01*
X150235238Y-49162380D01*
X150330476Y-49162380D01*
X150663809Y-49162380D02*
X150663809Y-48495714D01*
X150663809Y-48162380D02*
X150616190Y-48210000D01*
X150663809Y-48257619D01*
X150711428Y-48210000D01*
X150663809Y-48162380D01*
X150663809Y-48257619D01*
X151140000Y-48495714D02*
X151140000Y-49162380D01*
X151140000Y-48590952D02*
X151187619Y-48543333D01*
X151282857Y-48495714D01*
X151425714Y-48495714D01*
X151520952Y-48543333D01*
X151568571Y-48638571D01*
X151568571Y-49162380D01*
X152473333Y-48495714D02*
X152473333Y-49305238D01*
X152425714Y-49400476D01*
X152378095Y-49448095D01*
X152282857Y-49495714D01*
X152140000Y-49495714D01*
X152044761Y-49448095D01*
X152473333Y-49114761D02*
X152378095Y-49162380D01*
X152187619Y-49162380D01*
X152092380Y-49114761D01*
X152044761Y-49067142D01*
X151997142Y-48971904D01*
X151997142Y-48686190D01*
X152044761Y-48590952D01*
X152092380Y-48543333D01*
X152187619Y-48495714D01*
X152378095Y-48495714D01*
X152473333Y-48543333D01*
X152949523Y-49162380D02*
X152949523Y-48162380D01*
X152949523Y-48638571D02*
X153520952Y-48638571D01*
X153520952Y-49162380D02*
X153520952Y-48162380D01*
X154140000Y-49162380D02*
X154044761Y-49114761D01*
X153997142Y-49067142D01*
X153949523Y-48971904D01*
X153949523Y-48686190D01*
X153997142Y-48590952D01*
X154044761Y-48543333D01*
X154140000Y-48495714D01*
X154282857Y-48495714D01*
X154378095Y-48543333D01*
X154425714Y-48590952D01*
X154473333Y-48686190D01*
X154473333Y-48971904D01*
X154425714Y-49067142D01*
X154378095Y-49114761D01*
X154282857Y-49162380D01*
X154140000Y-49162380D01*
X155044761Y-49162380D02*
X154949523Y-49114761D01*
X154901904Y-49019523D01*
X154901904Y-48162380D01*
X155806666Y-49114761D02*
X155711428Y-49162380D01*
X155520952Y-49162380D01*
X155425714Y-49114761D01*
X155378095Y-49019523D01*
X155378095Y-48638571D01*
X155425714Y-48543333D01*
X155520952Y-48495714D01*
X155711428Y-48495714D01*
X155806666Y-48543333D01*
X155854285Y-48638571D01*
X155854285Y-48733809D01*
X155378095Y-48829047D01*
X156044761Y-49257619D02*
X156806666Y-49257619D01*
X156949523Y-48162380D02*
X157568571Y-48162380D01*
X157235238Y-48543333D01*
X157378095Y-48543333D01*
X157473333Y-48590952D01*
X157520952Y-48638571D01*
X157568571Y-48733809D01*
X157568571Y-48971904D01*
X157520952Y-49067142D01*
X157473333Y-49114761D01*
X157378095Y-49162380D01*
X157092380Y-49162380D01*
X156997142Y-49114761D01*
X156949523Y-49067142D01*
X157997142Y-49067142D02*
X158044761Y-49114761D01*
X157997142Y-49162380D01*
X157949523Y-49114761D01*
X157997142Y-49067142D01*
X157997142Y-49162380D01*
X158425714Y-48257619D02*
X158473333Y-48210000D01*
X158568571Y-48162380D01*
X158806666Y-48162380D01*
X158901904Y-48210000D01*
X158949523Y-48257619D01*
X158997142Y-48352857D01*
X158997142Y-48448095D01*
X158949523Y-48590952D01*
X158378095Y-49162380D01*
X158997142Y-49162380D01*
X159425714Y-49162380D02*
X159425714Y-48495714D01*
X159425714Y-48590952D02*
X159473333Y-48543333D01*
X159568571Y-48495714D01*
X159711428Y-48495714D01*
X159806666Y-48543333D01*
X159854285Y-48638571D01*
X159854285Y-49162380D01*
X159854285Y-48638571D02*
X159901904Y-48543333D01*
X159997142Y-48495714D01*
X160140000Y-48495714D01*
X160235238Y-48543333D01*
X160282857Y-48638571D01*
X160282857Y-49162380D01*
X160759047Y-49162380D02*
X160759047Y-48495714D01*
X160759047Y-48590952D02*
X160806666Y-48543333D01*
X160901904Y-48495714D01*
X161044761Y-48495714D01*
X161140000Y-48543333D01*
X161187619Y-48638571D01*
X161187619Y-49162380D01*
X161187619Y-48638571D02*
X161235238Y-48543333D01*
X161330476Y-48495714D01*
X161473333Y-48495714D01*
X161568571Y-48543333D01*
X161616190Y-48638571D01*
X161616190Y-49162380D01*
X161854285Y-49257619D02*
X162616190Y-49257619D01*
X162854285Y-49162380D02*
X162854285Y-48162380D01*
X163187619Y-48876666D01*
X163520952Y-48162380D01*
X163520952Y-49162380D01*
X163901904Y-48162380D02*
X164520952Y-48162380D01*
X164187619Y-48543333D01*
X164330476Y-48543333D01*
X164425714Y-48590952D01*
X164473333Y-48638571D01*
X164520952Y-48733809D01*
X164520952Y-48971904D01*
X164473333Y-49067142D01*
X164425714Y-49114761D01*
X164330476Y-49162380D01*
X164044761Y-49162380D01*
X163949523Y-49114761D01*
X163901904Y-49067142D01*
X164711428Y-49257619D02*
X165473333Y-49257619D01*
X165711428Y-49162380D02*
X165711428Y-48162380D01*
X166092380Y-48162380D01*
X166187619Y-48210000D01*
X166235238Y-48257619D01*
X166282857Y-48352857D01*
X166282857Y-48495714D01*
X166235238Y-48590952D01*
X166187619Y-48638571D01*
X166092380Y-48686190D01*
X165711428Y-48686190D01*
X167140000Y-49162380D02*
X167140000Y-48638571D01*
X167092380Y-48543333D01*
X166997142Y-48495714D01*
X166806666Y-48495714D01*
X166711428Y-48543333D01*
X167140000Y-49114761D02*
X167044761Y-49162380D01*
X166806666Y-49162380D01*
X166711428Y-49114761D01*
X166663809Y-49019523D01*
X166663809Y-48924285D01*
X166711428Y-48829047D01*
X166806666Y-48781428D01*
X167044761Y-48781428D01*
X167140000Y-48733809D01*
X168044761Y-49162380D02*
X168044761Y-48162380D01*
X168044761Y-49114761D02*
X167949523Y-49162380D01*
X167759047Y-49162380D01*
X167663809Y-49114761D01*
X167616190Y-49067142D01*
X167568571Y-48971904D01*
X167568571Y-48686190D01*
X167616190Y-48590952D01*
X167663809Y-48543333D01*
X167759047Y-48495714D01*
X167949523Y-48495714D01*
X168044761Y-48543333D01*
X155059047Y-43962380D02*
X155678095Y-43962380D01*
X155344761Y-44343333D01*
X155487619Y-44343333D01*
X155582857Y-44390952D01*
X155630476Y-44438571D01*
X155678095Y-44533809D01*
X155678095Y-44771904D01*
X155630476Y-44867142D01*
X155582857Y-44914761D01*
X155487619Y-44962380D01*
X155201904Y-44962380D01*
X155106666Y-44914761D01*
X155059047Y-44867142D01*
X156154285Y-44914761D02*
X156154285Y-44962380D01*
X156106666Y-45057619D01*
X156059047Y-45105238D01*
X157059047Y-43962380D02*
X156582857Y-43962380D01*
X156535238Y-44438571D01*
X156582857Y-44390952D01*
X156678095Y-44343333D01*
X156916190Y-44343333D01*
X157011428Y-44390952D01*
X157059047Y-44438571D01*
X157106666Y-44533809D01*
X157106666Y-44771904D01*
X157059047Y-44867142D01*
X157011428Y-44914761D01*
X156916190Y-44962380D01*
X156678095Y-44962380D01*
X156582857Y-44914761D01*
X156535238Y-44867142D01*
X157535238Y-44962380D02*
X157535238Y-44295714D01*
X157535238Y-44390952D02*
X157582857Y-44343333D01*
X157678095Y-44295714D01*
X157820952Y-44295714D01*
X157916190Y-44343333D01*
X157963809Y-44438571D01*
X157963809Y-44962380D01*
X157963809Y-44438571D02*
X158011428Y-44343333D01*
X158106666Y-44295714D01*
X158249523Y-44295714D01*
X158344761Y-44343333D01*
X158392380Y-44438571D01*
X158392380Y-44962380D01*
X158868571Y-44962380D02*
X158868571Y-44295714D01*
X158868571Y-44390952D02*
X158916190Y-44343333D01*
X159011428Y-44295714D01*
X159154285Y-44295714D01*
X159249523Y-44343333D01*
X159297142Y-44438571D01*
X159297142Y-44962380D01*
X159297142Y-44438571D02*
X159344761Y-44343333D01*
X159440000Y-44295714D01*
X159582857Y-44295714D01*
X159678095Y-44343333D01*
X159725714Y-44438571D01*
X159725714Y-44962380D01*
%TO.C,U1*%
X77421428Y-121562380D02*
X76945238Y-121562380D01*
X76945238Y-120562380D01*
X77754761Y-121562380D02*
X77754761Y-120562380D01*
X78088095Y-121276666D01*
X78421428Y-120562380D01*
X78421428Y-121562380D01*
X78802380Y-120562380D02*
X79469047Y-120562380D01*
X79040476Y-121562380D01*
X79992857Y-120990952D02*
X79897619Y-120943333D01*
X79850000Y-120895714D01*
X79802380Y-120800476D01*
X79802380Y-120752857D01*
X79850000Y-120657619D01*
X79897619Y-120610000D01*
X79992857Y-120562380D01*
X80183333Y-120562380D01*
X80278571Y-120610000D01*
X80326190Y-120657619D01*
X80373809Y-120752857D01*
X80373809Y-120800476D01*
X80326190Y-120895714D01*
X80278571Y-120943333D01*
X80183333Y-120990952D01*
X79992857Y-120990952D01*
X79897619Y-121038571D01*
X79850000Y-121086190D01*
X79802380Y-121181428D01*
X79802380Y-121371904D01*
X79850000Y-121467142D01*
X79897619Y-121514761D01*
X79992857Y-121562380D01*
X80183333Y-121562380D01*
X80278571Y-121514761D01*
X80326190Y-121467142D01*
X80373809Y-121371904D01*
X80373809Y-121181428D01*
X80326190Y-121086190D01*
X80278571Y-121038571D01*
X80183333Y-120990952D01*
X80992857Y-120562380D02*
X81088095Y-120562380D01*
X81183333Y-120610000D01*
X81230952Y-120657619D01*
X81278571Y-120752857D01*
X81326190Y-120943333D01*
X81326190Y-121181428D01*
X81278571Y-121371904D01*
X81230952Y-121467142D01*
X81183333Y-121514761D01*
X81088095Y-121562380D01*
X80992857Y-121562380D01*
X80897619Y-121514761D01*
X80850000Y-121467142D01*
X80802380Y-121371904D01*
X80754761Y-121181428D01*
X80754761Y-120943333D01*
X80802380Y-120752857D01*
X80850000Y-120657619D01*
X80897619Y-120610000D01*
X80992857Y-120562380D01*
X81802380Y-121562380D02*
X81992857Y-121562380D01*
X82088095Y-121514761D01*
X82135714Y-121467142D01*
X82230952Y-121324285D01*
X82278571Y-121133809D01*
X82278571Y-120752857D01*
X82230952Y-120657619D01*
X82183333Y-120610000D01*
X82088095Y-120562380D01*
X81897619Y-120562380D01*
X81802380Y-120610000D01*
X81754761Y-120657619D01*
X81707142Y-120752857D01*
X81707142Y-120990952D01*
X81754761Y-121086190D01*
X81802380Y-121133809D01*
X81897619Y-121181428D01*
X82088095Y-121181428D01*
X82183333Y-121133809D01*
X82230952Y-121086190D01*
X82278571Y-120990952D01*
X83040476Y-121038571D02*
X82707142Y-121038571D01*
X82707142Y-121562380D02*
X82707142Y-120562380D01*
X83183333Y-120562380D01*
X83564285Y-121562380D02*
X83564285Y-120562380D01*
X84135714Y-121562380D02*
X83707142Y-120990952D01*
X84135714Y-120562380D02*
X83564285Y-121133809D01*
X84516666Y-120657619D02*
X84564285Y-120610000D01*
X84659523Y-120562380D01*
X84897619Y-120562380D01*
X84992857Y-120610000D01*
X85040476Y-120657619D01*
X85088095Y-120752857D01*
X85088095Y-120848095D01*
X85040476Y-120990952D01*
X84469047Y-121562380D01*
X85088095Y-121562380D01*
X86040476Y-121562380D02*
X85469047Y-121562380D01*
X85754761Y-121562380D02*
X85754761Y-120562380D01*
X85659523Y-120705238D01*
X85564285Y-120800476D01*
X85469047Y-120848095D01*
X86659523Y-120562380D02*
X86754761Y-120562380D01*
X86850000Y-120610000D01*
X86897619Y-120657619D01*
X86945238Y-120752857D01*
X86992857Y-120943333D01*
X86992857Y-121181428D01*
X86945238Y-121371904D01*
X86897619Y-121467142D01*
X86850000Y-121514761D01*
X86754761Y-121562380D01*
X86659523Y-121562380D01*
X86564285Y-121514761D01*
X86516666Y-121467142D01*
X86469047Y-121371904D01*
X86421428Y-121181428D01*
X86421428Y-120943333D01*
X86469047Y-120752857D01*
X86516666Y-120657619D01*
X86564285Y-120610000D01*
X86659523Y-120562380D01*
X87373809Y-121514761D02*
X87516666Y-121562380D01*
X87754761Y-121562380D01*
X87849999Y-121514761D01*
X87897619Y-121467142D01*
X87945238Y-121371904D01*
X87945238Y-121276666D01*
X87897619Y-121181428D01*
X87849999Y-121133809D01*
X87754761Y-121086190D01*
X87564285Y-121038571D01*
X87469047Y-120990952D01*
X87421428Y-120943333D01*
X87373809Y-120848095D01*
X87373809Y-120752857D01*
X87421428Y-120657619D01*
X87469047Y-120610000D01*
X87564285Y-120562380D01*
X87802380Y-120562380D01*
X87945238Y-120610000D01*
X88326190Y-121276666D02*
X88802380Y-121276666D01*
X88230952Y-121562380D02*
X88564285Y-120562380D01*
X88897619Y-121562380D01*
X89802380Y-121467142D02*
X89754761Y-121514761D01*
X89611904Y-121562380D01*
X89516666Y-121562380D01*
X89373809Y-121514761D01*
X89278571Y-121419523D01*
X89230952Y-121324285D01*
X89183333Y-121133809D01*
X89183333Y-120990952D01*
X89230952Y-120800476D01*
X89278571Y-120705238D01*
X89373809Y-120610000D01*
X89516666Y-120562380D01*
X89611904Y-120562380D01*
X89754761Y-120610000D01*
X89802380Y-120657619D01*
X90564285Y-121038571D02*
X90707142Y-121086190D01*
X90754761Y-121133809D01*
X90802380Y-121229047D01*
X90802380Y-121371904D01*
X90754761Y-121467142D01*
X90707142Y-121514761D01*
X90611904Y-121562380D01*
X90230952Y-121562380D01*
X90230952Y-120562380D01*
X90564285Y-120562380D01*
X90659523Y-120610000D01*
X90707142Y-120657619D01*
X90754761Y-120752857D01*
X90754761Y-120848095D01*
X90707142Y-120943333D01*
X90659523Y-120990952D01*
X90564285Y-121038571D01*
X90230952Y-121038571D01*
X85038095Y-96662380D02*
X85038095Y-97471904D01*
X85085714Y-97567142D01*
X85133333Y-97614761D01*
X85228571Y-97662380D01*
X85419047Y-97662380D01*
X85514285Y-97614761D01*
X85561904Y-97567142D01*
X85609523Y-97471904D01*
X85609523Y-96662380D01*
X86609523Y-97662380D02*
X86038095Y-97662380D01*
X86323809Y-97662380D02*
X86323809Y-96662380D01*
X86228571Y-96805238D01*
X86133333Y-96900476D01*
X86038095Y-96948095D01*
%TO.C,C2*%
X83276190Y-68322380D02*
X83895238Y-68322380D01*
X83561904Y-68703333D01*
X83704761Y-68703333D01*
X83800000Y-68750952D01*
X83847619Y-68798571D01*
X83895238Y-68893809D01*
X83895238Y-69131904D01*
X83847619Y-69227142D01*
X83800000Y-69274761D01*
X83704761Y-69322380D01*
X83419047Y-69322380D01*
X83323809Y-69274761D01*
X83276190Y-69227142D01*
X84228571Y-68322380D02*
X84847619Y-68322380D01*
X84514285Y-68703333D01*
X84657142Y-68703333D01*
X84752380Y-68750952D01*
X84800000Y-68798571D01*
X84847619Y-68893809D01*
X84847619Y-69131904D01*
X84800000Y-69227142D01*
X84752380Y-69274761D01*
X84657142Y-69322380D01*
X84371428Y-69322380D01*
X84276190Y-69274761D01*
X84228571Y-69227142D01*
X85466666Y-68322380D02*
X85561904Y-68322380D01*
X85657142Y-68370000D01*
X85704761Y-68417619D01*
X85752380Y-68512857D01*
X85800000Y-68703333D01*
X85800000Y-68941428D01*
X85752380Y-69131904D01*
X85704761Y-69227142D01*
X85657142Y-69274761D01*
X85561904Y-69322380D01*
X85466666Y-69322380D01*
X85371428Y-69274761D01*
X85323809Y-69227142D01*
X85276190Y-69131904D01*
X85228571Y-68941428D01*
X85228571Y-68703333D01*
X85276190Y-68512857D01*
X85323809Y-68417619D01*
X85371428Y-68370000D01*
X85466666Y-68322380D01*
X86228571Y-68655714D02*
X86228571Y-69322380D01*
X86228571Y-68750952D02*
X86276190Y-68703333D01*
X86371428Y-68655714D01*
X86514285Y-68655714D01*
X86609523Y-68703333D01*
X86657142Y-68798571D01*
X86657142Y-69322380D01*
X86990476Y-68655714D02*
X87371428Y-68655714D01*
X87133333Y-69322380D02*
X87133333Y-68465238D01*
X87180952Y-68370000D01*
X87276190Y-68322380D01*
X87371428Y-68322380D01*
X85133333Y-63857142D02*
X85085714Y-63904761D01*
X84942857Y-63952380D01*
X84847619Y-63952380D01*
X84704761Y-63904761D01*
X84609523Y-63809523D01*
X84561904Y-63714285D01*
X84514285Y-63523809D01*
X84514285Y-63380952D01*
X84561904Y-63190476D01*
X84609523Y-63095238D01*
X84704761Y-63000000D01*
X84847619Y-62952380D01*
X84942857Y-62952380D01*
X85085714Y-63000000D01*
X85133333Y-63047619D01*
X85514285Y-63047619D02*
X85561904Y-63000000D01*
X85657142Y-62952380D01*
X85895238Y-62952380D01*
X85990476Y-63000000D01*
X86038095Y-63047619D01*
X86085714Y-63142857D01*
X86085714Y-63238095D01*
X86038095Y-63380952D01*
X85466666Y-63952380D01*
X86085714Y-63952380D01*
%TO.C,F1*%
X42678571Y-96917857D02*
X42678571Y-97251190D01*
X43202380Y-97251190D02*
X42202380Y-97251190D01*
X42202380Y-96775000D01*
X42535714Y-95965476D02*
X43202380Y-95965476D01*
X42535714Y-96394047D02*
X43059523Y-96394047D01*
X43154761Y-96346428D01*
X43202380Y-96251190D01*
X43202380Y-96108333D01*
X43154761Y-96013095D01*
X43107142Y-95965476D01*
X43154761Y-95536904D02*
X43202380Y-95441666D01*
X43202380Y-95251190D01*
X43154761Y-95155952D01*
X43059523Y-95108333D01*
X43011904Y-95108333D01*
X42916666Y-95155952D01*
X42869047Y-95251190D01*
X42869047Y-95394047D01*
X42821428Y-95489285D01*
X42726190Y-95536904D01*
X42678571Y-95536904D01*
X42583333Y-95489285D01*
X42535714Y-95394047D01*
X42535714Y-95251190D01*
X42583333Y-95155952D01*
X43154761Y-94298809D02*
X43202380Y-94394047D01*
X43202380Y-94584523D01*
X43154761Y-94679761D01*
X43059523Y-94727380D01*
X42678571Y-94727380D01*
X42583333Y-94679761D01*
X42535714Y-94584523D01*
X42535714Y-94394047D01*
X42583333Y-94298809D01*
X42678571Y-94251190D01*
X42773809Y-94251190D01*
X42869047Y-94727380D01*
X46228571Y-96083333D02*
X46228571Y-96416666D01*
X46752380Y-96416666D02*
X45752380Y-96416666D01*
X45752380Y-95940476D01*
X46752380Y-95035714D02*
X46752380Y-95607142D01*
X46752380Y-95321428D02*
X45752380Y-95321428D01*
X45895238Y-95416666D01*
X45990476Y-95511904D01*
X46038095Y-95607142D01*
%TO.C,C1*%
X98697619Y-59497619D02*
X98745238Y-59450000D01*
X98840476Y-59402380D01*
X99078571Y-59402380D01*
X99173809Y-59450000D01*
X99221428Y-59497619D01*
X99269047Y-59592857D01*
X99269047Y-59688095D01*
X99221428Y-59830952D01*
X98650000Y-60402380D01*
X99269047Y-60402380D01*
X99650000Y-59497619D02*
X99697619Y-59450000D01*
X99792857Y-59402380D01*
X100030952Y-59402380D01*
X100126190Y-59450000D01*
X100173809Y-59497619D01*
X100221428Y-59592857D01*
X100221428Y-59688095D01*
X100173809Y-59830952D01*
X99602380Y-60402380D01*
X100221428Y-60402380D01*
X100840476Y-59402380D02*
X100935714Y-59402380D01*
X101030952Y-59450000D01*
X101078571Y-59497619D01*
X101126190Y-59592857D01*
X101173809Y-59783333D01*
X101173809Y-60021428D01*
X101126190Y-60211904D01*
X101078571Y-60307142D01*
X101030952Y-60354761D01*
X100935714Y-60402380D01*
X100840476Y-60402380D01*
X100745238Y-60354761D01*
X100697619Y-60307142D01*
X100650000Y-60211904D01*
X100602380Y-60021428D01*
X100602380Y-59783333D01*
X100650000Y-59592857D01*
X100697619Y-59497619D01*
X100745238Y-59450000D01*
X100840476Y-59402380D01*
X101792857Y-59402380D02*
X101888095Y-59402380D01*
X101983333Y-59450000D01*
X102030952Y-59497619D01*
X102078571Y-59592857D01*
X102126190Y-59783333D01*
X102126190Y-60021428D01*
X102078571Y-60211904D01*
X102030952Y-60307142D01*
X101983333Y-60354761D01*
X101888095Y-60402380D01*
X101792857Y-60402380D01*
X101697619Y-60354761D01*
X101650000Y-60307142D01*
X101602380Y-60211904D01*
X101554761Y-60021428D01*
X101554761Y-59783333D01*
X101602380Y-59592857D01*
X101650000Y-59497619D01*
X101697619Y-59450000D01*
X101792857Y-59402380D01*
X102983333Y-59735714D02*
X102983333Y-60402380D01*
X102554761Y-59735714D02*
X102554761Y-60259523D01*
X102602380Y-60354761D01*
X102697619Y-60402380D01*
X102840476Y-60402380D01*
X102935714Y-60354761D01*
X102983333Y-60307142D01*
X103316666Y-59735714D02*
X103697619Y-59735714D01*
X103459523Y-60402380D02*
X103459523Y-59545238D01*
X103507142Y-59450000D01*
X103602380Y-59402380D01*
X103697619Y-59402380D01*
X100983333Y-50557142D02*
X100935714Y-50604761D01*
X100792857Y-50652380D01*
X100697619Y-50652380D01*
X100554761Y-50604761D01*
X100459523Y-50509523D01*
X100411904Y-50414285D01*
X100364285Y-50223809D01*
X100364285Y-50080952D01*
X100411904Y-49890476D01*
X100459523Y-49795238D01*
X100554761Y-49700000D01*
X100697619Y-49652380D01*
X100792857Y-49652380D01*
X100935714Y-49700000D01*
X100983333Y-49747619D01*
X101935714Y-50652380D02*
X101364285Y-50652380D01*
X101650000Y-50652380D02*
X101650000Y-49652380D01*
X101554761Y-49795238D01*
X101459523Y-49890476D01*
X101364285Y-49938095D01*
%TO.C,C3*%
X89845238Y-120052380D02*
X89273809Y-120052380D01*
X89559523Y-120052380D02*
X89559523Y-119052380D01*
X89464285Y-119195238D01*
X89369047Y-119290476D01*
X89273809Y-119338095D01*
X90464285Y-119052380D02*
X90559523Y-119052380D01*
X90654761Y-119100000D01*
X90702380Y-119147619D01*
X90750000Y-119242857D01*
X90797619Y-119433333D01*
X90797619Y-119671428D01*
X90750000Y-119861904D01*
X90702380Y-119957142D01*
X90654761Y-120004761D01*
X90559523Y-120052380D01*
X90464285Y-120052380D01*
X90369047Y-120004761D01*
X90321428Y-119957142D01*
X90273809Y-119861904D01*
X90226190Y-119671428D01*
X90226190Y-119433333D01*
X90273809Y-119242857D01*
X90321428Y-119147619D01*
X90369047Y-119100000D01*
X90464285Y-119052380D01*
X91416666Y-119052380D02*
X91511904Y-119052380D01*
X91607142Y-119100000D01*
X91654761Y-119147619D01*
X91702380Y-119242857D01*
X91750000Y-119433333D01*
X91750000Y-119671428D01*
X91702380Y-119861904D01*
X91654761Y-119957142D01*
X91607142Y-120004761D01*
X91511904Y-120052380D01*
X91416666Y-120052380D01*
X91321428Y-120004761D01*
X91273809Y-119957142D01*
X91226190Y-119861904D01*
X91178571Y-119671428D01*
X91178571Y-119433333D01*
X91226190Y-119242857D01*
X91273809Y-119147619D01*
X91321428Y-119100000D01*
X91416666Y-119052380D01*
X92178571Y-119385714D02*
X92178571Y-120052380D01*
X92178571Y-119480952D02*
X92226190Y-119433333D01*
X92321428Y-119385714D01*
X92464285Y-119385714D01*
X92559523Y-119433333D01*
X92607142Y-119528571D01*
X92607142Y-120052380D01*
X92940476Y-119385714D02*
X93321428Y-119385714D01*
X93083333Y-120052380D02*
X93083333Y-119195238D01*
X93130952Y-119100000D01*
X93226190Y-119052380D01*
X93321428Y-119052380D01*
X91083333Y-122457142D02*
X91035714Y-122504761D01*
X90892857Y-122552380D01*
X90797619Y-122552380D01*
X90654761Y-122504761D01*
X90559523Y-122409523D01*
X90511904Y-122314285D01*
X90464285Y-122123809D01*
X90464285Y-121980952D01*
X90511904Y-121790476D01*
X90559523Y-121695238D01*
X90654761Y-121600000D01*
X90797619Y-121552380D01*
X90892857Y-121552380D01*
X91035714Y-121600000D01*
X91083333Y-121647619D01*
X91416666Y-121552380D02*
X92035714Y-121552380D01*
X91702380Y-121933333D01*
X91845238Y-121933333D01*
X91940476Y-121980952D01*
X91988095Y-122028571D01*
X92035714Y-122123809D01*
X92035714Y-122361904D01*
X91988095Y-122457142D01*
X91940476Y-122504761D01*
X91845238Y-122552380D01*
X91559523Y-122552380D01*
X91464285Y-122504761D01*
X91416666Y-122457142D01*
%TO.C,D1*%
X76707142Y-53103571D02*
X76850000Y-53151190D01*
X76897619Y-53198809D01*
X76945238Y-53294047D01*
X76945238Y-53436904D01*
X76897619Y-53532142D01*
X76850000Y-53579761D01*
X76754761Y-53627380D01*
X76373809Y-53627380D01*
X76373809Y-52627380D01*
X76707142Y-52627380D01*
X76802380Y-52675000D01*
X76850000Y-52722619D01*
X76897619Y-52817857D01*
X76897619Y-52913095D01*
X76850000Y-53008333D01*
X76802380Y-53055952D01*
X76707142Y-53103571D01*
X76373809Y-53103571D01*
X77802380Y-52960714D02*
X77802380Y-53627380D01*
X77564285Y-52579761D02*
X77326190Y-53294047D01*
X77945238Y-53294047D01*
X78516666Y-52627380D02*
X78611904Y-52627380D01*
X78707142Y-52675000D01*
X78754761Y-52722619D01*
X78802380Y-52817857D01*
X78850000Y-53008333D01*
X78850000Y-53246428D01*
X78802380Y-53436904D01*
X78754761Y-53532142D01*
X78707142Y-53579761D01*
X78611904Y-53627380D01*
X78516666Y-53627380D01*
X78421428Y-53579761D01*
X78373809Y-53532142D01*
X78326190Y-53436904D01*
X78278571Y-53246428D01*
X78278571Y-53008333D01*
X78326190Y-52817857D01*
X78373809Y-52722619D01*
X78421428Y-52675000D01*
X78516666Y-52627380D01*
X79850000Y-53532142D02*
X79802380Y-53579761D01*
X79659523Y-53627380D01*
X79564285Y-53627380D01*
X79421428Y-53579761D01*
X79326190Y-53484523D01*
X79278571Y-53389285D01*
X79230952Y-53198809D01*
X79230952Y-53055952D01*
X79278571Y-52865476D01*
X79326190Y-52770238D01*
X79421428Y-52675000D01*
X79564285Y-52627380D01*
X79659523Y-52627380D01*
X79802380Y-52675000D01*
X79850000Y-52722619D01*
X80802380Y-53627380D02*
X80230952Y-53627380D01*
X80516666Y-53627380D02*
X80516666Y-52627380D01*
X80421428Y-52770238D01*
X80326190Y-52865476D01*
X80230952Y-52913095D01*
X81707142Y-52627380D02*
X81230952Y-52627380D01*
X81183333Y-53103571D01*
X81230952Y-53055952D01*
X81326190Y-53008333D01*
X81564285Y-53008333D01*
X81659523Y-53055952D01*
X81707142Y-53103571D01*
X81754761Y-53198809D01*
X81754761Y-53436904D01*
X81707142Y-53532142D01*
X81659523Y-53579761D01*
X81564285Y-53627380D01*
X81326190Y-53627380D01*
X81230952Y-53579761D01*
X81183333Y-53532142D01*
X82373809Y-52627380D02*
X82469047Y-52627380D01*
X82564285Y-52675000D01*
X82611904Y-52722619D01*
X82659523Y-52817857D01*
X82707142Y-53008333D01*
X82707142Y-53246428D01*
X82659523Y-53436904D01*
X82611904Y-53532142D01*
X82564285Y-53579761D01*
X82469047Y-53627380D01*
X82373809Y-53627380D01*
X82278571Y-53579761D01*
X82230952Y-53532142D01*
X82183333Y-53436904D01*
X82135714Y-53246428D01*
X82135714Y-53008333D01*
X82183333Y-52817857D01*
X82230952Y-52722619D01*
X82278571Y-52675000D01*
X82373809Y-52627380D01*
X83326190Y-52627380D02*
X83421428Y-52627380D01*
X83516666Y-52675000D01*
X83564285Y-52722619D01*
X83611904Y-52817857D01*
X83659523Y-53008333D01*
X83659523Y-53246428D01*
X83611904Y-53436904D01*
X83564285Y-53532142D01*
X83516666Y-53579761D01*
X83421428Y-53627380D01*
X83326190Y-53627380D01*
X83230952Y-53579761D01*
X83183333Y-53532142D01*
X83135714Y-53436904D01*
X83088095Y-53246428D01*
X83088095Y-53008333D01*
X83135714Y-52817857D01*
X83183333Y-52722619D01*
X83230952Y-52675000D01*
X83326190Y-52627380D01*
X84611904Y-52675000D02*
X84516666Y-52627380D01*
X84373809Y-52627380D01*
X84230952Y-52675000D01*
X84135714Y-52770238D01*
X84088095Y-52865476D01*
X84040476Y-53055952D01*
X84040476Y-53198809D01*
X84088095Y-53389285D01*
X84135714Y-53484523D01*
X84230952Y-53579761D01*
X84373809Y-53627380D01*
X84469047Y-53627380D01*
X84611904Y-53579761D01*
X84659523Y-53532142D01*
X84659523Y-53198809D01*
X84469047Y-53198809D01*
X85088095Y-53103571D02*
X85421428Y-53103571D01*
X85564285Y-53627380D02*
X85088095Y-53627380D01*
X85088095Y-52627380D01*
X85564285Y-52627380D01*
X86421428Y-52960714D02*
X86421428Y-53627380D01*
X86183333Y-52579761D02*
X85945238Y-53294047D01*
X86564285Y-53294047D01*
X87088095Y-53055952D02*
X86992857Y-53008333D01*
X86945238Y-52960714D01*
X86897619Y-52865476D01*
X86897619Y-52817857D01*
X86945238Y-52722619D01*
X86992857Y-52675000D01*
X87088095Y-52627380D01*
X87278571Y-52627380D01*
X87373809Y-52675000D01*
X87421428Y-52722619D01*
X87469047Y-52817857D01*
X87469047Y-52865476D01*
X87421428Y-52960714D01*
X87373809Y-53008333D01*
X87278571Y-53055952D01*
X87088095Y-53055952D01*
X86992857Y-53103571D01*
X86945238Y-53151190D01*
X86897619Y-53246428D01*
X86897619Y-53436904D01*
X86945238Y-53532142D01*
X86992857Y-53579761D01*
X87088095Y-53627380D01*
X87278571Y-53627380D01*
X87373809Y-53579761D01*
X87421428Y-53532142D01*
X87469047Y-53436904D01*
X87469047Y-53246428D01*
X87421428Y-53151190D01*
X87373809Y-53103571D01*
X87278571Y-53055952D01*
X88373809Y-52627380D02*
X87897619Y-52627380D01*
X87850000Y-53103571D01*
X87897619Y-53055952D01*
X87992857Y-53008333D01*
X88230952Y-53008333D01*
X88326190Y-53055952D01*
X88373809Y-53103571D01*
X88421428Y-53198809D01*
X88421428Y-53436904D01*
X88373809Y-53532142D01*
X88326190Y-53579761D01*
X88230952Y-53627380D01*
X87992857Y-53627380D01*
X87897619Y-53579761D01*
X87850000Y-53532142D01*
X89373809Y-53627380D02*
X88802380Y-53627380D01*
X89088095Y-53627380D02*
X89088095Y-52627380D01*
X88992857Y-52770238D01*
X88897619Y-52865476D01*
X88802380Y-52913095D01*
X82411904Y-47802380D02*
X82411904Y-46802380D01*
X82650000Y-46802380D01*
X82792857Y-46850000D01*
X82888095Y-46945238D01*
X82935714Y-47040476D01*
X82983333Y-47230952D01*
X82983333Y-47373809D01*
X82935714Y-47564285D01*
X82888095Y-47659523D01*
X82792857Y-47754761D01*
X82650000Y-47802380D01*
X82411904Y-47802380D01*
X83935714Y-47802380D02*
X83364285Y-47802380D01*
X83650000Y-47802380D02*
X83650000Y-46802380D01*
X83554761Y-46945238D01*
X83459523Y-47040476D01*
X83364285Y-47088095D01*
%TO.C,D2*%
X93527142Y-78312380D02*
X93050952Y-78312380D01*
X93050952Y-77312380D01*
X93860476Y-77788571D02*
X94193809Y-77788571D01*
X94336666Y-78312380D02*
X93860476Y-78312380D01*
X93860476Y-77312380D01*
X94336666Y-77312380D01*
X94765238Y-78312380D02*
X94765238Y-77312380D01*
X95003333Y-77312380D01*
X95146190Y-77360000D01*
X95241428Y-77455238D01*
X95289047Y-77550476D01*
X95336666Y-77740952D01*
X95336666Y-77883809D01*
X95289047Y-78074285D01*
X95241428Y-78169523D01*
X95146190Y-78264761D01*
X95003333Y-78312380D01*
X94765238Y-78312380D01*
D14*
X93559523Y-74261904D02*
X93559523Y-73461904D01*
X93750000Y-73461904D01*
X93864285Y-73500000D01*
X93940476Y-73576190D01*
X93978571Y-73652380D01*
X94016666Y-73804761D01*
X94016666Y-73919047D01*
X93978571Y-74071428D01*
X93940476Y-74147619D01*
X93864285Y-74223809D01*
X93750000Y-74261904D01*
X93559523Y-74261904D01*
X94321428Y-73538095D02*
X94359523Y-73500000D01*
X94435714Y-73461904D01*
X94626190Y-73461904D01*
X94702380Y-73500000D01*
X94740476Y-73538095D01*
X94778571Y-73614285D01*
X94778571Y-73690476D01*
X94740476Y-73804761D01*
X94283333Y-74261904D01*
X94778571Y-74261904D01*
%TO.C,D3*%
D13*
X153927142Y-105712380D02*
X153450952Y-105712380D01*
X153450952Y-104712380D01*
X154260476Y-105188571D02*
X154593809Y-105188571D01*
X154736666Y-105712380D02*
X154260476Y-105712380D01*
X154260476Y-104712380D01*
X154736666Y-104712380D01*
X155165238Y-105712380D02*
X155165238Y-104712380D01*
X155403333Y-104712380D01*
X155546190Y-104760000D01*
X155641428Y-104855238D01*
X155689047Y-104950476D01*
X155736666Y-105140952D01*
X155736666Y-105283809D01*
X155689047Y-105474285D01*
X155641428Y-105569523D01*
X155546190Y-105664761D01*
X155403333Y-105712380D01*
X155165238Y-105712380D01*
D14*
X153959523Y-101661904D02*
X153959523Y-100861904D01*
X154150000Y-100861904D01*
X154264285Y-100900000D01*
X154340476Y-100976190D01*
X154378571Y-101052380D01*
X154416666Y-101204761D01*
X154416666Y-101319047D01*
X154378571Y-101471428D01*
X154340476Y-101547619D01*
X154264285Y-101623809D01*
X154150000Y-101661904D01*
X153959523Y-101661904D01*
X154683333Y-100861904D02*
X155178571Y-100861904D01*
X154911904Y-101166666D01*
X155026190Y-101166666D01*
X155102380Y-101204761D01*
X155140476Y-101242857D01*
X155178571Y-101319047D01*
X155178571Y-101509523D01*
X155140476Y-101585714D01*
X155102380Y-101623809D01*
X155026190Y-101661904D01*
X154797619Y-101661904D01*
X154721428Y-101623809D01*
X154683333Y-101585714D01*
%TO.C,D4*%
D13*
X153927142Y-96012380D02*
X153450952Y-96012380D01*
X153450952Y-95012380D01*
X154260476Y-95488571D02*
X154593809Y-95488571D01*
X154736666Y-96012380D02*
X154260476Y-96012380D01*
X154260476Y-95012380D01*
X154736666Y-95012380D01*
X155165238Y-96012380D02*
X155165238Y-95012380D01*
X155403333Y-95012380D01*
X155546190Y-95060000D01*
X155641428Y-95155238D01*
X155689047Y-95250476D01*
X155736666Y-95440952D01*
X155736666Y-95583809D01*
X155689047Y-95774285D01*
X155641428Y-95869523D01*
X155546190Y-95964761D01*
X155403333Y-96012380D01*
X155165238Y-96012380D01*
D14*
X153959523Y-91961904D02*
X153959523Y-91161904D01*
X154150000Y-91161904D01*
X154264285Y-91200000D01*
X154340476Y-91276190D01*
X154378571Y-91352380D01*
X154416666Y-91504761D01*
X154416666Y-91619047D01*
X154378571Y-91771428D01*
X154340476Y-91847619D01*
X154264285Y-91923809D01*
X154150000Y-91961904D01*
X153959523Y-91961904D01*
X155102380Y-91428571D02*
X155102380Y-91961904D01*
X154911904Y-91123809D02*
X154721428Y-91695238D01*
X155216666Y-91695238D01*
%TO.C,D5*%
D13*
X153927142Y-86412380D02*
X153450952Y-86412380D01*
X153450952Y-85412380D01*
X154260476Y-85888571D02*
X154593809Y-85888571D01*
X154736666Y-86412380D02*
X154260476Y-86412380D01*
X154260476Y-85412380D01*
X154736666Y-85412380D01*
X155165238Y-86412380D02*
X155165238Y-85412380D01*
X155403333Y-85412380D01*
X155546190Y-85460000D01*
X155641428Y-85555238D01*
X155689047Y-85650476D01*
X155736666Y-85840952D01*
X155736666Y-85983809D01*
X155689047Y-86174285D01*
X155641428Y-86269523D01*
X155546190Y-86364761D01*
X155403333Y-86412380D01*
X155165238Y-86412380D01*
D14*
X153959523Y-82361904D02*
X153959523Y-81561904D01*
X154150000Y-81561904D01*
X154264285Y-81600000D01*
X154340476Y-81676190D01*
X154378571Y-81752380D01*
X154416666Y-81904761D01*
X154416666Y-82019047D01*
X154378571Y-82171428D01*
X154340476Y-82247619D01*
X154264285Y-82323809D01*
X154150000Y-82361904D01*
X153959523Y-82361904D01*
X155140476Y-81561904D02*
X154759523Y-81561904D01*
X154721428Y-81942857D01*
X154759523Y-81904761D01*
X154835714Y-81866666D01*
X155026190Y-81866666D01*
X155102380Y-81904761D01*
X155140476Y-81942857D01*
X155178571Y-82019047D01*
X155178571Y-82209523D01*
X155140476Y-82285714D01*
X155102380Y-82323809D01*
X155026190Y-82361904D01*
X154835714Y-82361904D01*
X154759523Y-82323809D01*
X154721428Y-82285714D01*
%TO.C,D6*%
D13*
X153927142Y-76612380D02*
X153450952Y-76612380D01*
X153450952Y-75612380D01*
X154260476Y-76088571D02*
X154593809Y-76088571D01*
X154736666Y-76612380D02*
X154260476Y-76612380D01*
X154260476Y-75612380D01*
X154736666Y-75612380D01*
X155165238Y-76612380D02*
X155165238Y-75612380D01*
X155403333Y-75612380D01*
X155546190Y-75660000D01*
X155641428Y-75755238D01*
X155689047Y-75850476D01*
X155736666Y-76040952D01*
X155736666Y-76183809D01*
X155689047Y-76374285D01*
X155641428Y-76469523D01*
X155546190Y-76564761D01*
X155403333Y-76612380D01*
X155165238Y-76612380D01*
D14*
X153959523Y-72561904D02*
X153959523Y-71761904D01*
X154150000Y-71761904D01*
X154264285Y-71800000D01*
X154340476Y-71876190D01*
X154378571Y-71952380D01*
X154416666Y-72104761D01*
X154416666Y-72219047D01*
X154378571Y-72371428D01*
X154340476Y-72447619D01*
X154264285Y-72523809D01*
X154150000Y-72561904D01*
X153959523Y-72561904D01*
X155102380Y-71761904D02*
X154950000Y-71761904D01*
X154873809Y-71800000D01*
X154835714Y-71838095D01*
X154759523Y-71952380D01*
X154721428Y-72104761D01*
X154721428Y-72409523D01*
X154759523Y-72485714D01*
X154797619Y-72523809D01*
X154873809Y-72561904D01*
X155026190Y-72561904D01*
X155102380Y-72523809D01*
X155140476Y-72485714D01*
X155178571Y-72409523D01*
X155178571Y-72219047D01*
X155140476Y-72142857D01*
X155102380Y-72104761D01*
X155026190Y-72066666D01*
X154873809Y-72066666D01*
X154797619Y-72104761D01*
X154759523Y-72142857D01*
X154721428Y-72219047D01*
%TO.C,D7*%
D13*
X153927142Y-66912380D02*
X153450952Y-66912380D01*
X153450952Y-65912380D01*
X154260476Y-66388571D02*
X154593809Y-66388571D01*
X154736666Y-66912380D02*
X154260476Y-66912380D01*
X154260476Y-65912380D01*
X154736666Y-65912380D01*
X155165238Y-66912380D02*
X155165238Y-65912380D01*
X155403333Y-65912380D01*
X155546190Y-65960000D01*
X155641428Y-66055238D01*
X155689047Y-66150476D01*
X155736666Y-66340952D01*
X155736666Y-66483809D01*
X155689047Y-66674285D01*
X155641428Y-66769523D01*
X155546190Y-66864761D01*
X155403333Y-66912380D01*
X155165238Y-66912380D01*
D14*
X153959523Y-62861904D02*
X153959523Y-62061904D01*
X154150000Y-62061904D01*
X154264285Y-62100000D01*
X154340476Y-62176190D01*
X154378571Y-62252380D01*
X154416666Y-62404761D01*
X154416666Y-62519047D01*
X154378571Y-62671428D01*
X154340476Y-62747619D01*
X154264285Y-62823809D01*
X154150000Y-62861904D01*
X153959523Y-62861904D01*
X154683333Y-62061904D02*
X155216666Y-62061904D01*
X154873809Y-62861904D01*
%TO.C,D8*%
D13*
X153927142Y-58512380D02*
X153450952Y-58512380D01*
X153450952Y-57512380D01*
X154260476Y-57988571D02*
X154593809Y-57988571D01*
X154736666Y-58512380D02*
X154260476Y-58512380D01*
X154260476Y-57512380D01*
X154736666Y-57512380D01*
X155165238Y-58512380D02*
X155165238Y-57512380D01*
X155403333Y-57512380D01*
X155546190Y-57560000D01*
X155641428Y-57655238D01*
X155689047Y-57750476D01*
X155736666Y-57940952D01*
X155736666Y-58083809D01*
X155689047Y-58274285D01*
X155641428Y-58369523D01*
X155546190Y-58464761D01*
X155403333Y-58512380D01*
X155165238Y-58512380D01*
D14*
X153959523Y-54461904D02*
X153959523Y-53661904D01*
X154150000Y-53661904D01*
X154264285Y-53700000D01*
X154340476Y-53776190D01*
X154378571Y-53852380D01*
X154416666Y-54004761D01*
X154416666Y-54119047D01*
X154378571Y-54271428D01*
X154340476Y-54347619D01*
X154264285Y-54423809D01*
X154150000Y-54461904D01*
X153959523Y-54461904D01*
X154873809Y-54004761D02*
X154797619Y-53966666D01*
X154759523Y-53928571D01*
X154721428Y-53852380D01*
X154721428Y-53814285D01*
X154759523Y-53738095D01*
X154797619Y-53700000D01*
X154873809Y-53661904D01*
X155026190Y-53661904D01*
X155102380Y-53700000D01*
X155140476Y-53738095D01*
X155178571Y-53814285D01*
X155178571Y-53852380D01*
X155140476Y-53928571D01*
X155102380Y-53966666D01*
X155026190Y-54004761D01*
X154873809Y-54004761D01*
X154797619Y-54042857D01*
X154759523Y-54080952D01*
X154721428Y-54157142D01*
X154721428Y-54309523D01*
X154759523Y-54385714D01*
X154797619Y-54423809D01*
X154873809Y-54461904D01*
X155026190Y-54461904D01*
X155102380Y-54423809D01*
X155140476Y-54385714D01*
X155178571Y-54309523D01*
X155178571Y-54157142D01*
X155140476Y-54080952D01*
X155102380Y-54042857D01*
X155026190Y-54004761D01*
%TO.C,R1*%
D13*
X81281428Y-76722380D02*
X80710000Y-76722380D01*
X80995714Y-76722380D02*
X80995714Y-75722380D01*
X80900476Y-75865238D01*
X80805238Y-75960476D01*
X80710000Y-76008095D01*
X81710000Y-76627142D02*
X81757619Y-76674761D01*
X81710000Y-76722380D01*
X81662380Y-76674761D01*
X81710000Y-76627142D01*
X81710000Y-76722380D01*
X82662380Y-75722380D02*
X82186190Y-75722380D01*
X82138571Y-76198571D01*
X82186190Y-76150952D01*
X82281428Y-76103333D01*
X82519523Y-76103333D01*
X82614761Y-76150952D01*
X82662380Y-76198571D01*
X82710000Y-76293809D01*
X82710000Y-76531904D01*
X82662380Y-76627142D01*
X82614761Y-76674761D01*
X82519523Y-76722380D01*
X82281428Y-76722380D01*
X82186190Y-76674761D01*
X82138571Y-76627142D01*
X83138571Y-76722380D02*
X83138571Y-75722380D01*
X83710000Y-76722380D02*
X83281428Y-76150952D01*
X83710000Y-75722380D02*
X83138571Y-76293809D01*
X82043333Y-74352380D02*
X81710000Y-73876190D01*
X81471904Y-74352380D02*
X81471904Y-73352380D01*
X81852857Y-73352380D01*
X81948095Y-73400000D01*
X81995714Y-73447619D01*
X82043333Y-73542857D01*
X82043333Y-73685714D01*
X81995714Y-73780952D01*
X81948095Y-73828571D01*
X81852857Y-73876190D01*
X81471904Y-73876190D01*
X82995714Y-74352380D02*
X82424285Y-74352380D01*
X82710000Y-74352380D02*
X82710000Y-73352380D01*
X82614761Y-73495238D01*
X82519523Y-73590476D01*
X82424285Y-73638095D01*
%TO.C,R2*%
X105414761Y-66322380D02*
X104843333Y-66322380D01*
X105129047Y-66322380D02*
X105129047Y-65322380D01*
X105033809Y-65465238D01*
X104938571Y-65560476D01*
X104843333Y-65608095D01*
X106033809Y-65322380D02*
X106129047Y-65322380D01*
X106224285Y-65370000D01*
X106271904Y-65417619D01*
X106319523Y-65512857D01*
X106367142Y-65703333D01*
X106367142Y-65941428D01*
X106319523Y-66131904D01*
X106271904Y-66227142D01*
X106224285Y-66274761D01*
X106129047Y-66322380D01*
X106033809Y-66322380D01*
X105938571Y-66274761D01*
X105890952Y-66227142D01*
X105843333Y-66131904D01*
X105795714Y-65941428D01*
X105795714Y-65703333D01*
X105843333Y-65512857D01*
X105890952Y-65417619D01*
X105938571Y-65370000D01*
X106033809Y-65322380D01*
X106795714Y-66322380D02*
X106795714Y-65322380D01*
X106890952Y-65941428D02*
X107176666Y-66322380D01*
X107176666Y-65655714D02*
X106795714Y-66036666D01*
X105843333Y-63952380D02*
X105510000Y-63476190D01*
X105271904Y-63952380D02*
X105271904Y-62952380D01*
X105652857Y-62952380D01*
X105748095Y-63000000D01*
X105795714Y-63047619D01*
X105843333Y-63142857D01*
X105843333Y-63285714D01*
X105795714Y-63380952D01*
X105748095Y-63428571D01*
X105652857Y-63476190D01*
X105271904Y-63476190D01*
X106224285Y-63047619D02*
X106271904Y-63000000D01*
X106367142Y-62952380D01*
X106605238Y-62952380D01*
X106700476Y-63000000D01*
X106748095Y-63047619D01*
X106795714Y-63142857D01*
X106795714Y-63238095D01*
X106748095Y-63380952D01*
X106176666Y-63952380D01*
X106795714Y-63952380D01*
%TO.C,R3*%
X105414761Y-70322380D02*
X104843333Y-70322380D01*
X105129047Y-70322380D02*
X105129047Y-69322380D01*
X105033809Y-69465238D01*
X104938571Y-69560476D01*
X104843333Y-69608095D01*
X106033809Y-69322380D02*
X106129047Y-69322380D01*
X106224285Y-69370000D01*
X106271904Y-69417619D01*
X106319523Y-69512857D01*
X106367142Y-69703333D01*
X106367142Y-69941428D01*
X106319523Y-70131904D01*
X106271904Y-70227142D01*
X106224285Y-70274761D01*
X106129047Y-70322380D01*
X106033809Y-70322380D01*
X105938571Y-70274761D01*
X105890952Y-70227142D01*
X105843333Y-70131904D01*
X105795714Y-69941428D01*
X105795714Y-69703333D01*
X105843333Y-69512857D01*
X105890952Y-69417619D01*
X105938571Y-69370000D01*
X106033809Y-69322380D01*
X106795714Y-70322380D02*
X106795714Y-69322380D01*
X106890952Y-69941428D02*
X107176666Y-70322380D01*
X107176666Y-69655714D02*
X106795714Y-70036666D01*
X105843333Y-67952380D02*
X105510000Y-67476190D01*
X105271904Y-67952380D02*
X105271904Y-66952380D01*
X105652857Y-66952380D01*
X105748095Y-67000000D01*
X105795714Y-67047619D01*
X105843333Y-67142857D01*
X105843333Y-67285714D01*
X105795714Y-67380952D01*
X105748095Y-67428571D01*
X105652857Y-67476190D01*
X105271904Y-67476190D01*
X106176666Y-66952380D02*
X106795714Y-66952380D01*
X106462380Y-67333333D01*
X106605238Y-67333333D01*
X106700476Y-67380952D01*
X106748095Y-67428571D01*
X106795714Y-67523809D01*
X106795714Y-67761904D01*
X106748095Y-67857142D01*
X106700476Y-67904761D01*
X106605238Y-67952380D01*
X106319523Y-67952380D01*
X106224285Y-67904761D01*
X106176666Y-67857142D01*
%TO.C,R4*%
X105414761Y-74422380D02*
X104843333Y-74422380D01*
X105129047Y-74422380D02*
X105129047Y-73422380D01*
X105033809Y-73565238D01*
X104938571Y-73660476D01*
X104843333Y-73708095D01*
X106033809Y-73422380D02*
X106129047Y-73422380D01*
X106224285Y-73470000D01*
X106271904Y-73517619D01*
X106319523Y-73612857D01*
X106367142Y-73803333D01*
X106367142Y-74041428D01*
X106319523Y-74231904D01*
X106271904Y-74327142D01*
X106224285Y-74374761D01*
X106129047Y-74422380D01*
X106033809Y-74422380D01*
X105938571Y-74374761D01*
X105890952Y-74327142D01*
X105843333Y-74231904D01*
X105795714Y-74041428D01*
X105795714Y-73803333D01*
X105843333Y-73612857D01*
X105890952Y-73517619D01*
X105938571Y-73470000D01*
X106033809Y-73422380D01*
X106795714Y-74422380D02*
X106795714Y-73422380D01*
X106890952Y-74041428D02*
X107176666Y-74422380D01*
X107176666Y-73755714D02*
X106795714Y-74136666D01*
X105843333Y-72052380D02*
X105510000Y-71576190D01*
X105271904Y-72052380D02*
X105271904Y-71052380D01*
X105652857Y-71052380D01*
X105748095Y-71100000D01*
X105795714Y-71147619D01*
X105843333Y-71242857D01*
X105843333Y-71385714D01*
X105795714Y-71480952D01*
X105748095Y-71528571D01*
X105652857Y-71576190D01*
X105271904Y-71576190D01*
X106700476Y-71385714D02*
X106700476Y-72052380D01*
X106462380Y-71004761D02*
X106224285Y-71719047D01*
X106843333Y-71719047D01*
%TO.C,R5*%
X105314761Y-78422380D02*
X104743333Y-78422380D01*
X105029047Y-78422380D02*
X105029047Y-77422380D01*
X104933809Y-77565238D01*
X104838571Y-77660476D01*
X104743333Y-77708095D01*
X105933809Y-77422380D02*
X106029047Y-77422380D01*
X106124285Y-77470000D01*
X106171904Y-77517619D01*
X106219523Y-77612857D01*
X106267142Y-77803333D01*
X106267142Y-78041428D01*
X106219523Y-78231904D01*
X106171904Y-78327142D01*
X106124285Y-78374761D01*
X106029047Y-78422380D01*
X105933809Y-78422380D01*
X105838571Y-78374761D01*
X105790952Y-78327142D01*
X105743333Y-78231904D01*
X105695714Y-78041428D01*
X105695714Y-77803333D01*
X105743333Y-77612857D01*
X105790952Y-77517619D01*
X105838571Y-77470000D01*
X105933809Y-77422380D01*
X106695714Y-78422380D02*
X106695714Y-77422380D01*
X106790952Y-78041428D02*
X107076666Y-78422380D01*
X107076666Y-77755714D02*
X106695714Y-78136666D01*
X105743333Y-76052380D02*
X105410000Y-75576190D01*
X105171904Y-76052380D02*
X105171904Y-75052380D01*
X105552857Y-75052380D01*
X105648095Y-75100000D01*
X105695714Y-75147619D01*
X105743333Y-75242857D01*
X105743333Y-75385714D01*
X105695714Y-75480952D01*
X105648095Y-75528571D01*
X105552857Y-75576190D01*
X105171904Y-75576190D01*
X106648095Y-75052380D02*
X106171904Y-75052380D01*
X106124285Y-75528571D01*
X106171904Y-75480952D01*
X106267142Y-75433333D01*
X106505238Y-75433333D01*
X106600476Y-75480952D01*
X106648095Y-75528571D01*
X106695714Y-75623809D01*
X106695714Y-75861904D01*
X106648095Y-75957142D01*
X106600476Y-76004761D01*
X106505238Y-76052380D01*
X106267142Y-76052380D01*
X106171904Y-76004761D01*
X106124285Y-75957142D01*
%TO.C,R6*%
X105314761Y-82422380D02*
X104743333Y-82422380D01*
X105029047Y-82422380D02*
X105029047Y-81422380D01*
X104933809Y-81565238D01*
X104838571Y-81660476D01*
X104743333Y-81708095D01*
X105933809Y-81422380D02*
X106029047Y-81422380D01*
X106124285Y-81470000D01*
X106171904Y-81517619D01*
X106219523Y-81612857D01*
X106267142Y-81803333D01*
X106267142Y-82041428D01*
X106219523Y-82231904D01*
X106171904Y-82327142D01*
X106124285Y-82374761D01*
X106029047Y-82422380D01*
X105933809Y-82422380D01*
X105838571Y-82374761D01*
X105790952Y-82327142D01*
X105743333Y-82231904D01*
X105695714Y-82041428D01*
X105695714Y-81803333D01*
X105743333Y-81612857D01*
X105790952Y-81517619D01*
X105838571Y-81470000D01*
X105933809Y-81422380D01*
X106695714Y-82422380D02*
X106695714Y-81422380D01*
X106790952Y-82041428D02*
X107076666Y-82422380D01*
X107076666Y-81755714D02*
X106695714Y-82136666D01*
X105743333Y-80052380D02*
X105410000Y-79576190D01*
X105171904Y-80052380D02*
X105171904Y-79052380D01*
X105552857Y-79052380D01*
X105648095Y-79100000D01*
X105695714Y-79147619D01*
X105743333Y-79242857D01*
X105743333Y-79385714D01*
X105695714Y-79480952D01*
X105648095Y-79528571D01*
X105552857Y-79576190D01*
X105171904Y-79576190D01*
X106600476Y-79052380D02*
X106410000Y-79052380D01*
X106314761Y-79100000D01*
X106267142Y-79147619D01*
X106171904Y-79290476D01*
X106124285Y-79480952D01*
X106124285Y-79861904D01*
X106171904Y-79957142D01*
X106219523Y-80004761D01*
X106314761Y-80052380D01*
X106505238Y-80052380D01*
X106600476Y-80004761D01*
X106648095Y-79957142D01*
X106695714Y-79861904D01*
X106695714Y-79623809D01*
X106648095Y-79528571D01*
X106600476Y-79480952D01*
X106505238Y-79433333D01*
X106314761Y-79433333D01*
X106219523Y-79480952D01*
X106171904Y-79528571D01*
X106124285Y-79623809D01*
%TO.C,R7*%
X105314761Y-86422380D02*
X104743333Y-86422380D01*
X105029047Y-86422380D02*
X105029047Y-85422380D01*
X104933809Y-85565238D01*
X104838571Y-85660476D01*
X104743333Y-85708095D01*
X105933809Y-85422380D02*
X106029047Y-85422380D01*
X106124285Y-85470000D01*
X106171904Y-85517619D01*
X106219523Y-85612857D01*
X106267142Y-85803333D01*
X106267142Y-86041428D01*
X106219523Y-86231904D01*
X106171904Y-86327142D01*
X106124285Y-86374761D01*
X106029047Y-86422380D01*
X105933809Y-86422380D01*
X105838571Y-86374761D01*
X105790952Y-86327142D01*
X105743333Y-86231904D01*
X105695714Y-86041428D01*
X105695714Y-85803333D01*
X105743333Y-85612857D01*
X105790952Y-85517619D01*
X105838571Y-85470000D01*
X105933809Y-85422380D01*
X106695714Y-86422380D02*
X106695714Y-85422380D01*
X106790952Y-86041428D02*
X107076666Y-86422380D01*
X107076666Y-85755714D02*
X106695714Y-86136666D01*
X105743333Y-84052380D02*
X105410000Y-83576190D01*
X105171904Y-84052380D02*
X105171904Y-83052380D01*
X105552857Y-83052380D01*
X105648095Y-83100000D01*
X105695714Y-83147619D01*
X105743333Y-83242857D01*
X105743333Y-83385714D01*
X105695714Y-83480952D01*
X105648095Y-83528571D01*
X105552857Y-83576190D01*
X105171904Y-83576190D01*
X106076666Y-83052380D02*
X106743333Y-83052380D01*
X106314761Y-84052380D01*
%TO.C,R8*%
X141776666Y-86722380D02*
X141205238Y-86722380D01*
X141490952Y-86722380D02*
X141490952Y-85722380D01*
X141395714Y-85865238D01*
X141300476Y-85960476D01*
X141205238Y-86008095D01*
X142252857Y-86674761D02*
X142252857Y-86722380D01*
X142205238Y-86817619D01*
X142157619Y-86865238D01*
X143157619Y-85722380D02*
X142681428Y-85722380D01*
X142633809Y-86198571D01*
X142681428Y-86150952D01*
X142776666Y-86103333D01*
X143014761Y-86103333D01*
X143110000Y-86150952D01*
X143157619Y-86198571D01*
X143205238Y-86293809D01*
X143205238Y-86531904D01*
X143157619Y-86627142D01*
X143110000Y-86674761D01*
X143014761Y-86722380D01*
X142776666Y-86722380D01*
X142681428Y-86674761D01*
X142633809Y-86627142D01*
X143633809Y-86722380D02*
X143633809Y-85722380D01*
X143729047Y-86341428D02*
X144014761Y-86722380D01*
X144014761Y-86055714D02*
X143633809Y-86436666D01*
X142443333Y-84352380D02*
X142110000Y-83876190D01*
X141871904Y-84352380D02*
X141871904Y-83352380D01*
X142252857Y-83352380D01*
X142348095Y-83400000D01*
X142395714Y-83447619D01*
X142443333Y-83542857D01*
X142443333Y-83685714D01*
X142395714Y-83780952D01*
X142348095Y-83828571D01*
X142252857Y-83876190D01*
X141871904Y-83876190D01*
X143014761Y-83780952D02*
X142919523Y-83733333D01*
X142871904Y-83685714D01*
X142824285Y-83590476D01*
X142824285Y-83542857D01*
X142871904Y-83447619D01*
X142919523Y-83400000D01*
X143014761Y-83352380D01*
X143205238Y-83352380D01*
X143300476Y-83400000D01*
X143348095Y-83447619D01*
X143395714Y-83542857D01*
X143395714Y-83590476D01*
X143348095Y-83685714D01*
X143300476Y-83733333D01*
X143205238Y-83780952D01*
X143014761Y-83780952D01*
X142919523Y-83828571D01*
X142871904Y-83876190D01*
X142824285Y-83971428D01*
X142824285Y-84161904D01*
X142871904Y-84257142D01*
X142919523Y-84304761D01*
X143014761Y-84352380D01*
X143205238Y-84352380D01*
X143300476Y-84304761D01*
X143348095Y-84257142D01*
X143395714Y-84161904D01*
X143395714Y-83971428D01*
X143348095Y-83876190D01*
X143300476Y-83828571D01*
X143205238Y-83780952D01*
%TO.C,R9*%
X141776666Y-82822380D02*
X141205238Y-82822380D01*
X141490952Y-82822380D02*
X141490952Y-81822380D01*
X141395714Y-81965238D01*
X141300476Y-82060476D01*
X141205238Y-82108095D01*
X142252857Y-82774761D02*
X142252857Y-82822380D01*
X142205238Y-82917619D01*
X142157619Y-82965238D01*
X143157619Y-81822380D02*
X142681428Y-81822380D01*
X142633809Y-82298571D01*
X142681428Y-82250952D01*
X142776666Y-82203333D01*
X143014761Y-82203333D01*
X143110000Y-82250952D01*
X143157619Y-82298571D01*
X143205238Y-82393809D01*
X143205238Y-82631904D01*
X143157619Y-82727142D01*
X143110000Y-82774761D01*
X143014761Y-82822380D01*
X142776666Y-82822380D01*
X142681428Y-82774761D01*
X142633809Y-82727142D01*
X143633809Y-82822380D02*
X143633809Y-81822380D01*
X143729047Y-82441428D02*
X144014761Y-82822380D01*
X144014761Y-82155714D02*
X143633809Y-82536666D01*
X142443333Y-80452380D02*
X142110000Y-79976190D01*
X141871904Y-80452380D02*
X141871904Y-79452380D01*
X142252857Y-79452380D01*
X142348095Y-79500000D01*
X142395714Y-79547619D01*
X142443333Y-79642857D01*
X142443333Y-79785714D01*
X142395714Y-79880952D01*
X142348095Y-79928571D01*
X142252857Y-79976190D01*
X141871904Y-79976190D01*
X142919523Y-80452380D02*
X143110000Y-80452380D01*
X143205238Y-80404761D01*
X143252857Y-80357142D01*
X143348095Y-80214285D01*
X143395714Y-80023809D01*
X143395714Y-79642857D01*
X143348095Y-79547619D01*
X143300476Y-79500000D01*
X143205238Y-79452380D01*
X143014761Y-79452380D01*
X142919523Y-79500000D01*
X142871904Y-79547619D01*
X142824285Y-79642857D01*
X142824285Y-79880952D01*
X142871904Y-79976190D01*
X142919523Y-80023809D01*
X143014761Y-80071428D01*
X143205238Y-80071428D01*
X143300476Y-80023809D01*
X143348095Y-79976190D01*
X143395714Y-79880952D01*
%TO.C,R10*%
X141776666Y-79022380D02*
X141205238Y-79022380D01*
X141490952Y-79022380D02*
X141490952Y-78022380D01*
X141395714Y-78165238D01*
X141300476Y-78260476D01*
X141205238Y-78308095D01*
X142252857Y-78974761D02*
X142252857Y-79022380D01*
X142205238Y-79117619D01*
X142157619Y-79165238D01*
X143157619Y-78022380D02*
X142681428Y-78022380D01*
X142633809Y-78498571D01*
X142681428Y-78450952D01*
X142776666Y-78403333D01*
X143014761Y-78403333D01*
X143110000Y-78450952D01*
X143157619Y-78498571D01*
X143205238Y-78593809D01*
X143205238Y-78831904D01*
X143157619Y-78927142D01*
X143110000Y-78974761D01*
X143014761Y-79022380D01*
X142776666Y-79022380D01*
X142681428Y-78974761D01*
X142633809Y-78927142D01*
X143633809Y-79022380D02*
X143633809Y-78022380D01*
X143729047Y-78641428D02*
X144014761Y-79022380D01*
X144014761Y-78355714D02*
X143633809Y-78736666D01*
X141967142Y-76652380D02*
X141633809Y-76176190D01*
X141395714Y-76652380D02*
X141395714Y-75652380D01*
X141776666Y-75652380D01*
X141871904Y-75700000D01*
X141919523Y-75747619D01*
X141967142Y-75842857D01*
X141967142Y-75985714D01*
X141919523Y-76080952D01*
X141871904Y-76128571D01*
X141776666Y-76176190D01*
X141395714Y-76176190D01*
X142919523Y-76652380D02*
X142348095Y-76652380D01*
X142633809Y-76652380D02*
X142633809Y-75652380D01*
X142538571Y-75795238D01*
X142443333Y-75890476D01*
X142348095Y-75938095D01*
X143538571Y-75652380D02*
X143633809Y-75652380D01*
X143729047Y-75700000D01*
X143776666Y-75747619D01*
X143824285Y-75842857D01*
X143871904Y-76033333D01*
X143871904Y-76271428D01*
X143824285Y-76461904D01*
X143776666Y-76557142D01*
X143729047Y-76604761D01*
X143633809Y-76652380D01*
X143538571Y-76652380D01*
X143443333Y-76604761D01*
X143395714Y-76557142D01*
X143348095Y-76461904D01*
X143300476Y-76271428D01*
X143300476Y-76033333D01*
X143348095Y-75842857D01*
X143395714Y-75747619D01*
X143443333Y-75700000D01*
X143538571Y-75652380D01*
%TO.C,R11*%
X141776666Y-74922380D02*
X141205238Y-74922380D01*
X141490952Y-74922380D02*
X141490952Y-73922380D01*
X141395714Y-74065238D01*
X141300476Y-74160476D01*
X141205238Y-74208095D01*
X142252857Y-74874761D02*
X142252857Y-74922380D01*
X142205238Y-75017619D01*
X142157619Y-75065238D01*
X143157619Y-73922380D02*
X142681428Y-73922380D01*
X142633809Y-74398571D01*
X142681428Y-74350952D01*
X142776666Y-74303333D01*
X143014761Y-74303333D01*
X143110000Y-74350952D01*
X143157619Y-74398571D01*
X143205238Y-74493809D01*
X143205238Y-74731904D01*
X143157619Y-74827142D01*
X143110000Y-74874761D01*
X143014761Y-74922380D01*
X142776666Y-74922380D01*
X142681428Y-74874761D01*
X142633809Y-74827142D01*
X143633809Y-74922380D02*
X143633809Y-73922380D01*
X143729047Y-74541428D02*
X144014761Y-74922380D01*
X144014761Y-74255714D02*
X143633809Y-74636666D01*
X141967142Y-72552380D02*
X141633809Y-72076190D01*
X141395714Y-72552380D02*
X141395714Y-71552380D01*
X141776666Y-71552380D01*
X141871904Y-71600000D01*
X141919523Y-71647619D01*
X141967142Y-71742857D01*
X141967142Y-71885714D01*
X141919523Y-71980952D01*
X141871904Y-72028571D01*
X141776666Y-72076190D01*
X141395714Y-72076190D01*
X142919523Y-72552380D02*
X142348095Y-72552380D01*
X142633809Y-72552380D02*
X142633809Y-71552380D01*
X142538571Y-71695238D01*
X142443333Y-71790476D01*
X142348095Y-71838095D01*
X143871904Y-72552380D02*
X143300476Y-72552380D01*
X143586190Y-72552380D02*
X143586190Y-71552380D01*
X143490952Y-71695238D01*
X143395714Y-71790476D01*
X143300476Y-71838095D01*
%TO.C,R12*%
X141776666Y-70722380D02*
X141205238Y-70722380D01*
X141490952Y-70722380D02*
X141490952Y-69722380D01*
X141395714Y-69865238D01*
X141300476Y-69960476D01*
X141205238Y-70008095D01*
X142252857Y-70674761D02*
X142252857Y-70722380D01*
X142205238Y-70817619D01*
X142157619Y-70865238D01*
X143157619Y-69722380D02*
X142681428Y-69722380D01*
X142633809Y-70198571D01*
X142681428Y-70150952D01*
X142776666Y-70103333D01*
X143014761Y-70103333D01*
X143110000Y-70150952D01*
X143157619Y-70198571D01*
X143205238Y-70293809D01*
X143205238Y-70531904D01*
X143157619Y-70627142D01*
X143110000Y-70674761D01*
X143014761Y-70722380D01*
X142776666Y-70722380D01*
X142681428Y-70674761D01*
X142633809Y-70627142D01*
X143633809Y-70722380D02*
X143633809Y-69722380D01*
X143729047Y-70341428D02*
X144014761Y-70722380D01*
X144014761Y-70055714D02*
X143633809Y-70436666D01*
X141967142Y-68352380D02*
X141633809Y-67876190D01*
X141395714Y-68352380D02*
X141395714Y-67352380D01*
X141776666Y-67352380D01*
X141871904Y-67400000D01*
X141919523Y-67447619D01*
X141967142Y-67542857D01*
X141967142Y-67685714D01*
X141919523Y-67780952D01*
X141871904Y-67828571D01*
X141776666Y-67876190D01*
X141395714Y-67876190D01*
X142919523Y-68352380D02*
X142348095Y-68352380D01*
X142633809Y-68352380D02*
X142633809Y-67352380D01*
X142538571Y-67495238D01*
X142443333Y-67590476D01*
X142348095Y-67638095D01*
X143300476Y-67447619D02*
X143348095Y-67400000D01*
X143443333Y-67352380D01*
X143681428Y-67352380D01*
X143776666Y-67400000D01*
X143824285Y-67447619D01*
X143871904Y-67542857D01*
X143871904Y-67638095D01*
X143824285Y-67780952D01*
X143252857Y-68352380D01*
X143871904Y-68352380D01*
%TO.C,R13*%
X141776666Y-66722380D02*
X141205238Y-66722380D01*
X141490952Y-66722380D02*
X141490952Y-65722380D01*
X141395714Y-65865238D01*
X141300476Y-65960476D01*
X141205238Y-66008095D01*
X142252857Y-66674761D02*
X142252857Y-66722380D01*
X142205238Y-66817619D01*
X142157619Y-66865238D01*
X143157619Y-65722380D02*
X142681428Y-65722380D01*
X142633809Y-66198571D01*
X142681428Y-66150952D01*
X142776666Y-66103333D01*
X143014761Y-66103333D01*
X143110000Y-66150952D01*
X143157619Y-66198571D01*
X143205238Y-66293809D01*
X143205238Y-66531904D01*
X143157619Y-66627142D01*
X143110000Y-66674761D01*
X143014761Y-66722380D01*
X142776666Y-66722380D01*
X142681428Y-66674761D01*
X142633809Y-66627142D01*
X143633809Y-66722380D02*
X143633809Y-65722380D01*
X143729047Y-66341428D02*
X144014761Y-66722380D01*
X144014761Y-66055714D02*
X143633809Y-66436666D01*
X141967142Y-64352380D02*
X141633809Y-63876190D01*
X141395714Y-64352380D02*
X141395714Y-63352380D01*
X141776666Y-63352380D01*
X141871904Y-63400000D01*
X141919523Y-63447619D01*
X141967142Y-63542857D01*
X141967142Y-63685714D01*
X141919523Y-63780952D01*
X141871904Y-63828571D01*
X141776666Y-63876190D01*
X141395714Y-63876190D01*
X142919523Y-64352380D02*
X142348095Y-64352380D01*
X142633809Y-64352380D02*
X142633809Y-63352380D01*
X142538571Y-63495238D01*
X142443333Y-63590476D01*
X142348095Y-63638095D01*
X143252857Y-63352380D02*
X143871904Y-63352380D01*
X143538571Y-63733333D01*
X143681428Y-63733333D01*
X143776666Y-63780952D01*
X143824285Y-63828571D01*
X143871904Y-63923809D01*
X143871904Y-64161904D01*
X143824285Y-64257142D01*
X143776666Y-64304761D01*
X143681428Y-64352380D01*
X143395714Y-64352380D01*
X143300476Y-64304761D01*
X143252857Y-64257142D01*
%TO.C,U2*%
X125456666Y-70945238D02*
X125456666Y-70469047D01*
X125742380Y-71040476D02*
X124742380Y-70707142D01*
X125742380Y-70373809D01*
X124742380Y-69850000D02*
X124742380Y-69754761D01*
X124790000Y-69659523D01*
X124837619Y-69611904D01*
X124932857Y-69564285D01*
X125123333Y-69516666D01*
X125361428Y-69516666D01*
X125551904Y-69564285D01*
X125647142Y-69611904D01*
X125694761Y-69659523D01*
X125742380Y-69754761D01*
X125742380Y-69850000D01*
X125694761Y-69945238D01*
X125647142Y-69992857D01*
X125551904Y-70040476D01*
X125361428Y-70088095D01*
X125123333Y-70088095D01*
X124932857Y-70040476D01*
X124837619Y-69992857D01*
X124790000Y-69945238D01*
X124742380Y-69850000D01*
X124742380Y-68897619D02*
X124742380Y-68802380D01*
X124790000Y-68707142D01*
X124837619Y-68659523D01*
X124932857Y-68611904D01*
X125123333Y-68564285D01*
X125361428Y-68564285D01*
X125551904Y-68611904D01*
X125647142Y-68659523D01*
X125694761Y-68707142D01*
X125742380Y-68802380D01*
X125742380Y-68897619D01*
X125694761Y-68992857D01*
X125647142Y-69040476D01*
X125551904Y-69088095D01*
X125361428Y-69135714D01*
X125123333Y-69135714D01*
X124932857Y-69088095D01*
X124837619Y-69040476D01*
X124790000Y-68992857D01*
X124742380Y-68897619D01*
X124742380Y-67945238D02*
X124742380Y-67850000D01*
X124790000Y-67754761D01*
X124837619Y-67707142D01*
X124932857Y-67659523D01*
X125123333Y-67611904D01*
X125361428Y-67611904D01*
X125551904Y-67659523D01*
X125647142Y-67707142D01*
X125694761Y-67754761D01*
X125742380Y-67850000D01*
X125742380Y-67945238D01*
X125694761Y-68040476D01*
X125647142Y-68088095D01*
X125551904Y-68135714D01*
X125361428Y-68183333D01*
X125123333Y-68183333D01*
X124932857Y-68135714D01*
X124837619Y-68088095D01*
X124790000Y-68040476D01*
X124742380Y-67945238D01*
X124742380Y-66992857D02*
X124742380Y-66897619D01*
X124790000Y-66802380D01*
X124837619Y-66754761D01*
X124932857Y-66707142D01*
X125123333Y-66659523D01*
X125361428Y-66659523D01*
X125551904Y-66707142D01*
X125647142Y-66754761D01*
X125694761Y-66802380D01*
X125742380Y-66897619D01*
X125742380Y-66992857D01*
X125694761Y-67088095D01*
X125647142Y-67135714D01*
X125551904Y-67183333D01*
X125361428Y-67230952D01*
X125123333Y-67230952D01*
X124932857Y-67183333D01*
X124837619Y-67135714D01*
X124790000Y-67088095D01*
X124742380Y-66992857D01*
X124742380Y-66040476D02*
X124742380Y-65945238D01*
X124790000Y-65850000D01*
X124837619Y-65802380D01*
X124932857Y-65754761D01*
X125123333Y-65707142D01*
X125361428Y-65707142D01*
X125551904Y-65754761D01*
X125647142Y-65802380D01*
X125694761Y-65850000D01*
X125742380Y-65945238D01*
X125742380Y-66040476D01*
X125694761Y-66135714D01*
X125647142Y-66183333D01*
X125551904Y-66230952D01*
X125361428Y-66278571D01*
X125123333Y-66278571D01*
X124932857Y-66230952D01*
X124837619Y-66183333D01*
X124790000Y-66135714D01*
X124742380Y-66040476D01*
X124742380Y-64802380D02*
X124742380Y-65278571D01*
X125218571Y-65326190D01*
X125170952Y-65278571D01*
X125123333Y-65183333D01*
X125123333Y-64945238D01*
X125170952Y-64850000D01*
X125218571Y-64802380D01*
X125313809Y-64754761D01*
X125551904Y-64754761D01*
X125647142Y-64802380D01*
X125694761Y-64850000D01*
X125742380Y-64945238D01*
X125742380Y-65183333D01*
X125694761Y-65278571D01*
X125647142Y-65326190D01*
X122202380Y-68611904D02*
X123011904Y-68611904D01*
X123107142Y-68564285D01*
X123154761Y-68516666D01*
X123202380Y-68421428D01*
X123202380Y-68230952D01*
X123154761Y-68135714D01*
X123107142Y-68088095D01*
X123011904Y-68040476D01*
X122202380Y-68040476D01*
X122297619Y-67611904D02*
X122250000Y-67564285D01*
X122202380Y-67469047D01*
X122202380Y-67230952D01*
X122250000Y-67135714D01*
X122297619Y-67088095D01*
X122392857Y-67040476D01*
X122488095Y-67040476D01*
X122630952Y-67088095D01*
X123202380Y-67659523D01*
X123202380Y-67040476D01*
%TO.C,U3*%
X104261904Y-112604761D02*
X104404761Y-112652380D01*
X104642857Y-112652380D01*
X104738095Y-112604761D01*
X104785714Y-112557142D01*
X104833333Y-112461904D01*
X104833333Y-112366666D01*
X104785714Y-112271428D01*
X104738095Y-112223809D01*
X104642857Y-112176190D01*
X104452380Y-112128571D01*
X104357142Y-112080952D01*
X104309523Y-112033333D01*
X104261904Y-111938095D01*
X104261904Y-111842857D01*
X104309523Y-111747619D01*
X104357142Y-111700000D01*
X104452380Y-111652380D01*
X104690476Y-111652380D01*
X104833333Y-111700000D01*
X105642857Y-112604761D02*
X105547619Y-112652380D01*
X105357142Y-112652380D01*
X105261904Y-112604761D01*
X105214285Y-112509523D01*
X105214285Y-112128571D01*
X105261904Y-112033333D01*
X105357142Y-111985714D01*
X105547619Y-111985714D01*
X105642857Y-112033333D01*
X105690476Y-112128571D01*
X105690476Y-112223809D01*
X105214285Y-112319047D01*
X106500000Y-112604761D02*
X106404761Y-112652380D01*
X106214285Y-112652380D01*
X106119047Y-112604761D01*
X106071428Y-112509523D01*
X106071428Y-112128571D01*
X106119047Y-112033333D01*
X106214285Y-111985714D01*
X106404761Y-111985714D01*
X106500000Y-112033333D01*
X106547619Y-112128571D01*
X106547619Y-112223809D01*
X106071428Y-112319047D01*
X107404761Y-112652380D02*
X107404761Y-111652380D01*
X107404761Y-112604761D02*
X107309523Y-112652380D01*
X107119047Y-112652380D01*
X107023809Y-112604761D01*
X106976190Y-112557142D01*
X106928571Y-112461904D01*
X106928571Y-112176190D01*
X106976190Y-112080952D01*
X107023809Y-112033333D01*
X107119047Y-111985714D01*
X107309523Y-111985714D01*
X107404761Y-112033333D01*
X107833333Y-112604761D02*
X107976190Y-112652380D01*
X108214285Y-112652380D01*
X108309523Y-112604761D01*
X108357142Y-112557142D01*
X108404761Y-112461904D01*
X108404761Y-112366666D01*
X108357142Y-112271428D01*
X108309523Y-112223809D01*
X108214285Y-112176190D01*
X108023809Y-112128571D01*
X107928571Y-112080952D01*
X107880952Y-112033333D01*
X107833333Y-111938095D01*
X107833333Y-111842857D01*
X107880952Y-111747619D01*
X107928571Y-111700000D01*
X108023809Y-111652380D01*
X108261904Y-111652380D01*
X108404761Y-111700000D01*
X108690476Y-111985714D02*
X109071428Y-111985714D01*
X108833333Y-111652380D02*
X108833333Y-112509523D01*
X108880952Y-112604761D01*
X108976190Y-112652380D01*
X109071428Y-112652380D01*
X109833333Y-111985714D02*
X109833333Y-112652380D01*
X109404761Y-111985714D02*
X109404761Y-112509523D01*
X109452380Y-112604761D01*
X109547619Y-112652380D01*
X109690476Y-112652380D01*
X109785714Y-112604761D01*
X109833333Y-112557142D01*
X110738095Y-112652380D02*
X110738095Y-111652380D01*
X110738095Y-112604761D02*
X110642857Y-112652380D01*
X110452380Y-112652380D01*
X110357142Y-112604761D01*
X110309523Y-112557142D01*
X110261904Y-112461904D01*
X110261904Y-112176190D01*
X110309523Y-112080952D01*
X110357142Y-112033333D01*
X110452380Y-111985714D01*
X110642857Y-111985714D01*
X110738095Y-112033333D01*
X111214285Y-112652380D02*
X111214285Y-111985714D01*
X111214285Y-111652380D02*
X111166666Y-111700000D01*
X111214285Y-111747619D01*
X111261904Y-111700000D01*
X111214285Y-111652380D01*
X111214285Y-111747619D01*
X111833333Y-112652380D02*
X111738095Y-112604761D01*
X111690476Y-112557142D01*
X111642857Y-112461904D01*
X111642857Y-112176190D01*
X111690476Y-112080952D01*
X111738095Y-112033333D01*
X111833333Y-111985714D01*
X111976190Y-111985714D01*
X112071428Y-112033333D01*
X112119047Y-112080952D01*
X112166666Y-112176190D01*
X112166666Y-112461904D01*
X112119047Y-112557142D01*
X112071428Y-112604761D01*
X111976190Y-112652380D01*
X111833333Y-112652380D01*
X113119047Y-112652380D02*
X112547619Y-112652380D01*
X112833333Y-112652380D02*
X112833333Y-111652380D01*
X112738095Y-111795238D01*
X112642857Y-111890476D01*
X112547619Y-111938095D01*
X114071428Y-112652380D02*
X113500000Y-112652380D01*
X113785714Y-112652380D02*
X113785714Y-111652380D01*
X113690476Y-111795238D01*
X113595238Y-111890476D01*
X113500000Y-111938095D01*
X114404761Y-111652380D02*
X115023809Y-111652380D01*
X114690476Y-112033333D01*
X114833333Y-112033333D01*
X114928571Y-112080952D01*
X114976190Y-112128571D01*
X115023809Y-112223809D01*
X115023809Y-112461904D01*
X114976190Y-112557142D01*
X114928571Y-112604761D01*
X114833333Y-112652380D01*
X114547619Y-112652380D01*
X114452380Y-112604761D01*
X114404761Y-112557142D01*
X115500000Y-112652380D02*
X115690476Y-112652380D01*
X115785714Y-112604761D01*
X115833333Y-112557142D01*
X115928571Y-112414285D01*
X115976190Y-112223809D01*
X115976190Y-111842857D01*
X115928571Y-111747619D01*
X115880952Y-111700000D01*
X115785714Y-111652380D01*
X115595238Y-111652380D01*
X115500000Y-111700000D01*
X115452380Y-111747619D01*
X115404761Y-111842857D01*
X115404761Y-112080952D01*
X115452380Y-112176190D01*
X115500000Y-112223809D01*
X115595238Y-112271428D01*
X115785714Y-112271428D01*
X115880952Y-112223809D01*
X115928571Y-112176190D01*
X115976190Y-112080952D01*
X116452380Y-112652380D02*
X116642857Y-112652380D01*
X116738095Y-112604761D01*
X116785714Y-112557142D01*
X116880952Y-112414285D01*
X116928571Y-112223809D01*
X116928571Y-111842857D01*
X116880952Y-111747619D01*
X116833333Y-111700000D01*
X116738095Y-111652380D01*
X116547619Y-111652380D01*
X116452380Y-111700000D01*
X116404761Y-111747619D01*
X116357142Y-111842857D01*
X116357142Y-112080952D01*
X116404761Y-112176190D01*
X116452380Y-112223809D01*
X116547619Y-112271428D01*
X116738095Y-112271428D01*
X116833333Y-112223809D01*
X116880952Y-112176190D01*
X116928571Y-112080952D01*
X117547619Y-111652380D02*
X117642857Y-111652380D01*
X117738095Y-111700000D01*
X117785714Y-111747619D01*
X117833333Y-111842857D01*
X117880952Y-112033333D01*
X117880952Y-112271428D01*
X117833333Y-112461904D01*
X117785714Y-112557142D01*
X117738095Y-112604761D01*
X117642857Y-112652380D01*
X117547619Y-112652380D01*
X117452380Y-112604761D01*
X117404761Y-112557142D01*
X117357142Y-112461904D01*
X117309523Y-112271428D01*
X117309523Y-112033333D01*
X117357142Y-111842857D01*
X117404761Y-111747619D01*
X117452380Y-111700000D01*
X117547619Y-111652380D01*
X118499999Y-111652380D02*
X118595238Y-111652380D01*
X118690476Y-111700000D01*
X118738095Y-111747619D01*
X118785714Y-111842857D01*
X118833333Y-112033333D01*
X118833333Y-112271428D01*
X118785714Y-112461904D01*
X118738095Y-112557142D01*
X118690476Y-112604761D01*
X118595238Y-112652380D01*
X118499999Y-112652380D01*
X118404761Y-112604761D01*
X118357142Y-112557142D01*
X118309523Y-112461904D01*
X118261904Y-112271428D01*
X118261904Y-112033333D01*
X118309523Y-111842857D01*
X118357142Y-111747619D01*
X118404761Y-111700000D01*
X118499999Y-111652380D01*
X119785714Y-112652380D02*
X119214285Y-112652380D01*
X119499999Y-112652380D02*
X119499999Y-111652380D01*
X119404761Y-111795238D01*
X119309523Y-111890476D01*
X119214285Y-111938095D01*
X120404761Y-111652380D02*
X120499999Y-111652380D01*
X120595238Y-111700000D01*
X120642857Y-111747619D01*
X120690476Y-111842857D01*
X120738095Y-112033333D01*
X120738095Y-112271428D01*
X120690476Y-112461904D01*
X120642857Y-112557142D01*
X120595238Y-112604761D01*
X120499999Y-112652380D01*
X120404761Y-112652380D01*
X120309523Y-112604761D01*
X120261904Y-112557142D01*
X120214285Y-112461904D01*
X120166666Y-112271428D01*
X120166666Y-112033333D01*
X120214285Y-111842857D01*
X120261904Y-111747619D01*
X120309523Y-111700000D01*
X120404761Y-111652380D01*
X112638095Y-113552380D02*
X112638095Y-114361904D01*
X112685714Y-114457142D01*
X112733333Y-114504761D01*
X112828571Y-114552380D01*
X113019047Y-114552380D01*
X113114285Y-114504761D01*
X113161904Y-114457142D01*
X113209523Y-114361904D01*
X113209523Y-113552380D01*
X113590476Y-113552380D02*
X114209523Y-113552380D01*
X113876190Y-113933333D01*
X114019047Y-113933333D01*
X114114285Y-113980952D01*
X114161904Y-114028571D01*
X114209523Y-114123809D01*
X114209523Y-114361904D01*
X114161904Y-114457142D01*
X114114285Y-114504761D01*
X114019047Y-114552380D01*
X113733333Y-114552380D01*
X113638095Y-114504761D01*
X113590476Y-114457142D01*
%TO.C,J5*%
X131457142Y-56022380D02*
X131457142Y-55022380D01*
X131838095Y-55022380D01*
X131933333Y-55070000D01*
X131980952Y-55117619D01*
X132028571Y-55212857D01*
X132028571Y-55355714D01*
X131980952Y-55450952D01*
X131933333Y-55498571D01*
X131838095Y-55546190D01*
X131457142Y-55546190D01*
X132457142Y-56022380D02*
X132457142Y-55355714D01*
X132457142Y-55022380D02*
X132409523Y-55070000D01*
X132457142Y-55117619D01*
X132504761Y-55070000D01*
X132457142Y-55022380D01*
X132457142Y-55117619D01*
X132933333Y-55355714D02*
X132933333Y-56022380D01*
X132933333Y-55450952D02*
X132980952Y-55403333D01*
X133076190Y-55355714D01*
X133219047Y-55355714D01*
X133314285Y-55403333D01*
X133361904Y-55498571D01*
X133361904Y-56022380D01*
X133838095Y-56022380D02*
X133838095Y-55022380D01*
X133838095Y-55498571D02*
X134409523Y-55498571D01*
X134409523Y-56022380D02*
X134409523Y-55022380D01*
X135266666Y-55974761D02*
X135171428Y-56022380D01*
X134980952Y-56022380D01*
X134885714Y-55974761D01*
X134838095Y-55879523D01*
X134838095Y-55498571D01*
X134885714Y-55403333D01*
X134980952Y-55355714D01*
X135171428Y-55355714D01*
X135266666Y-55403333D01*
X135314285Y-55498571D01*
X135314285Y-55593809D01*
X134838095Y-55689047D01*
X136171428Y-56022380D02*
X136171428Y-55498571D01*
X136123809Y-55403333D01*
X136028571Y-55355714D01*
X135838095Y-55355714D01*
X135742857Y-55403333D01*
X136171428Y-55974761D02*
X136076190Y-56022380D01*
X135838095Y-56022380D01*
X135742857Y-55974761D01*
X135695238Y-55879523D01*
X135695238Y-55784285D01*
X135742857Y-55689047D01*
X135838095Y-55641428D01*
X136076190Y-55641428D01*
X136171428Y-55593809D01*
X137076190Y-56022380D02*
X137076190Y-55022380D01*
X137076190Y-55974761D02*
X136980952Y-56022380D01*
X136790476Y-56022380D01*
X136695238Y-55974761D01*
X136647619Y-55927142D01*
X136600000Y-55831904D01*
X136600000Y-55546190D01*
X136647619Y-55450952D01*
X136695238Y-55403333D01*
X136790476Y-55355714D01*
X136980952Y-55355714D01*
X137076190Y-55403333D01*
X137933333Y-55974761D02*
X137838095Y-56022380D01*
X137647619Y-56022380D01*
X137552380Y-55974761D01*
X137504761Y-55879523D01*
X137504761Y-55498571D01*
X137552380Y-55403333D01*
X137647619Y-55355714D01*
X137838095Y-55355714D01*
X137933333Y-55403333D01*
X137980952Y-55498571D01*
X137980952Y-55593809D01*
X137504761Y-55689047D01*
X138409523Y-56022380D02*
X138409523Y-55355714D01*
X138409523Y-55546190D02*
X138457142Y-55450952D01*
X138504761Y-55403333D01*
X138600000Y-55355714D01*
X138695238Y-55355714D01*
X138790476Y-56117619D02*
X139552380Y-56117619D01*
X140314285Y-56022380D02*
X139742857Y-56022380D01*
X140028571Y-56022380D02*
X140028571Y-55022380D01*
X139933333Y-55165238D01*
X139838095Y-55260476D01*
X139742857Y-55308095D01*
X140647619Y-56022380D02*
X141171428Y-55355714D01*
X140647619Y-55355714D02*
X141171428Y-56022380D01*
X141742857Y-55022380D02*
X141838095Y-55022380D01*
X141933333Y-55070000D01*
X141980952Y-55117619D01*
X142028571Y-55212857D01*
X142076190Y-55403333D01*
X142076190Y-55641428D01*
X142028571Y-55831904D01*
X141980952Y-55927142D01*
X141933333Y-55974761D01*
X141838095Y-56022380D01*
X141742857Y-56022380D01*
X141647619Y-55974761D01*
X141600000Y-55927142D01*
X141552380Y-55831904D01*
X141504761Y-55641428D01*
X141504761Y-55403333D01*
X141552380Y-55212857D01*
X141600000Y-55117619D01*
X141647619Y-55070000D01*
X141742857Y-55022380D01*
X142457142Y-55117619D02*
X142504761Y-55070000D01*
X142600000Y-55022380D01*
X142838095Y-55022380D01*
X142933333Y-55070000D01*
X142980952Y-55117619D01*
X143028571Y-55212857D01*
X143028571Y-55308095D01*
X142980952Y-55450952D01*
X142409523Y-56022380D01*
X143028571Y-56022380D01*
X143219047Y-56117619D02*
X143980952Y-56117619D01*
X144219047Y-56022380D02*
X144219047Y-55022380D01*
X144600000Y-55022380D01*
X144695238Y-55070000D01*
X144742857Y-55117619D01*
X144790476Y-55212857D01*
X144790476Y-55355714D01*
X144742857Y-55450952D01*
X144695238Y-55498571D01*
X144600000Y-55546190D01*
X144219047Y-55546190D01*
X145171428Y-55117619D02*
X145219047Y-55070000D01*
X145314285Y-55022380D01*
X145552380Y-55022380D01*
X145647619Y-55070000D01*
X145695238Y-55117619D01*
X145742857Y-55212857D01*
X145742857Y-55308095D01*
X145695238Y-55450952D01*
X145123809Y-56022380D01*
X145742857Y-56022380D01*
X146171428Y-55927142D02*
X146219047Y-55974761D01*
X146171428Y-56022380D01*
X146123809Y-55974761D01*
X146171428Y-55927142D01*
X146171428Y-56022380D01*
X147123809Y-55022380D02*
X146647619Y-55022380D01*
X146600000Y-55498571D01*
X146647619Y-55450952D01*
X146742857Y-55403333D01*
X146980952Y-55403333D01*
X147076190Y-55450952D01*
X147123809Y-55498571D01*
X147171428Y-55593809D01*
X147171428Y-55831904D01*
X147123809Y-55927142D01*
X147076190Y-55974761D01*
X146980952Y-56022380D01*
X146742857Y-56022380D01*
X146647619Y-55974761D01*
X146600000Y-55927142D01*
X148028571Y-55355714D02*
X148028571Y-56022380D01*
X147790476Y-54974761D02*
X147552380Y-55689047D01*
X148171428Y-55689047D01*
X148552380Y-56022380D02*
X148552380Y-55355714D01*
X148552380Y-55450952D02*
X148600000Y-55403333D01*
X148695238Y-55355714D01*
X148838095Y-55355714D01*
X148933333Y-55403333D01*
X148980952Y-55498571D01*
X148980952Y-56022380D01*
X148980952Y-55498571D02*
X149028571Y-55403333D01*
X149123809Y-55355714D01*
X149266666Y-55355714D01*
X149361904Y-55403333D01*
X149409523Y-55498571D01*
X149409523Y-56022380D01*
X149885714Y-56022380D02*
X149885714Y-55355714D01*
X149885714Y-55450952D02*
X149933333Y-55403333D01*
X150028571Y-55355714D01*
X150171428Y-55355714D01*
X150266666Y-55403333D01*
X150314285Y-55498571D01*
X150314285Y-56022380D01*
X150314285Y-55498571D02*
X150361904Y-55403333D01*
X150457142Y-55355714D01*
X150600000Y-55355714D01*
X150695238Y-55403333D01*
X150742857Y-55498571D01*
X150742857Y-56022380D01*
X140552380Y-52303333D02*
X141266666Y-52303333D01*
X141409523Y-52350952D01*
X141504761Y-52446190D01*
X141552380Y-52589047D01*
X141552380Y-52684285D01*
X140552380Y-51350952D02*
X140552380Y-51827142D01*
X141028571Y-51874761D01*
X140980952Y-51827142D01*
X140933333Y-51731904D01*
X140933333Y-51493809D01*
X140980952Y-51398571D01*
X141028571Y-51350952D01*
X141123809Y-51303333D01*
X141361904Y-51303333D01*
X141457142Y-51350952D01*
X141504761Y-51398571D01*
X141552380Y-51493809D01*
X141552380Y-51731904D01*
X141504761Y-51827142D01*
X141457142Y-51874761D01*
%TO.C,J1*%
D15*
X53947857Y-120917380D02*
X53947857Y-119917380D01*
X54281190Y-120631666D01*
X54614523Y-119917380D01*
X54614523Y-120917380D01*
X55090714Y-120917380D02*
X55090714Y-119917380D01*
X55662142Y-120917380D02*
X55233571Y-120345952D01*
X55662142Y-119917380D02*
X55090714Y-120488809D01*
X56090714Y-120917380D02*
X56090714Y-119917380D01*
X56328809Y-119917380D01*
X56471666Y-119965000D01*
X56566904Y-120060238D01*
X56614523Y-120155476D01*
X56662142Y-120345952D01*
X56662142Y-120488809D01*
X56614523Y-120679285D01*
X56566904Y-120774523D01*
X56471666Y-120869761D01*
X56328809Y-120917380D01*
X56090714Y-120917380D01*
X57043095Y-120869761D02*
X57185952Y-120917380D01*
X57424047Y-120917380D01*
X57519285Y-120869761D01*
X57566904Y-120822142D01*
X57614523Y-120726904D01*
X57614523Y-120631666D01*
X57566904Y-120536428D01*
X57519285Y-120488809D01*
X57424047Y-120441190D01*
X57233571Y-120393571D01*
X57138333Y-120345952D01*
X57090714Y-120298333D01*
X57043095Y-120203095D01*
X57043095Y-120107857D01*
X57090714Y-120012619D01*
X57138333Y-119965000D01*
X57233571Y-119917380D01*
X57471666Y-119917380D01*
X57614523Y-119965000D01*
X58043095Y-120917380D02*
X58043095Y-119917380D01*
X58614523Y-120917380D01*
X58614523Y-119917380D01*
X59043095Y-120012619D02*
X59090714Y-119965000D01*
X59185952Y-119917380D01*
X59424047Y-119917380D01*
X59519285Y-119965000D01*
X59566904Y-120012619D01*
X59614523Y-120107857D01*
X59614523Y-120203095D01*
X59566904Y-120345952D01*
X58995476Y-120917380D01*
X59614523Y-120917380D01*
X60090714Y-120869761D02*
X60090714Y-120917380D01*
X60043095Y-121012619D01*
X59995476Y-121060238D01*
X60995476Y-119917380D02*
X60519285Y-119917380D01*
X60471666Y-120393571D01*
X60519285Y-120345952D01*
X60614523Y-120298333D01*
X60852619Y-120298333D01*
X60947857Y-120345952D01*
X60995476Y-120393571D01*
X61043095Y-120488809D01*
X61043095Y-120726904D01*
X60995476Y-120822142D01*
X60947857Y-120869761D01*
X60852619Y-120917380D01*
X60614523Y-120917380D01*
X60519285Y-120869761D01*
X60471666Y-120822142D01*
X61471666Y-120536428D02*
X62233571Y-120536428D01*
X62614523Y-119917380D02*
X63233571Y-119917380D01*
X62900238Y-120298333D01*
X63043095Y-120298333D01*
X63138333Y-120345952D01*
X63185952Y-120393571D01*
X63233571Y-120488809D01*
X63233571Y-120726904D01*
X63185952Y-120822142D01*
X63138333Y-120869761D01*
X63043095Y-120917380D01*
X62757380Y-120917380D01*
X62662142Y-120869761D01*
X62614523Y-120822142D01*
X63662142Y-120536428D02*
X64424047Y-120536428D01*
X65376428Y-119917380D02*
X64900238Y-119917380D01*
X64852619Y-120393571D01*
X64900238Y-120345952D01*
X64995476Y-120298333D01*
X65233571Y-120298333D01*
X65328809Y-120345952D01*
X65376428Y-120393571D01*
X65424047Y-120488809D01*
X65424047Y-120726904D01*
X65376428Y-120822142D01*
X65328809Y-120869761D01*
X65233571Y-120917380D01*
X64995476Y-120917380D01*
X64900238Y-120869761D01*
X64852619Y-120822142D01*
X65900238Y-120869761D02*
X65900238Y-120917380D01*
X65852619Y-121012619D01*
X65805000Y-121060238D01*
X66519285Y-119917380D02*
X66614523Y-119917380D01*
X66709761Y-119965000D01*
X66757380Y-120012619D01*
X66805000Y-120107857D01*
X66852619Y-120298333D01*
X66852619Y-120536428D01*
X66805000Y-120726904D01*
X66757380Y-120822142D01*
X66709761Y-120869761D01*
X66614523Y-120917380D01*
X66519285Y-120917380D01*
X66424047Y-120869761D01*
X66376428Y-120822142D01*
X66328809Y-120726904D01*
X66281190Y-120536428D01*
X66281190Y-120298333D01*
X66328809Y-120107857D01*
X66376428Y-120012619D01*
X66424047Y-119965000D01*
X66519285Y-119917380D01*
X67424047Y-120345952D02*
X67328809Y-120298333D01*
X67281190Y-120250714D01*
X67233571Y-120155476D01*
X67233571Y-120107857D01*
X67281190Y-120012619D01*
X67328809Y-119965000D01*
X67424047Y-119917380D01*
X67614523Y-119917380D01*
X67709761Y-119965000D01*
X67757380Y-120012619D01*
X67805000Y-120107857D01*
X67805000Y-120155476D01*
X67757380Y-120250714D01*
X67709761Y-120298333D01*
X67614523Y-120345952D01*
X67424047Y-120345952D01*
X67328809Y-120393571D01*
X67281190Y-120441190D01*
X67233571Y-120536428D01*
X67233571Y-120726904D01*
X67281190Y-120822142D01*
X67328809Y-120869761D01*
X67424047Y-120917380D01*
X67614523Y-120917380D01*
X67709761Y-120869761D01*
X67757380Y-120822142D01*
X67805000Y-120726904D01*
X67805000Y-120536428D01*
X67757380Y-120441190D01*
X67709761Y-120393571D01*
X67614523Y-120345952D01*
X68233571Y-120536428D02*
X68995476Y-120536428D01*
X69995476Y-120917380D02*
X69424047Y-120917380D01*
X69709761Y-120917380D02*
X69709761Y-119917380D01*
X69614523Y-120060238D01*
X69519285Y-120155476D01*
X69424047Y-120203095D01*
X70566904Y-120345952D02*
X70471666Y-120298333D01*
X70424047Y-120250714D01*
X70376428Y-120155476D01*
X70376428Y-120107857D01*
X70424047Y-120012619D01*
X70471666Y-119965000D01*
X70566904Y-119917380D01*
X70757380Y-119917380D01*
X70852619Y-119965000D01*
X70900238Y-120012619D01*
X70947857Y-120107857D01*
X70947857Y-120155476D01*
X70900238Y-120250714D01*
X70852619Y-120298333D01*
X70757380Y-120345952D01*
X70566904Y-120345952D01*
X70471666Y-120393571D01*
X70424047Y-120441190D01*
X70376428Y-120536428D01*
X70376428Y-120726904D01*
X70424047Y-120822142D01*
X70471666Y-120869761D01*
X70566904Y-120917380D01*
X70757380Y-120917380D01*
X70852619Y-120869761D01*
X70900238Y-120822142D01*
X70947857Y-120726904D01*
X70947857Y-120536428D01*
X70900238Y-120441190D01*
X70852619Y-120393571D01*
X70757380Y-120345952D01*
X71519285Y-120345952D02*
X71424047Y-120298333D01*
X71376428Y-120250714D01*
X71328809Y-120155476D01*
X71328809Y-120107857D01*
X71376428Y-120012619D01*
X71424047Y-119965000D01*
X71519285Y-119917380D01*
X71709761Y-119917380D01*
X71805000Y-119965000D01*
X71852619Y-120012619D01*
X71900238Y-120107857D01*
X71900238Y-120155476D01*
X71852619Y-120250714D01*
X71805000Y-120298333D01*
X71709761Y-120345952D01*
X71519285Y-120345952D01*
X71424047Y-120393571D01*
X71376428Y-120441190D01*
X71328809Y-120536428D01*
X71328809Y-120726904D01*
X71376428Y-120822142D01*
X71424047Y-120869761D01*
X71519285Y-120917380D01*
X71709761Y-120917380D01*
X71805000Y-120869761D01*
X71852619Y-120822142D01*
X71900238Y-120726904D01*
X71900238Y-120536428D01*
X71852619Y-120441190D01*
X71805000Y-120393571D01*
X71709761Y-120345952D01*
X72471666Y-120345952D02*
X72376428Y-120298333D01*
X72328809Y-120250714D01*
X72281190Y-120155476D01*
X72281190Y-120107857D01*
X72328809Y-120012619D01*
X72376428Y-119965000D01*
X72471666Y-119917380D01*
X72662142Y-119917380D01*
X72757380Y-119965000D01*
X72805000Y-120012619D01*
X72852619Y-120107857D01*
X72852619Y-120155476D01*
X72805000Y-120250714D01*
X72757380Y-120298333D01*
X72662142Y-120345952D01*
X72471666Y-120345952D01*
X72376428Y-120393571D01*
X72328809Y-120441190D01*
X72281190Y-120536428D01*
X72281190Y-120726904D01*
X72328809Y-120822142D01*
X72376428Y-120869761D01*
X72471666Y-120917380D01*
X72662142Y-120917380D01*
X72757380Y-120869761D01*
X72805000Y-120822142D01*
X72852619Y-120726904D01*
X72852619Y-120536428D01*
X72805000Y-120441190D01*
X72757380Y-120393571D01*
X72662142Y-120345952D01*
X73709761Y-119917380D02*
X73519285Y-119917380D01*
X73424047Y-119965000D01*
X73376428Y-120012619D01*
X73281190Y-120155476D01*
X73233571Y-120345952D01*
X73233571Y-120726904D01*
X73281190Y-120822142D01*
X73328809Y-120869761D01*
X73424047Y-120917380D01*
X73614523Y-120917380D01*
X73709761Y-120869761D01*
X73757380Y-120822142D01*
X73805000Y-120726904D01*
X73805000Y-120488809D01*
X73757380Y-120393571D01*
X73709761Y-120345952D01*
X73614523Y-120298333D01*
X73424047Y-120298333D01*
X73328809Y-120345952D01*
X73281190Y-120393571D01*
X73233571Y-120488809D01*
X74281190Y-120917380D02*
X74471666Y-120917380D01*
X74566904Y-120869761D01*
X74614523Y-120822142D01*
X74709761Y-120679285D01*
X74757380Y-120488809D01*
X74757380Y-120107857D01*
X74709761Y-120012619D01*
X74662142Y-119965000D01*
X74566904Y-119917380D01*
X74376428Y-119917380D01*
X74281190Y-119965000D01*
X74233571Y-120012619D01*
X74185952Y-120107857D01*
X74185952Y-120345952D01*
X74233571Y-120441190D01*
X74281190Y-120488809D01*
X74376428Y-120536428D01*
X74566904Y-120536428D01*
X74662142Y-120488809D01*
X74709761Y-120441190D01*
X74757380Y-120345952D01*
X75376428Y-119917380D02*
X75471666Y-119917380D01*
X75566904Y-119965000D01*
X75614523Y-120012619D01*
X75662142Y-120107857D01*
X75709761Y-120298333D01*
X75709761Y-120536428D01*
X75662142Y-120726904D01*
X75614523Y-120822142D01*
X75566904Y-120869761D01*
X75471666Y-120917380D01*
X75376428Y-120917380D01*
X75281190Y-120869761D01*
X75233571Y-120822142D01*
X75185952Y-120726904D01*
X75138333Y-120536428D01*
X75138333Y-120298333D01*
X75185952Y-120107857D01*
X75233571Y-120012619D01*
X75281190Y-119965000D01*
X75376428Y-119917380D01*
%TO.C,TR1*%
D13*
X56828571Y-70180952D02*
X56876190Y-70038095D01*
X56923809Y-69990476D01*
X57019047Y-69942857D01*
X57161904Y-69942857D01*
X57257142Y-69990476D01*
X57304761Y-70038095D01*
X57352380Y-70133333D01*
X57352380Y-70514285D01*
X56352380Y-70514285D01*
X56352380Y-70180952D01*
X56400000Y-70085714D01*
X56447619Y-70038095D01*
X56542857Y-69990476D01*
X56638095Y-69990476D01*
X56733333Y-70038095D01*
X56780952Y-70085714D01*
X56828571Y-70180952D01*
X56828571Y-70514285D01*
X56352380Y-69657142D02*
X57352380Y-69323809D01*
X56352380Y-68990476D01*
X56828571Y-68657142D02*
X56828571Y-68323809D01*
X57352380Y-68180952D02*
X57352380Y-68657142D01*
X56352380Y-68657142D01*
X56352380Y-68180952D01*
X57352380Y-67752380D02*
X56352380Y-67752380D01*
X56352380Y-67371428D02*
X56352380Y-66752380D01*
X56733333Y-67085714D01*
X56733333Y-66942857D01*
X56780952Y-66847619D01*
X56828571Y-66800000D01*
X56923809Y-66752380D01*
X57161904Y-66752380D01*
X57257142Y-66800000D01*
X57304761Y-66847619D01*
X57352380Y-66942857D01*
X57352380Y-67228571D01*
X57304761Y-67323809D01*
X57257142Y-67371428D01*
X56352380Y-66133333D02*
X56352380Y-66038095D01*
X56400000Y-65942857D01*
X56447619Y-65895238D01*
X56542857Y-65847619D01*
X56733333Y-65800000D01*
X56971428Y-65800000D01*
X57161904Y-65847619D01*
X57257142Y-65895238D01*
X57304761Y-65942857D01*
X57352380Y-66038095D01*
X57352380Y-66133333D01*
X57304761Y-66228571D01*
X57257142Y-66276190D01*
X57161904Y-66323809D01*
X56971428Y-66371428D01*
X56733333Y-66371428D01*
X56542857Y-66323809D01*
X56447619Y-66276190D01*
X56400000Y-66228571D01*
X56352380Y-66133333D01*
X56352380Y-65466666D02*
X56352380Y-64800000D01*
X57352380Y-65228571D01*
X56352380Y-64514285D02*
X56352380Y-63895238D01*
X56733333Y-64228571D01*
X56733333Y-64085714D01*
X56780952Y-63990476D01*
X56828571Y-63942857D01*
X56923809Y-63895238D01*
X57161904Y-63895238D01*
X57257142Y-63942857D01*
X57304761Y-63990476D01*
X57352380Y-64085714D01*
X57352380Y-64371428D01*
X57304761Y-64466666D01*
X57257142Y-64514285D01*
X56780952Y-63323809D02*
X56733333Y-63419047D01*
X56685714Y-63466666D01*
X56590476Y-63514285D01*
X56542857Y-63514285D01*
X56447619Y-63466666D01*
X56400000Y-63419047D01*
X56352380Y-63323809D01*
X56352380Y-63133333D01*
X56400000Y-63038095D01*
X56447619Y-62990476D01*
X56542857Y-62942857D01*
X56590476Y-62942857D01*
X56685714Y-62990476D01*
X56733333Y-63038095D01*
X56780952Y-63133333D01*
X56780952Y-63323809D01*
X56828571Y-63419047D01*
X56876190Y-63466666D01*
X56971428Y-63514285D01*
X57161904Y-63514285D01*
X57257142Y-63466666D01*
X57304761Y-63419047D01*
X57352380Y-63323809D01*
X57352380Y-63133333D01*
X57304761Y-63038095D01*
X57257142Y-62990476D01*
X57161904Y-62942857D01*
X56971428Y-62942857D01*
X56876190Y-62990476D01*
X56828571Y-63038095D01*
X56780952Y-63133333D01*
X56352380Y-62323809D02*
X56352380Y-62228571D01*
X56400000Y-62133333D01*
X56447619Y-62085714D01*
X56542857Y-62038095D01*
X56733333Y-61990476D01*
X56971428Y-61990476D01*
X57161904Y-62038095D01*
X57257142Y-62085714D01*
X57304761Y-62133333D01*
X57352380Y-62228571D01*
X57352380Y-62323809D01*
X57304761Y-62419047D01*
X57257142Y-62466666D01*
X57161904Y-62514285D01*
X56971428Y-62561904D01*
X56733333Y-62561904D01*
X56542857Y-62514285D01*
X56447619Y-62466666D01*
X56400000Y-62419047D01*
X56352380Y-62323809D01*
X57352380Y-61038095D02*
X57352380Y-61609523D01*
X57352380Y-61323809D02*
X56352380Y-61323809D01*
X56495238Y-61419047D01*
X56590476Y-61514285D01*
X56638095Y-61609523D01*
X57852380Y-67061904D02*
X57852380Y-66490476D01*
X58852380Y-66776190D02*
X57852380Y-66776190D01*
X58852380Y-65585714D02*
X58376190Y-65919047D01*
X58852380Y-66157142D02*
X57852380Y-66157142D01*
X57852380Y-65776190D01*
X57900000Y-65680952D01*
X57947619Y-65633333D01*
X58042857Y-65585714D01*
X58185714Y-65585714D01*
X58280952Y-65633333D01*
X58328571Y-65680952D01*
X58376190Y-65776190D01*
X58376190Y-66157142D01*
X58852380Y-64633333D02*
X58852380Y-65204761D01*
X58852380Y-64919047D02*
X57852380Y-64919047D01*
X57995238Y-65014285D01*
X58090476Y-65109523D01*
X58138095Y-65204761D01*
%TO.C,J2*%
X89657142Y-117192380D02*
X89657142Y-116192380D01*
X90038095Y-116192380D01*
X90133333Y-116240000D01*
X90180952Y-116287619D01*
X90228571Y-116382857D01*
X90228571Y-116525714D01*
X90180952Y-116620952D01*
X90133333Y-116668571D01*
X90038095Y-116716190D01*
X89657142Y-116716190D01*
X90657142Y-117192380D02*
X90657142Y-116525714D01*
X90657142Y-116192380D02*
X90609523Y-116240000D01*
X90657142Y-116287619D01*
X90704761Y-116240000D01*
X90657142Y-116192380D01*
X90657142Y-116287619D01*
X91133333Y-116525714D02*
X91133333Y-117192380D01*
X91133333Y-116620952D02*
X91180952Y-116573333D01*
X91276190Y-116525714D01*
X91419047Y-116525714D01*
X91514285Y-116573333D01*
X91561904Y-116668571D01*
X91561904Y-117192380D01*
X92038095Y-117192380D02*
X92038095Y-116192380D01*
X92038095Y-116668571D02*
X92609523Y-116668571D01*
X92609523Y-117192380D02*
X92609523Y-116192380D01*
X93466666Y-117144761D02*
X93371428Y-117192380D01*
X93180952Y-117192380D01*
X93085714Y-117144761D01*
X93038095Y-117049523D01*
X93038095Y-116668571D01*
X93085714Y-116573333D01*
X93180952Y-116525714D01*
X93371428Y-116525714D01*
X93466666Y-116573333D01*
X93514285Y-116668571D01*
X93514285Y-116763809D01*
X93038095Y-116859047D01*
X94371428Y-117192380D02*
X94371428Y-116668571D01*
X94323809Y-116573333D01*
X94228571Y-116525714D01*
X94038095Y-116525714D01*
X93942857Y-116573333D01*
X94371428Y-117144761D02*
X94276190Y-117192380D01*
X94038095Y-117192380D01*
X93942857Y-117144761D01*
X93895238Y-117049523D01*
X93895238Y-116954285D01*
X93942857Y-116859047D01*
X94038095Y-116811428D01*
X94276190Y-116811428D01*
X94371428Y-116763809D01*
X95276190Y-117192380D02*
X95276190Y-116192380D01*
X95276190Y-117144761D02*
X95180952Y-117192380D01*
X94990476Y-117192380D01*
X94895238Y-117144761D01*
X94847619Y-117097142D01*
X94800000Y-117001904D01*
X94800000Y-116716190D01*
X94847619Y-116620952D01*
X94895238Y-116573333D01*
X94990476Y-116525714D01*
X95180952Y-116525714D01*
X95276190Y-116573333D01*
X96133333Y-117144761D02*
X96038095Y-117192380D01*
X95847619Y-117192380D01*
X95752380Y-117144761D01*
X95704761Y-117049523D01*
X95704761Y-116668571D01*
X95752380Y-116573333D01*
X95847619Y-116525714D01*
X96038095Y-116525714D01*
X96133333Y-116573333D01*
X96180952Y-116668571D01*
X96180952Y-116763809D01*
X95704761Y-116859047D01*
X96609523Y-117192380D02*
X96609523Y-116525714D01*
X96609523Y-116716190D02*
X96657142Y-116620952D01*
X96704761Y-116573333D01*
X96800000Y-116525714D01*
X96895238Y-116525714D01*
X96990476Y-117287619D02*
X97752380Y-117287619D01*
X98514285Y-117192380D02*
X97942857Y-117192380D01*
X98228571Y-117192380D02*
X98228571Y-116192380D01*
X98133333Y-116335238D01*
X98038095Y-116430476D01*
X97942857Y-116478095D01*
X98847619Y-117192380D02*
X99371428Y-116525714D01*
X98847619Y-116525714D02*
X99371428Y-117192380D01*
X99942857Y-116192380D02*
X100038095Y-116192380D01*
X100133333Y-116240000D01*
X100180952Y-116287619D01*
X100228571Y-116382857D01*
X100276190Y-116573333D01*
X100276190Y-116811428D01*
X100228571Y-117001904D01*
X100180952Y-117097142D01*
X100133333Y-117144761D01*
X100038095Y-117192380D01*
X99942857Y-117192380D01*
X99847619Y-117144761D01*
X99800000Y-117097142D01*
X99752380Y-117001904D01*
X99704761Y-116811428D01*
X99704761Y-116573333D01*
X99752380Y-116382857D01*
X99800000Y-116287619D01*
X99847619Y-116240000D01*
X99942857Y-116192380D01*
X101133333Y-116192380D02*
X100942857Y-116192380D01*
X100847619Y-116240000D01*
X100800000Y-116287619D01*
X100704761Y-116430476D01*
X100657142Y-116620952D01*
X100657142Y-117001904D01*
X100704761Y-117097142D01*
X100752380Y-117144761D01*
X100847619Y-117192380D01*
X101038095Y-117192380D01*
X101133333Y-117144761D01*
X101180952Y-117097142D01*
X101228571Y-117001904D01*
X101228571Y-116763809D01*
X101180952Y-116668571D01*
X101133333Y-116620952D01*
X101038095Y-116573333D01*
X100847619Y-116573333D01*
X100752380Y-116620952D01*
X100704761Y-116668571D01*
X100657142Y-116763809D01*
X101419047Y-117287619D02*
X102180952Y-117287619D01*
X102419047Y-117192380D02*
X102419047Y-116192380D01*
X102800000Y-116192380D01*
X102895238Y-116240000D01*
X102942857Y-116287619D01*
X102990476Y-116382857D01*
X102990476Y-116525714D01*
X102942857Y-116620952D01*
X102895238Y-116668571D01*
X102800000Y-116716190D01*
X102419047Y-116716190D01*
X103371428Y-116287619D02*
X103419047Y-116240000D01*
X103514285Y-116192380D01*
X103752380Y-116192380D01*
X103847619Y-116240000D01*
X103895238Y-116287619D01*
X103942857Y-116382857D01*
X103942857Y-116478095D01*
X103895238Y-116620952D01*
X103323809Y-117192380D01*
X103942857Y-117192380D01*
X104371428Y-117097142D02*
X104419047Y-117144761D01*
X104371428Y-117192380D01*
X104323809Y-117144761D01*
X104371428Y-117097142D01*
X104371428Y-117192380D01*
X105323809Y-116192380D02*
X104847619Y-116192380D01*
X104800000Y-116668571D01*
X104847619Y-116620952D01*
X104942857Y-116573333D01*
X105180952Y-116573333D01*
X105276190Y-116620952D01*
X105323809Y-116668571D01*
X105371428Y-116763809D01*
X105371428Y-117001904D01*
X105323809Y-117097142D01*
X105276190Y-117144761D01*
X105180952Y-117192380D01*
X104942857Y-117192380D01*
X104847619Y-117144761D01*
X104800000Y-117097142D01*
X106228571Y-116525714D02*
X106228571Y-117192380D01*
X105990476Y-116144761D02*
X105752380Y-116859047D01*
X106371428Y-116859047D01*
X106752380Y-117192380D02*
X106752380Y-116525714D01*
X106752380Y-116620952D02*
X106800000Y-116573333D01*
X106895238Y-116525714D01*
X107038095Y-116525714D01*
X107133333Y-116573333D01*
X107180952Y-116668571D01*
X107180952Y-117192380D01*
X107180952Y-116668571D02*
X107228571Y-116573333D01*
X107323809Y-116525714D01*
X107466666Y-116525714D01*
X107561904Y-116573333D01*
X107609523Y-116668571D01*
X107609523Y-117192380D01*
X108085714Y-117192380D02*
X108085714Y-116525714D01*
X108085714Y-116620952D02*
X108133333Y-116573333D01*
X108228571Y-116525714D01*
X108371428Y-116525714D01*
X108466666Y-116573333D01*
X108514285Y-116668571D01*
X108514285Y-117192380D01*
X108514285Y-116668571D02*
X108561904Y-116573333D01*
X108657142Y-116525714D01*
X108800000Y-116525714D01*
X108895238Y-116573333D01*
X108942857Y-116668571D01*
X108942857Y-117192380D01*
X98752380Y-108393333D02*
X99466666Y-108393333D01*
X99609523Y-108440952D01*
X99704761Y-108536190D01*
X99752380Y-108679047D01*
X99752380Y-108774285D01*
X98847619Y-107964761D02*
X98800000Y-107917142D01*
X98752380Y-107821904D01*
X98752380Y-107583809D01*
X98800000Y-107488571D01*
X98847619Y-107440952D01*
X98942857Y-107393333D01*
X99038095Y-107393333D01*
X99180952Y-107440952D01*
X99752380Y-108012380D01*
X99752380Y-107393333D01*
%TO.C,J3*%
X96657142Y-103982380D02*
X96657142Y-102982380D01*
X97038095Y-102982380D01*
X97133333Y-103030000D01*
X97180952Y-103077619D01*
X97228571Y-103172857D01*
X97228571Y-103315714D01*
X97180952Y-103410952D01*
X97133333Y-103458571D01*
X97038095Y-103506190D01*
X96657142Y-103506190D01*
X97657142Y-103982380D02*
X97657142Y-103315714D01*
X97657142Y-102982380D02*
X97609523Y-103030000D01*
X97657142Y-103077619D01*
X97704761Y-103030000D01*
X97657142Y-102982380D01*
X97657142Y-103077619D01*
X98133333Y-103315714D02*
X98133333Y-103982380D01*
X98133333Y-103410952D02*
X98180952Y-103363333D01*
X98276190Y-103315714D01*
X98419047Y-103315714D01*
X98514285Y-103363333D01*
X98561904Y-103458571D01*
X98561904Y-103982380D01*
X99038095Y-103982380D02*
X99038095Y-102982380D01*
X99038095Y-103458571D02*
X99609523Y-103458571D01*
X99609523Y-103982380D02*
X99609523Y-102982380D01*
X100466666Y-103934761D02*
X100371428Y-103982380D01*
X100180952Y-103982380D01*
X100085714Y-103934761D01*
X100038095Y-103839523D01*
X100038095Y-103458571D01*
X100085714Y-103363333D01*
X100180952Y-103315714D01*
X100371428Y-103315714D01*
X100466666Y-103363333D01*
X100514285Y-103458571D01*
X100514285Y-103553809D01*
X100038095Y-103649047D01*
X101371428Y-103982380D02*
X101371428Y-103458571D01*
X101323809Y-103363333D01*
X101228571Y-103315714D01*
X101038095Y-103315714D01*
X100942857Y-103363333D01*
X101371428Y-103934761D02*
X101276190Y-103982380D01*
X101038095Y-103982380D01*
X100942857Y-103934761D01*
X100895238Y-103839523D01*
X100895238Y-103744285D01*
X100942857Y-103649047D01*
X101038095Y-103601428D01*
X101276190Y-103601428D01*
X101371428Y-103553809D01*
X102276190Y-103982380D02*
X102276190Y-102982380D01*
X102276190Y-103934761D02*
X102180952Y-103982380D01*
X101990476Y-103982380D01*
X101895238Y-103934761D01*
X101847619Y-103887142D01*
X101800000Y-103791904D01*
X101800000Y-103506190D01*
X101847619Y-103410952D01*
X101895238Y-103363333D01*
X101990476Y-103315714D01*
X102180952Y-103315714D01*
X102276190Y-103363333D01*
X103133333Y-103934761D02*
X103038095Y-103982380D01*
X102847619Y-103982380D01*
X102752380Y-103934761D01*
X102704761Y-103839523D01*
X102704761Y-103458571D01*
X102752380Y-103363333D01*
X102847619Y-103315714D01*
X103038095Y-103315714D01*
X103133333Y-103363333D01*
X103180952Y-103458571D01*
X103180952Y-103553809D01*
X102704761Y-103649047D01*
X103609523Y-103982380D02*
X103609523Y-103315714D01*
X103609523Y-103506190D02*
X103657142Y-103410952D01*
X103704761Y-103363333D01*
X103800000Y-103315714D01*
X103895238Y-103315714D01*
X103990476Y-104077619D02*
X104752380Y-104077619D01*
X105514285Y-103982380D02*
X104942857Y-103982380D01*
X105228571Y-103982380D02*
X105228571Y-102982380D01*
X105133333Y-103125238D01*
X105038095Y-103220476D01*
X104942857Y-103268095D01*
X105847619Y-103982380D02*
X106371428Y-103315714D01*
X105847619Y-103315714D02*
X106371428Y-103982380D01*
X106942857Y-102982380D02*
X107038095Y-102982380D01*
X107133333Y-103030000D01*
X107180952Y-103077619D01*
X107228571Y-103172857D01*
X107276190Y-103363333D01*
X107276190Y-103601428D01*
X107228571Y-103791904D01*
X107180952Y-103887142D01*
X107133333Y-103934761D01*
X107038095Y-103982380D01*
X106942857Y-103982380D01*
X106847619Y-103934761D01*
X106800000Y-103887142D01*
X106752380Y-103791904D01*
X106704761Y-103601428D01*
X106704761Y-103363333D01*
X106752380Y-103172857D01*
X106800000Y-103077619D01*
X106847619Y-103030000D01*
X106942857Y-102982380D01*
X108133333Y-102982380D02*
X107942857Y-102982380D01*
X107847619Y-103030000D01*
X107800000Y-103077619D01*
X107704761Y-103220476D01*
X107657142Y-103410952D01*
X107657142Y-103791904D01*
X107704761Y-103887142D01*
X107752380Y-103934761D01*
X107847619Y-103982380D01*
X108038095Y-103982380D01*
X108133333Y-103934761D01*
X108180952Y-103887142D01*
X108228571Y-103791904D01*
X108228571Y-103553809D01*
X108180952Y-103458571D01*
X108133333Y-103410952D01*
X108038095Y-103363333D01*
X107847619Y-103363333D01*
X107752380Y-103410952D01*
X107704761Y-103458571D01*
X107657142Y-103553809D01*
X108419047Y-104077619D02*
X109180952Y-104077619D01*
X109419047Y-103982380D02*
X109419047Y-102982380D01*
X109800000Y-102982380D01*
X109895238Y-103030000D01*
X109942857Y-103077619D01*
X109990476Y-103172857D01*
X109990476Y-103315714D01*
X109942857Y-103410952D01*
X109895238Y-103458571D01*
X109800000Y-103506190D01*
X109419047Y-103506190D01*
X110371428Y-103077619D02*
X110419047Y-103030000D01*
X110514285Y-102982380D01*
X110752380Y-102982380D01*
X110847619Y-103030000D01*
X110895238Y-103077619D01*
X110942857Y-103172857D01*
X110942857Y-103268095D01*
X110895238Y-103410952D01*
X110323809Y-103982380D01*
X110942857Y-103982380D01*
X111371428Y-103887142D02*
X111419047Y-103934761D01*
X111371428Y-103982380D01*
X111323809Y-103934761D01*
X111371428Y-103887142D01*
X111371428Y-103982380D01*
X112323809Y-102982380D02*
X111847619Y-102982380D01*
X111800000Y-103458571D01*
X111847619Y-103410952D01*
X111942857Y-103363333D01*
X112180952Y-103363333D01*
X112276190Y-103410952D01*
X112323809Y-103458571D01*
X112371428Y-103553809D01*
X112371428Y-103791904D01*
X112323809Y-103887142D01*
X112276190Y-103934761D01*
X112180952Y-103982380D01*
X111942857Y-103982380D01*
X111847619Y-103934761D01*
X111800000Y-103887142D01*
X113228571Y-103315714D02*
X113228571Y-103982380D01*
X112990476Y-102934761D02*
X112752380Y-103649047D01*
X113371428Y-103649047D01*
X113752380Y-103982380D02*
X113752380Y-103315714D01*
X113752380Y-103410952D02*
X113800000Y-103363333D01*
X113895238Y-103315714D01*
X114038095Y-103315714D01*
X114133333Y-103363333D01*
X114180952Y-103458571D01*
X114180952Y-103982380D01*
X114180952Y-103458571D02*
X114228571Y-103363333D01*
X114323809Y-103315714D01*
X114466666Y-103315714D01*
X114561904Y-103363333D01*
X114609523Y-103458571D01*
X114609523Y-103982380D01*
X115085714Y-103982380D02*
X115085714Y-103315714D01*
X115085714Y-103410952D02*
X115133333Y-103363333D01*
X115228571Y-103315714D01*
X115371428Y-103315714D01*
X115466666Y-103363333D01*
X115514285Y-103458571D01*
X115514285Y-103982380D01*
X115514285Y-103458571D02*
X115561904Y-103363333D01*
X115657142Y-103315714D01*
X115800000Y-103315714D01*
X115895238Y-103363333D01*
X115942857Y-103458571D01*
X115942857Y-103982380D01*
X105752380Y-95183333D02*
X106466666Y-95183333D01*
X106609523Y-95230952D01*
X106704761Y-95326190D01*
X106752380Y-95469047D01*
X106752380Y-95564285D01*
X105752380Y-94802380D02*
X105752380Y-94183333D01*
X106133333Y-94516666D01*
X106133333Y-94373809D01*
X106180952Y-94278571D01*
X106228571Y-94230952D01*
X106323809Y-94183333D01*
X106561904Y-94183333D01*
X106657142Y-94230952D01*
X106704761Y-94278571D01*
X106752380Y-94373809D01*
X106752380Y-94659523D01*
X106704761Y-94754761D01*
X106657142Y-94802380D01*
%TO.C,J4*%
X136157142Y-105782380D02*
X136157142Y-104782380D01*
X136538095Y-104782380D01*
X136633333Y-104830000D01*
X136680952Y-104877619D01*
X136728571Y-104972857D01*
X136728571Y-105115714D01*
X136680952Y-105210952D01*
X136633333Y-105258571D01*
X136538095Y-105306190D01*
X136157142Y-105306190D01*
X137157142Y-105782380D02*
X137157142Y-105115714D01*
X137157142Y-104782380D02*
X137109523Y-104830000D01*
X137157142Y-104877619D01*
X137204761Y-104830000D01*
X137157142Y-104782380D01*
X137157142Y-104877619D01*
X137633333Y-105115714D02*
X137633333Y-105782380D01*
X137633333Y-105210952D02*
X137680952Y-105163333D01*
X137776190Y-105115714D01*
X137919047Y-105115714D01*
X138014285Y-105163333D01*
X138061904Y-105258571D01*
X138061904Y-105782380D01*
X138538095Y-105782380D02*
X138538095Y-104782380D01*
X138538095Y-105258571D02*
X139109523Y-105258571D01*
X139109523Y-105782380D02*
X139109523Y-104782380D01*
X139966666Y-105734761D02*
X139871428Y-105782380D01*
X139680952Y-105782380D01*
X139585714Y-105734761D01*
X139538095Y-105639523D01*
X139538095Y-105258571D01*
X139585714Y-105163333D01*
X139680952Y-105115714D01*
X139871428Y-105115714D01*
X139966666Y-105163333D01*
X140014285Y-105258571D01*
X140014285Y-105353809D01*
X139538095Y-105449047D01*
X140871428Y-105782380D02*
X140871428Y-105258571D01*
X140823809Y-105163333D01*
X140728571Y-105115714D01*
X140538095Y-105115714D01*
X140442857Y-105163333D01*
X140871428Y-105734761D02*
X140776190Y-105782380D01*
X140538095Y-105782380D01*
X140442857Y-105734761D01*
X140395238Y-105639523D01*
X140395238Y-105544285D01*
X140442857Y-105449047D01*
X140538095Y-105401428D01*
X140776190Y-105401428D01*
X140871428Y-105353809D01*
X141776190Y-105782380D02*
X141776190Y-104782380D01*
X141776190Y-105734761D02*
X141680952Y-105782380D01*
X141490476Y-105782380D01*
X141395238Y-105734761D01*
X141347619Y-105687142D01*
X141300000Y-105591904D01*
X141300000Y-105306190D01*
X141347619Y-105210952D01*
X141395238Y-105163333D01*
X141490476Y-105115714D01*
X141680952Y-105115714D01*
X141776190Y-105163333D01*
X142633333Y-105734761D02*
X142538095Y-105782380D01*
X142347619Y-105782380D01*
X142252380Y-105734761D01*
X142204761Y-105639523D01*
X142204761Y-105258571D01*
X142252380Y-105163333D01*
X142347619Y-105115714D01*
X142538095Y-105115714D01*
X142633333Y-105163333D01*
X142680952Y-105258571D01*
X142680952Y-105353809D01*
X142204761Y-105449047D01*
X143109523Y-105782380D02*
X143109523Y-105115714D01*
X143109523Y-105306190D02*
X143157142Y-105210952D01*
X143204761Y-105163333D01*
X143300000Y-105115714D01*
X143395238Y-105115714D01*
X143490476Y-105877619D02*
X144252380Y-105877619D01*
X145014285Y-105782380D02*
X144442857Y-105782380D01*
X144728571Y-105782380D02*
X144728571Y-104782380D01*
X144633333Y-104925238D01*
X144538095Y-105020476D01*
X144442857Y-105068095D01*
X145347619Y-105782380D02*
X145871428Y-105115714D01*
X145347619Y-105115714D02*
X145871428Y-105782380D01*
X146442857Y-104782380D02*
X146538095Y-104782380D01*
X146633333Y-104830000D01*
X146680952Y-104877619D01*
X146728571Y-104972857D01*
X146776190Y-105163333D01*
X146776190Y-105401428D01*
X146728571Y-105591904D01*
X146680952Y-105687142D01*
X146633333Y-105734761D01*
X146538095Y-105782380D01*
X146442857Y-105782380D01*
X146347619Y-105734761D01*
X146300000Y-105687142D01*
X146252380Y-105591904D01*
X146204761Y-105401428D01*
X146204761Y-105163333D01*
X146252380Y-104972857D01*
X146300000Y-104877619D01*
X146347619Y-104830000D01*
X146442857Y-104782380D01*
X147633333Y-104782380D02*
X147442857Y-104782380D01*
X147347619Y-104830000D01*
X147300000Y-104877619D01*
X147204761Y-105020476D01*
X147157142Y-105210952D01*
X147157142Y-105591904D01*
X147204761Y-105687142D01*
X147252380Y-105734761D01*
X147347619Y-105782380D01*
X147538095Y-105782380D01*
X147633333Y-105734761D01*
X147680952Y-105687142D01*
X147728571Y-105591904D01*
X147728571Y-105353809D01*
X147680952Y-105258571D01*
X147633333Y-105210952D01*
X147538095Y-105163333D01*
X147347619Y-105163333D01*
X147252380Y-105210952D01*
X147204761Y-105258571D01*
X147157142Y-105353809D01*
X147919047Y-105877619D02*
X148680952Y-105877619D01*
X148919047Y-105782380D02*
X148919047Y-104782380D01*
X149300000Y-104782380D01*
X149395238Y-104830000D01*
X149442857Y-104877619D01*
X149490476Y-104972857D01*
X149490476Y-105115714D01*
X149442857Y-105210952D01*
X149395238Y-105258571D01*
X149300000Y-105306190D01*
X148919047Y-105306190D01*
X149871428Y-104877619D02*
X149919047Y-104830000D01*
X150014285Y-104782380D01*
X150252380Y-104782380D01*
X150347619Y-104830000D01*
X150395238Y-104877619D01*
X150442857Y-104972857D01*
X150442857Y-105068095D01*
X150395238Y-105210952D01*
X149823809Y-105782380D01*
X150442857Y-105782380D01*
X150871428Y-105687142D02*
X150919047Y-105734761D01*
X150871428Y-105782380D01*
X150823809Y-105734761D01*
X150871428Y-105687142D01*
X150871428Y-105782380D01*
X151823809Y-104782380D02*
X151347619Y-104782380D01*
X151300000Y-105258571D01*
X151347619Y-105210952D01*
X151442857Y-105163333D01*
X151680952Y-105163333D01*
X151776190Y-105210952D01*
X151823809Y-105258571D01*
X151871428Y-105353809D01*
X151871428Y-105591904D01*
X151823809Y-105687142D01*
X151776190Y-105734761D01*
X151680952Y-105782380D01*
X151442857Y-105782380D01*
X151347619Y-105734761D01*
X151300000Y-105687142D01*
X152728571Y-105115714D02*
X152728571Y-105782380D01*
X152490476Y-104734761D02*
X152252380Y-105449047D01*
X152871428Y-105449047D01*
X153252380Y-105782380D02*
X153252380Y-105115714D01*
X153252380Y-105210952D02*
X153300000Y-105163333D01*
X153395238Y-105115714D01*
X153538095Y-105115714D01*
X153633333Y-105163333D01*
X153680952Y-105258571D01*
X153680952Y-105782380D01*
X153680952Y-105258571D02*
X153728571Y-105163333D01*
X153823809Y-105115714D01*
X153966666Y-105115714D01*
X154061904Y-105163333D01*
X154109523Y-105258571D01*
X154109523Y-105782380D01*
X154585714Y-105782380D02*
X154585714Y-105115714D01*
X154585714Y-105210952D02*
X154633333Y-105163333D01*
X154728571Y-105115714D01*
X154871428Y-105115714D01*
X154966666Y-105163333D01*
X155014285Y-105258571D01*
X155014285Y-105782380D01*
X155014285Y-105258571D02*
X155061904Y-105163333D01*
X155157142Y-105115714D01*
X155300000Y-105115714D01*
X155395238Y-105163333D01*
X155442857Y-105258571D01*
X155442857Y-105782380D01*
X145252380Y-96983333D02*
X145966666Y-96983333D01*
X146109523Y-97030952D01*
X146204761Y-97126190D01*
X146252380Y-97269047D01*
X146252380Y-97364285D01*
X145585714Y-96078571D02*
X146252380Y-96078571D01*
X145204761Y-96316666D02*
X145919047Y-96554761D01*
X145919047Y-95935714D01*
%TO.C,J6*%
X113557142Y-124182380D02*
X113557142Y-123182380D01*
X113938095Y-123182380D01*
X114033333Y-123230000D01*
X114080952Y-123277619D01*
X114128571Y-123372857D01*
X114128571Y-123515714D01*
X114080952Y-123610952D01*
X114033333Y-123658571D01*
X113938095Y-123706190D01*
X113557142Y-123706190D01*
X114557142Y-124182380D02*
X114557142Y-123515714D01*
X114557142Y-123182380D02*
X114509523Y-123230000D01*
X114557142Y-123277619D01*
X114604761Y-123230000D01*
X114557142Y-123182380D01*
X114557142Y-123277619D01*
X115033333Y-123515714D02*
X115033333Y-124182380D01*
X115033333Y-123610952D02*
X115080952Y-123563333D01*
X115176190Y-123515714D01*
X115319047Y-123515714D01*
X115414285Y-123563333D01*
X115461904Y-123658571D01*
X115461904Y-124182380D01*
X115938095Y-124182380D02*
X115938095Y-123182380D01*
X115938095Y-123658571D02*
X116509523Y-123658571D01*
X116509523Y-124182380D02*
X116509523Y-123182380D01*
X117366666Y-124134761D02*
X117271428Y-124182380D01*
X117080952Y-124182380D01*
X116985714Y-124134761D01*
X116938095Y-124039523D01*
X116938095Y-123658571D01*
X116985714Y-123563333D01*
X117080952Y-123515714D01*
X117271428Y-123515714D01*
X117366666Y-123563333D01*
X117414285Y-123658571D01*
X117414285Y-123753809D01*
X116938095Y-123849047D01*
X118271428Y-124182380D02*
X118271428Y-123658571D01*
X118223809Y-123563333D01*
X118128571Y-123515714D01*
X117938095Y-123515714D01*
X117842857Y-123563333D01*
X118271428Y-124134761D02*
X118176190Y-124182380D01*
X117938095Y-124182380D01*
X117842857Y-124134761D01*
X117795238Y-124039523D01*
X117795238Y-123944285D01*
X117842857Y-123849047D01*
X117938095Y-123801428D01*
X118176190Y-123801428D01*
X118271428Y-123753809D01*
X119176190Y-124182380D02*
X119176190Y-123182380D01*
X119176190Y-124134761D02*
X119080952Y-124182380D01*
X118890476Y-124182380D01*
X118795238Y-124134761D01*
X118747619Y-124087142D01*
X118700000Y-123991904D01*
X118700000Y-123706190D01*
X118747619Y-123610952D01*
X118795238Y-123563333D01*
X118890476Y-123515714D01*
X119080952Y-123515714D01*
X119176190Y-123563333D01*
X120033333Y-124134761D02*
X119938095Y-124182380D01*
X119747619Y-124182380D01*
X119652380Y-124134761D01*
X119604761Y-124039523D01*
X119604761Y-123658571D01*
X119652380Y-123563333D01*
X119747619Y-123515714D01*
X119938095Y-123515714D01*
X120033333Y-123563333D01*
X120080952Y-123658571D01*
X120080952Y-123753809D01*
X119604761Y-123849047D01*
X120509523Y-124182380D02*
X120509523Y-123515714D01*
X120509523Y-123706190D02*
X120557142Y-123610952D01*
X120604761Y-123563333D01*
X120700000Y-123515714D01*
X120795238Y-123515714D01*
X120890476Y-124277619D02*
X121652380Y-124277619D01*
X122414285Y-124182380D02*
X121842857Y-124182380D01*
X122128571Y-124182380D02*
X122128571Y-123182380D01*
X122033333Y-123325238D01*
X121938095Y-123420476D01*
X121842857Y-123468095D01*
X122747619Y-124182380D02*
X123271428Y-123515714D01*
X122747619Y-123515714D02*
X123271428Y-124182380D01*
X123842857Y-123182380D02*
X123938095Y-123182380D01*
X124033333Y-123230000D01*
X124080952Y-123277619D01*
X124128571Y-123372857D01*
X124176190Y-123563333D01*
X124176190Y-123801428D01*
X124128571Y-123991904D01*
X124080952Y-124087142D01*
X124033333Y-124134761D01*
X123938095Y-124182380D01*
X123842857Y-124182380D01*
X123747619Y-124134761D01*
X123700000Y-124087142D01*
X123652380Y-123991904D01*
X123604761Y-123801428D01*
X123604761Y-123563333D01*
X123652380Y-123372857D01*
X123700000Y-123277619D01*
X123747619Y-123230000D01*
X123842857Y-123182380D01*
X125128571Y-124182380D02*
X124557142Y-124182380D01*
X124842857Y-124182380D02*
X124842857Y-123182380D01*
X124747619Y-123325238D01*
X124652380Y-123420476D01*
X124557142Y-123468095D01*
X125319047Y-124277619D02*
X126080952Y-124277619D01*
X126319047Y-124182380D02*
X126319047Y-123182380D01*
X126700000Y-123182380D01*
X126795238Y-123230000D01*
X126842857Y-123277619D01*
X126890476Y-123372857D01*
X126890476Y-123515714D01*
X126842857Y-123610952D01*
X126795238Y-123658571D01*
X126700000Y-123706190D01*
X126319047Y-123706190D01*
X127271428Y-123277619D02*
X127319047Y-123230000D01*
X127414285Y-123182380D01*
X127652380Y-123182380D01*
X127747619Y-123230000D01*
X127795238Y-123277619D01*
X127842857Y-123372857D01*
X127842857Y-123468095D01*
X127795238Y-123610952D01*
X127223809Y-124182380D01*
X127842857Y-124182380D01*
X128271428Y-124087142D02*
X128319047Y-124134761D01*
X128271428Y-124182380D01*
X128223809Y-124134761D01*
X128271428Y-124087142D01*
X128271428Y-124182380D01*
X129223809Y-123182380D02*
X128747619Y-123182380D01*
X128700000Y-123658571D01*
X128747619Y-123610952D01*
X128842857Y-123563333D01*
X129080952Y-123563333D01*
X129176190Y-123610952D01*
X129223809Y-123658571D01*
X129271428Y-123753809D01*
X129271428Y-123991904D01*
X129223809Y-124087142D01*
X129176190Y-124134761D01*
X129080952Y-124182380D01*
X128842857Y-124182380D01*
X128747619Y-124134761D01*
X128700000Y-124087142D01*
X130128571Y-123515714D02*
X130128571Y-124182380D01*
X129890476Y-123134761D02*
X129652380Y-123849047D01*
X130271428Y-123849047D01*
X130652380Y-124182380D02*
X130652380Y-123515714D01*
X130652380Y-123610952D02*
X130700000Y-123563333D01*
X130795238Y-123515714D01*
X130938095Y-123515714D01*
X131033333Y-123563333D01*
X131080952Y-123658571D01*
X131080952Y-124182380D01*
X131080952Y-123658571D02*
X131128571Y-123563333D01*
X131223809Y-123515714D01*
X131366666Y-123515714D01*
X131461904Y-123563333D01*
X131509523Y-123658571D01*
X131509523Y-124182380D01*
X131985714Y-124182380D02*
X131985714Y-123515714D01*
X131985714Y-123610952D02*
X132033333Y-123563333D01*
X132128571Y-123515714D01*
X132271428Y-123515714D01*
X132366666Y-123563333D01*
X132414285Y-123658571D01*
X132414285Y-124182380D01*
X132414285Y-123658571D02*
X132461904Y-123563333D01*
X132557142Y-123515714D01*
X132700000Y-123515714D01*
X132795238Y-123563333D01*
X132842857Y-123658571D01*
X132842857Y-124182380D01*
X122652380Y-121733333D02*
X123366666Y-121733333D01*
X123509523Y-121780952D01*
X123604761Y-121876190D01*
X123652380Y-122019047D01*
X123652380Y-122114285D01*
X122652380Y-120828571D02*
X122652380Y-121019047D01*
X122700000Y-121114285D01*
X122747619Y-121161904D01*
X122890476Y-121257142D01*
X123080952Y-121304761D01*
X123461904Y-121304761D01*
X123557142Y-121257142D01*
X123604761Y-121209523D01*
X123652380Y-121114285D01*
X123652380Y-120923809D01*
X123604761Y-120828571D01*
X123557142Y-120780952D01*
X123461904Y-120733333D01*
X123223809Y-120733333D01*
X123128571Y-120780952D01*
X123080952Y-120828571D01*
X123033333Y-120923809D01*
X123033333Y-121114285D01*
X123080952Y-121209523D01*
X123128571Y-121257142D01*
X123223809Y-121304761D01*
%TD*%
M02*
