%TF.GenerationSoftware,KiCad,Pcbnew,(5.1.8)-1*%
%TF.CreationDate,2021-12-10T09:08:05+01:00*%
%TF.ProjectId,Schema_Commande_Chacon_54650TX_V2,53636865-6d61-45f4-936f-6d6d616e6465,rev?*%
%TF.SameCoordinates,Original*%
%TF.FileFunction,Legend,Top*%
%TF.FilePolarity,Positive*%
%FSLAX46Y46*%
G04 Gerber Fmt 4.6, Leading zero omitted, Abs format (unit mm)*
G04 Created by KiCad (PCBNEW (5.1.8)-1) date 2021-12-10 09:08:05*
%MOMM*%
%LPD*%
G01*
G04 APERTURE LIST*
%ADD10C,0.300000*%
%ADD11C,0.120000*%
%ADD12C,0.127000*%
%ADD13C,0.150000*%
%ADD14C,0.015000*%
G04 APERTURE END LIST*
D10*
X139030514Y-112565971D02*
X138316228Y-112565971D01*
X138244800Y-113280257D01*
X138316228Y-113208828D01*
X138459085Y-113137400D01*
X138816228Y-113137400D01*
X138959085Y-113208828D01*
X139030514Y-113280257D01*
X139101942Y-113423114D01*
X139101942Y-113780257D01*
X139030514Y-113923114D01*
X138959085Y-113994542D01*
X138816228Y-114065971D01*
X138459085Y-114065971D01*
X138316228Y-113994542D01*
X138244800Y-113923114D01*
X140387657Y-113065971D02*
X140387657Y-114065971D01*
X140030514Y-112494542D02*
X139673371Y-113565971D01*
X140601942Y-113565971D01*
X141816228Y-112565971D02*
X141530514Y-112565971D01*
X141387657Y-112637400D01*
X141316228Y-112708828D01*
X141173371Y-112923114D01*
X141101942Y-113208828D01*
X141101942Y-113780257D01*
X141173371Y-113923114D01*
X141244800Y-113994542D01*
X141387657Y-114065971D01*
X141673371Y-114065971D01*
X141816228Y-113994542D01*
X141887657Y-113923114D01*
X141959085Y-113780257D01*
X141959085Y-113423114D01*
X141887657Y-113280257D01*
X141816228Y-113208828D01*
X141673371Y-113137400D01*
X141387657Y-113137400D01*
X141244800Y-113208828D01*
X141173371Y-113280257D01*
X141101942Y-113423114D01*
X143316228Y-112565971D02*
X142601942Y-112565971D01*
X142530514Y-113280257D01*
X142601942Y-113208828D01*
X142744800Y-113137400D01*
X143101942Y-113137400D01*
X143244800Y-113208828D01*
X143316228Y-113280257D01*
X143387657Y-113423114D01*
X143387657Y-113780257D01*
X143316228Y-113923114D01*
X143244800Y-113994542D01*
X143101942Y-114065971D01*
X142744800Y-114065971D01*
X142601942Y-113994542D01*
X142530514Y-113923114D01*
X144316228Y-112565971D02*
X144459085Y-112565971D01*
X144601942Y-112637400D01*
X144673371Y-112708828D01*
X144744800Y-112851685D01*
X144816228Y-113137400D01*
X144816228Y-113494542D01*
X144744800Y-113780257D01*
X144673371Y-113923114D01*
X144601942Y-113994542D01*
X144459085Y-114065971D01*
X144316228Y-114065971D01*
X144173371Y-113994542D01*
X144101942Y-113923114D01*
X144030514Y-113780257D01*
X143959085Y-113494542D01*
X143959085Y-113137400D01*
X144030514Y-112851685D01*
X144101942Y-112708828D01*
X144173371Y-112637400D01*
X144316228Y-112565971D01*
X145244800Y-112565971D02*
X146101942Y-112565971D01*
X145673371Y-114065971D02*
X145673371Y-112565971D01*
X146459085Y-112565971D02*
X147459085Y-114065971D01*
X147459085Y-112565971D02*
X146459085Y-114065971D01*
X147673371Y-114208828D02*
X148816228Y-114208828D01*
X148959085Y-112565971D02*
X149459085Y-114065971D01*
X149959085Y-112565971D01*
X150387657Y-112708828D02*
X150459085Y-112637400D01*
X150601942Y-112565971D01*
X150959085Y-112565971D01*
X151101942Y-112637400D01*
X151173371Y-112708828D01*
X151244800Y-112851685D01*
X151244800Y-112994542D01*
X151173371Y-113208828D01*
X150316228Y-114065971D01*
X151244800Y-114065971D01*
X112371428Y-124317142D02*
X111228571Y-124317142D01*
X108308571Y-124317142D02*
X109451428Y-124317142D01*
X108880000Y-124888571D02*
X108880000Y-123745714D01*
X134474942Y-111002114D02*
X134403514Y-111073542D01*
X134189228Y-111144971D01*
X134046371Y-111144971D01*
X133832085Y-111073542D01*
X133689228Y-110930685D01*
X133617799Y-110787828D01*
X133546371Y-110502114D01*
X133546371Y-110287828D01*
X133617799Y-110002114D01*
X133689228Y-109859257D01*
X133832085Y-109716400D01*
X134046371Y-109644971D01*
X134189228Y-109644971D01*
X134403514Y-109716400D01*
X134474942Y-109787828D01*
X135332085Y-111144971D02*
X135189228Y-111073542D01*
X135117800Y-111002114D01*
X135046371Y-110859257D01*
X135046371Y-110430685D01*
X135117800Y-110287828D01*
X135189228Y-110216400D01*
X135332085Y-110144971D01*
X135546371Y-110144971D01*
X135689228Y-110216400D01*
X135760657Y-110287828D01*
X135832085Y-110430685D01*
X135832085Y-110859257D01*
X135760657Y-111002114D01*
X135689228Y-111073542D01*
X135546371Y-111144971D01*
X135332085Y-111144971D01*
X136474942Y-111144971D02*
X136474942Y-110144971D01*
X136474942Y-110287828D02*
X136546371Y-110216400D01*
X136689228Y-110144971D01*
X136903514Y-110144971D01*
X137046371Y-110216400D01*
X137117800Y-110359257D01*
X137117800Y-111144971D01*
X137117800Y-110359257D02*
X137189228Y-110216400D01*
X137332085Y-110144971D01*
X137546371Y-110144971D01*
X137689228Y-110216400D01*
X137760657Y-110359257D01*
X137760657Y-111144971D01*
X138474942Y-111144971D02*
X138474942Y-110144971D01*
X138474942Y-110287828D02*
X138546371Y-110216400D01*
X138689228Y-110144971D01*
X138903514Y-110144971D01*
X139046371Y-110216400D01*
X139117800Y-110359257D01*
X139117800Y-111144971D01*
X139117800Y-110359257D02*
X139189228Y-110216400D01*
X139332085Y-110144971D01*
X139546371Y-110144971D01*
X139689228Y-110216400D01*
X139760657Y-110359257D01*
X139760657Y-111144971D01*
X141117800Y-111144971D02*
X141117800Y-110359257D01*
X141046371Y-110216400D01*
X140903514Y-110144971D01*
X140617800Y-110144971D01*
X140474942Y-110216400D01*
X141117800Y-111073542D02*
X140974942Y-111144971D01*
X140617800Y-111144971D01*
X140474942Y-111073542D01*
X140403514Y-110930685D01*
X140403514Y-110787828D01*
X140474942Y-110644971D01*
X140617800Y-110573542D01*
X140974942Y-110573542D01*
X141117800Y-110502114D01*
X141832085Y-110144971D02*
X141832085Y-111144971D01*
X141832085Y-110287828D02*
X141903514Y-110216400D01*
X142046371Y-110144971D01*
X142260657Y-110144971D01*
X142403514Y-110216400D01*
X142474942Y-110359257D01*
X142474942Y-111144971D01*
X143832085Y-111144971D02*
X143832085Y-109644971D01*
X143832085Y-111073542D02*
X143689228Y-111144971D01*
X143403514Y-111144971D01*
X143260657Y-111073542D01*
X143189228Y-111002114D01*
X143117800Y-110859257D01*
X143117800Y-110430685D01*
X143189228Y-110287828D01*
X143260657Y-110216400D01*
X143403514Y-110144971D01*
X143689228Y-110144971D01*
X143832085Y-110216400D01*
X145117800Y-111073542D02*
X144974942Y-111144971D01*
X144689228Y-111144971D01*
X144546371Y-111073542D01*
X144474942Y-110930685D01*
X144474942Y-110359257D01*
X144546371Y-110216400D01*
X144689228Y-110144971D01*
X144974942Y-110144971D01*
X145117800Y-110216400D01*
X145189228Y-110359257D01*
X145189228Y-110502114D01*
X144474942Y-110644971D01*
X145474942Y-111287828D02*
X146617800Y-111287828D01*
X147832085Y-111002114D02*
X147760657Y-111073542D01*
X147546371Y-111144971D01*
X147403514Y-111144971D01*
X147189228Y-111073542D01*
X147046371Y-110930685D01*
X146974942Y-110787828D01*
X146903514Y-110502114D01*
X146903514Y-110287828D01*
X146974942Y-110002114D01*
X147046371Y-109859257D01*
X147189228Y-109716400D01*
X147403514Y-109644971D01*
X147546371Y-109644971D01*
X147760657Y-109716400D01*
X147832085Y-109787828D01*
X148474942Y-111144971D02*
X148474942Y-109644971D01*
X149117800Y-111144971D02*
X149117800Y-110359257D01*
X149046371Y-110216400D01*
X148903514Y-110144971D01*
X148689228Y-110144971D01*
X148546371Y-110216400D01*
X148474942Y-110287828D01*
X150474942Y-111144971D02*
X150474942Y-110359257D01*
X150403514Y-110216400D01*
X150260657Y-110144971D01*
X149974942Y-110144971D01*
X149832085Y-110216400D01*
X150474942Y-111073542D02*
X150332085Y-111144971D01*
X149974942Y-111144971D01*
X149832085Y-111073542D01*
X149760657Y-110930685D01*
X149760657Y-110787828D01*
X149832085Y-110644971D01*
X149974942Y-110573542D01*
X150332085Y-110573542D01*
X150474942Y-110502114D01*
X151832085Y-111073542D02*
X151689228Y-111144971D01*
X151403514Y-111144971D01*
X151260657Y-111073542D01*
X151189228Y-111002114D01*
X151117800Y-110859257D01*
X151117800Y-110430685D01*
X151189228Y-110287828D01*
X151260657Y-110216400D01*
X151403514Y-110144971D01*
X151689228Y-110144971D01*
X151832085Y-110216400D01*
X152689228Y-111144971D02*
X152546371Y-111073542D01*
X152474942Y-111002114D01*
X152403514Y-110859257D01*
X152403514Y-110430685D01*
X152474942Y-110287828D01*
X152546371Y-110216400D01*
X152689228Y-110144971D01*
X152903514Y-110144971D01*
X153046371Y-110216400D01*
X153117800Y-110287828D01*
X153189228Y-110430685D01*
X153189228Y-110859257D01*
X153117800Y-111002114D01*
X153046371Y-111073542D01*
X152903514Y-111144971D01*
X152689228Y-111144971D01*
X153832085Y-110144971D02*
X153832085Y-111144971D01*
X153832085Y-110287828D02*
X153903514Y-110216400D01*
X154046371Y-110144971D01*
X154260657Y-110144971D01*
X154403514Y-110216400D01*
X154474942Y-110359257D01*
X154474942Y-111144971D01*
X154832085Y-111287828D02*
X155974942Y-111287828D01*
X50696285Y-123184571D02*
X50696285Y-121684571D01*
X51339142Y-123184571D02*
X51339142Y-122398857D01*
X51267714Y-122256000D01*
X51124857Y-122184571D01*
X50910571Y-122184571D01*
X50767714Y-122256000D01*
X50696285Y-122327428D01*
X51839142Y-122184571D02*
X52410571Y-122184571D01*
X52053428Y-121684571D02*
X52053428Y-122970285D01*
X52124857Y-123113142D01*
X52267714Y-123184571D01*
X52410571Y-123184571D01*
X52696285Y-122184571D02*
X53267714Y-122184571D01*
X52910571Y-121684571D02*
X52910571Y-122970285D01*
X52981999Y-123113142D01*
X53124857Y-123184571D01*
X53267714Y-123184571D01*
X53767714Y-122184571D02*
X53767714Y-123684571D01*
X53767714Y-122256000D02*
X53910571Y-122184571D01*
X54196285Y-122184571D01*
X54339142Y-122256000D01*
X54410571Y-122327428D01*
X54481999Y-122470285D01*
X54481999Y-122898857D01*
X54410571Y-123041714D01*
X54339142Y-123113142D01*
X54196285Y-123184571D01*
X53910571Y-123184571D01*
X53767714Y-123113142D01*
X55124857Y-123041714D02*
X55196285Y-123113142D01*
X55124857Y-123184571D01*
X55053428Y-123113142D01*
X55124857Y-123041714D01*
X55124857Y-123184571D01*
X55124857Y-122256000D02*
X55196285Y-122327428D01*
X55124857Y-122398857D01*
X55053428Y-122327428D01*
X55124857Y-122256000D01*
X55124857Y-122398857D01*
X56910571Y-121613142D02*
X55624857Y-123541714D01*
X58481999Y-121613142D02*
X57196285Y-123541714D01*
X59553428Y-123113142D02*
X59410571Y-123184571D01*
X59124857Y-123184571D01*
X58981999Y-123113142D01*
X58910571Y-122970285D01*
X58910571Y-122398857D01*
X58981999Y-122256000D01*
X59124857Y-122184571D01*
X59410571Y-122184571D01*
X59553428Y-122256000D01*
X59624857Y-122398857D01*
X59624857Y-122541714D01*
X58910571Y-122684571D01*
X60481999Y-123184571D02*
X60339142Y-123113142D01*
X60267714Y-122970285D01*
X60267714Y-121684571D01*
X61624857Y-123113142D02*
X61481999Y-123184571D01*
X61196285Y-123184571D01*
X61053428Y-123113142D01*
X60981999Y-122970285D01*
X60981999Y-122398857D01*
X61053428Y-122256000D01*
X61196285Y-122184571D01*
X61481999Y-122184571D01*
X61624857Y-122256000D01*
X61696285Y-122398857D01*
X61696285Y-122541714D01*
X60981999Y-122684571D01*
X62981999Y-123113142D02*
X62839142Y-123184571D01*
X62553428Y-123184571D01*
X62410571Y-123113142D01*
X62339142Y-123041714D01*
X62267714Y-122898857D01*
X62267714Y-122470285D01*
X62339142Y-122327428D01*
X62410571Y-122256000D01*
X62553428Y-122184571D01*
X62839142Y-122184571D01*
X62981999Y-122256000D01*
X63410571Y-122184571D02*
X63981999Y-122184571D01*
X63624857Y-121684571D02*
X63624857Y-122970285D01*
X63696285Y-123113142D01*
X63839142Y-123184571D01*
X63981999Y-123184571D01*
X64481999Y-123184571D02*
X64481999Y-122184571D01*
X64481999Y-122470285D02*
X64553428Y-122327428D01*
X64624857Y-122256000D01*
X64767714Y-122184571D01*
X64910571Y-122184571D01*
X65624857Y-123184571D02*
X65481999Y-123113142D01*
X65410571Y-123041714D01*
X65339142Y-122898857D01*
X65339142Y-122470285D01*
X65410571Y-122327428D01*
X65481999Y-122256000D01*
X65624857Y-122184571D01*
X65839142Y-122184571D01*
X65981999Y-122256000D01*
X66053428Y-122327428D01*
X66124857Y-122470285D01*
X66124857Y-122898857D01*
X66053428Y-123041714D01*
X65981999Y-123113142D01*
X65839142Y-123184571D01*
X65624857Y-123184571D01*
X66767714Y-122184571D02*
X66767714Y-123184571D01*
X66767714Y-122327428D02*
X66839142Y-122256000D01*
X66981999Y-122184571D01*
X67196285Y-122184571D01*
X67339142Y-122256000D01*
X67410571Y-122398857D01*
X67410571Y-123184571D01*
X68124857Y-123184571D02*
X68124857Y-122184571D01*
X68124857Y-121684571D02*
X68053428Y-121756000D01*
X68124857Y-121827428D01*
X68196285Y-121756000D01*
X68124857Y-121684571D01*
X68124857Y-121827428D01*
X69481999Y-122184571D02*
X69481999Y-123684571D01*
X69481999Y-123113142D02*
X69339142Y-123184571D01*
X69053428Y-123184571D01*
X68910571Y-123113142D01*
X68839142Y-123041714D01*
X68767714Y-122898857D01*
X68767714Y-122470285D01*
X68839142Y-122327428D01*
X68910571Y-122256000D01*
X69053428Y-122184571D01*
X69339142Y-122184571D01*
X69481999Y-122256000D01*
X70839142Y-122184571D02*
X70839142Y-123184571D01*
X70196285Y-122184571D02*
X70196285Y-122970285D01*
X70267714Y-123113142D01*
X70410571Y-123184571D01*
X70624857Y-123184571D01*
X70767714Y-123113142D01*
X70839142Y-123041714D01*
X72124857Y-123113142D02*
X71982000Y-123184571D01*
X71696285Y-123184571D01*
X71553428Y-123113142D01*
X71482000Y-122970285D01*
X71482000Y-122398857D01*
X71553428Y-122256000D01*
X71696285Y-122184571D01*
X71982000Y-122184571D01*
X72124857Y-122256000D01*
X72196285Y-122398857D01*
X72196285Y-122541714D01*
X71482000Y-122684571D01*
X72839142Y-122184571D02*
X72839142Y-123684571D01*
X72839142Y-122256000D02*
X72982000Y-122184571D01*
X73267714Y-122184571D01*
X73410571Y-122256000D01*
X73482000Y-122327428D01*
X73553428Y-122470285D01*
X73553428Y-122898857D01*
X73482000Y-123041714D01*
X73410571Y-123113142D01*
X73267714Y-123184571D01*
X72982000Y-123184571D01*
X72839142Y-123113142D01*
X74839142Y-123184571D02*
X74839142Y-122398857D01*
X74767714Y-122256000D01*
X74624857Y-122184571D01*
X74339142Y-122184571D01*
X74196285Y-122256000D01*
X74839142Y-123113142D02*
X74696285Y-123184571D01*
X74339142Y-123184571D01*
X74196285Y-123113142D01*
X74124857Y-122970285D01*
X74124857Y-122827428D01*
X74196285Y-122684571D01*
X74339142Y-122613142D01*
X74696285Y-122613142D01*
X74839142Y-122541714D01*
X75482000Y-123113142D02*
X75624857Y-123184571D01*
X75910571Y-123184571D01*
X76053428Y-123113142D01*
X76124857Y-122970285D01*
X76124857Y-122898857D01*
X76053428Y-122756000D01*
X75910571Y-122684571D01*
X75696285Y-122684571D01*
X75553428Y-122613142D01*
X75482000Y-122470285D01*
X75482000Y-122398857D01*
X75553428Y-122256000D01*
X75696285Y-122184571D01*
X75910571Y-122184571D01*
X76053428Y-122256000D01*
X76696285Y-123113142D02*
X76839142Y-123184571D01*
X77124857Y-123184571D01*
X77267714Y-123113142D01*
X77339142Y-122970285D01*
X77339142Y-122898857D01*
X77267714Y-122756000D01*
X77124857Y-122684571D01*
X76910571Y-122684571D01*
X76767714Y-122613142D01*
X76696285Y-122470285D01*
X76696285Y-122398857D01*
X76767714Y-122256000D01*
X76910571Y-122184571D01*
X77124857Y-122184571D01*
X77267714Y-122256000D01*
X77982000Y-123184571D02*
X77982000Y-122184571D01*
X77982000Y-121684571D02*
X77910571Y-121756000D01*
X77982000Y-121827428D01*
X78053428Y-121756000D01*
X77982000Y-121684571D01*
X77982000Y-121827428D01*
X78910571Y-123184571D02*
X78767714Y-123113142D01*
X78696285Y-123041714D01*
X78624857Y-122898857D01*
X78624857Y-122470285D01*
X78696285Y-122327428D01*
X78767714Y-122256000D01*
X78910571Y-122184571D01*
X79124857Y-122184571D01*
X79267714Y-122256000D01*
X79339142Y-122327428D01*
X79410571Y-122470285D01*
X79410571Y-122898857D01*
X79339142Y-123041714D01*
X79267714Y-123113142D01*
X79124857Y-123184571D01*
X78910571Y-123184571D01*
X80053428Y-122184571D02*
X80053428Y-123184571D01*
X80053428Y-122327428D02*
X80124857Y-122256000D01*
X80267714Y-122184571D01*
X80482000Y-122184571D01*
X80624857Y-122256000D01*
X80696285Y-122398857D01*
X80696285Y-123184571D01*
X81410571Y-123041714D02*
X81482000Y-123113142D01*
X81410571Y-123184571D01*
X81339142Y-123113142D01*
X81410571Y-123041714D01*
X81410571Y-123184571D01*
X81910571Y-122184571D02*
X82481999Y-122184571D01*
X82124857Y-123184571D02*
X82124857Y-121898857D01*
X82196285Y-121756000D01*
X82339142Y-121684571D01*
X82481999Y-121684571D01*
X82982000Y-123184571D02*
X82982000Y-122184571D01*
X82982000Y-122470285D02*
X83053428Y-122327428D01*
X83124857Y-122256000D01*
X83267714Y-122184571D01*
X83410571Y-122184571D01*
X84982000Y-121613142D02*
X83696285Y-123541714D01*
D11*
%TO.C,U1*%
X76035000Y-113685000D02*
X76035000Y-98460000D01*
X86285000Y-113685000D02*
X76035000Y-113685000D01*
X86350000Y-98460000D02*
X86335000Y-113685000D01*
X76035000Y-98460000D02*
X86335000Y-98460000D01*
X78760000Y-113710000D02*
X78760000Y-117710000D01*
X81300000Y-113710000D02*
X81300000Y-117710000D01*
X83835000Y-113710000D02*
X83840000Y-117710000D01*
X94050000Y-114210000D02*
X68550000Y-114210000D01*
X94050000Y-114210000D02*
X94050000Y-84210000D01*
X94050000Y-84210000D02*
X68550000Y-84210000D01*
X68550000Y-114210000D02*
X68550000Y-84210000D01*
%TO.C,C2*%
X79180000Y-59130000D02*
X79180000Y-67870000D01*
X79180000Y-67870000D02*
X91420000Y-67870000D01*
X91420000Y-67870000D02*
X91420000Y-59130000D01*
X91420000Y-59130000D02*
X79180000Y-59130000D01*
X78840000Y-63500000D02*
X79180000Y-63500000D01*
X91760000Y-63500000D02*
X91420000Y-63500000D01*
%TO.C,F1*%
X45390000Y-107110000D02*
X48550000Y-107110000D01*
X52050000Y-107110000D02*
X55210000Y-107110000D01*
X52050000Y-84390000D02*
X55210000Y-84390000D01*
X55210000Y-84390000D02*
X55210000Y-107110000D01*
X45390000Y-84390000D02*
X45390000Y-107110000D01*
X45390000Y-84390000D02*
X48550000Y-84390000D01*
%TO.C,C1*%
X109770000Y-50200000D02*
G75*
G03*
X109770000Y-50200000I-8620000J0D01*
G01*
X101150000Y-41619000D02*
X101150000Y-58781000D01*
X101190000Y-41620000D02*
X101190000Y-58780000D01*
X101230000Y-41620000D02*
X101230000Y-58780000D01*
X101270000Y-41620000D02*
X101270000Y-58780000D01*
X101310000Y-41621000D02*
X101310000Y-58779000D01*
X101350000Y-41622000D02*
X101350000Y-58778000D01*
X101390000Y-41623000D02*
X101390000Y-58777000D01*
X101430000Y-41624000D02*
X101430000Y-58776000D01*
X101470000Y-41625000D02*
X101470000Y-58775000D01*
X101510000Y-41627000D02*
X101510000Y-58773000D01*
X101550000Y-41629000D02*
X101550000Y-58771000D01*
X101590000Y-41631000D02*
X101590000Y-58769000D01*
X101630000Y-41633000D02*
X101630000Y-58767000D01*
X101670000Y-41635000D02*
X101670000Y-58765000D01*
X101710000Y-41638000D02*
X101710000Y-58762000D01*
X101750000Y-41640000D02*
X101750000Y-58760000D01*
X101790000Y-41643000D02*
X101790000Y-58757000D01*
X101830000Y-41646000D02*
X101830000Y-58754000D01*
X101871000Y-41650000D02*
X101871000Y-58750000D01*
X101911000Y-41653000D02*
X101911000Y-58747000D01*
X101951000Y-41657000D02*
X101951000Y-58743000D01*
X101991000Y-41661000D02*
X101991000Y-58739000D01*
X102031000Y-41665000D02*
X102031000Y-58735000D01*
X102071000Y-41669000D02*
X102071000Y-58731000D01*
X102111000Y-41673000D02*
X102111000Y-58727000D01*
X102151000Y-41678000D02*
X102151000Y-58722000D01*
X102191000Y-41682000D02*
X102191000Y-58718000D01*
X102231000Y-41687000D02*
X102231000Y-58713000D01*
X102271000Y-41693000D02*
X102271000Y-58707000D01*
X102311000Y-41698000D02*
X102311000Y-58702000D01*
X102351000Y-41703000D02*
X102351000Y-58697000D01*
X102391000Y-41709000D02*
X102391000Y-58691000D01*
X102431000Y-41715000D02*
X102431000Y-58685000D01*
X102471000Y-41721000D02*
X102471000Y-58679000D01*
X102511000Y-41727000D02*
X102511000Y-58673000D01*
X102551000Y-41734000D02*
X102551000Y-58666000D01*
X102591000Y-41741000D02*
X102591000Y-58659000D01*
X102631000Y-41748000D02*
X102631000Y-58652000D01*
X102671000Y-41755000D02*
X102671000Y-58645000D01*
X102711000Y-41762000D02*
X102711000Y-58638000D01*
X102751000Y-41769000D02*
X102751000Y-58631000D01*
X102791000Y-41777000D02*
X102791000Y-58623000D01*
X102831000Y-41785000D02*
X102831000Y-58615000D01*
X102871000Y-41793000D02*
X102871000Y-58607000D01*
X102911000Y-41801000D02*
X102911000Y-58599000D01*
X102951000Y-41810000D02*
X102951000Y-58590000D01*
X102991000Y-41818000D02*
X102991000Y-58582000D01*
X103031000Y-41827000D02*
X103031000Y-58573000D01*
X103071000Y-41836000D02*
X103071000Y-58564000D01*
X103111000Y-41845000D02*
X103111000Y-58555000D01*
X103151000Y-41855000D02*
X103151000Y-58545000D01*
X103191000Y-41864000D02*
X103191000Y-58536000D01*
X103231000Y-41874000D02*
X103231000Y-58526000D01*
X103271000Y-41884000D02*
X103271000Y-58516000D01*
X103311000Y-41895000D02*
X103311000Y-58505000D01*
X103351000Y-41905000D02*
X103351000Y-58495000D01*
X103391000Y-41916000D02*
X103391000Y-58484000D01*
X103431000Y-41926000D02*
X103431000Y-58474000D01*
X103471000Y-41938000D02*
X103471000Y-48760000D01*
X103471000Y-51640000D02*
X103471000Y-58462000D01*
X103511000Y-41949000D02*
X103511000Y-48760000D01*
X103511000Y-51640000D02*
X103511000Y-58451000D01*
X103551000Y-41960000D02*
X103551000Y-48760000D01*
X103551000Y-51640000D02*
X103551000Y-58440000D01*
X103591000Y-41972000D02*
X103591000Y-48760000D01*
X103591000Y-51640000D02*
X103591000Y-58428000D01*
X103631000Y-41984000D02*
X103631000Y-48760000D01*
X103631000Y-51640000D02*
X103631000Y-58416000D01*
X103671000Y-41996000D02*
X103671000Y-48760000D01*
X103671000Y-51640000D02*
X103671000Y-58404000D01*
X103711000Y-42008000D02*
X103711000Y-48760000D01*
X103711000Y-51640000D02*
X103711000Y-58392000D01*
X103751000Y-42021000D02*
X103751000Y-48760000D01*
X103751000Y-51640000D02*
X103751000Y-58379000D01*
X103791000Y-42034000D02*
X103791000Y-48760000D01*
X103791000Y-51640000D02*
X103791000Y-58366000D01*
X103831000Y-42047000D02*
X103831000Y-48760000D01*
X103831000Y-51640000D02*
X103831000Y-58353000D01*
X103871000Y-42060000D02*
X103871000Y-48760000D01*
X103871000Y-51640000D02*
X103871000Y-58340000D01*
X103911000Y-42073000D02*
X103911000Y-48760000D01*
X103911000Y-51640000D02*
X103911000Y-58327000D01*
X103951000Y-42087000D02*
X103951000Y-48760000D01*
X103951000Y-51640000D02*
X103951000Y-58313000D01*
X103991000Y-42101000D02*
X103991000Y-48760000D01*
X103991000Y-51640000D02*
X103991000Y-58299000D01*
X104031000Y-42115000D02*
X104031000Y-48760000D01*
X104031000Y-51640000D02*
X104031000Y-58285000D01*
X104071000Y-42129000D02*
X104071000Y-48760000D01*
X104071000Y-51640000D02*
X104071000Y-58271000D01*
X104111000Y-42144000D02*
X104111000Y-48760000D01*
X104111000Y-51640000D02*
X104111000Y-58256000D01*
X104151000Y-42158000D02*
X104151000Y-48760000D01*
X104151000Y-51640000D02*
X104151000Y-58242000D01*
X104191000Y-42173000D02*
X104191000Y-48760000D01*
X104191000Y-51640000D02*
X104191000Y-58227000D01*
X104231000Y-42189000D02*
X104231000Y-48760000D01*
X104231000Y-51640000D02*
X104231000Y-58211000D01*
X104271000Y-42204000D02*
X104271000Y-48760000D01*
X104271000Y-51640000D02*
X104271000Y-58196000D01*
X104311000Y-42220000D02*
X104311000Y-48760000D01*
X104311000Y-51640000D02*
X104311000Y-58180000D01*
X104351000Y-42235000D02*
X104351000Y-48760000D01*
X104351000Y-51640000D02*
X104351000Y-58165000D01*
X104391000Y-42252000D02*
X104391000Y-48760000D01*
X104391000Y-51640000D02*
X104391000Y-58148000D01*
X104431000Y-42268000D02*
X104431000Y-48760000D01*
X104431000Y-51640000D02*
X104431000Y-58132000D01*
X104471000Y-42285000D02*
X104471000Y-48760000D01*
X104471000Y-51640000D02*
X104471000Y-58115000D01*
X104511000Y-42301000D02*
X104511000Y-48760000D01*
X104511000Y-51640000D02*
X104511000Y-58099000D01*
X104551000Y-42318000D02*
X104551000Y-48760000D01*
X104551000Y-51640000D02*
X104551000Y-58082000D01*
X104591000Y-42336000D02*
X104591000Y-48760000D01*
X104591000Y-51640000D02*
X104591000Y-58064000D01*
X104631000Y-42353000D02*
X104631000Y-48760000D01*
X104631000Y-51640000D02*
X104631000Y-58047000D01*
X104671000Y-42371000D02*
X104671000Y-48760000D01*
X104671000Y-51640000D02*
X104671000Y-58029000D01*
X104711000Y-42389000D02*
X104711000Y-48760000D01*
X104711000Y-51640000D02*
X104711000Y-58011000D01*
X104751000Y-42407000D02*
X104751000Y-48760000D01*
X104751000Y-51640000D02*
X104751000Y-57993000D01*
X104791000Y-42426000D02*
X104791000Y-48760000D01*
X104791000Y-51640000D02*
X104791000Y-57974000D01*
X104831000Y-42445000D02*
X104831000Y-48760000D01*
X104831000Y-51640000D02*
X104831000Y-57955000D01*
X104871000Y-42464000D02*
X104871000Y-48760000D01*
X104871000Y-51640000D02*
X104871000Y-57936000D01*
X104911000Y-42483000D02*
X104911000Y-48760000D01*
X104911000Y-51640000D02*
X104911000Y-57917000D01*
X104951000Y-42502000D02*
X104951000Y-48760000D01*
X104951000Y-51640000D02*
X104951000Y-57898000D01*
X104991000Y-42522000D02*
X104991000Y-48760000D01*
X104991000Y-51640000D02*
X104991000Y-57878000D01*
X105031000Y-42542000D02*
X105031000Y-48760000D01*
X105031000Y-51640000D02*
X105031000Y-57858000D01*
X105071000Y-42562000D02*
X105071000Y-48760000D01*
X105071000Y-51640000D02*
X105071000Y-57838000D01*
X105111000Y-42583000D02*
X105111000Y-48760000D01*
X105111000Y-51640000D02*
X105111000Y-57817000D01*
X105151000Y-42604000D02*
X105151000Y-48760000D01*
X105151000Y-51640000D02*
X105151000Y-57796000D01*
X105191000Y-42625000D02*
X105191000Y-48760000D01*
X105191000Y-51640000D02*
X105191000Y-57775000D01*
X105231000Y-42646000D02*
X105231000Y-48760000D01*
X105231000Y-51640000D02*
X105231000Y-57754000D01*
X105271000Y-42668000D02*
X105271000Y-48760000D01*
X105271000Y-51640000D02*
X105271000Y-57732000D01*
X105311000Y-42690000D02*
X105311000Y-48760000D01*
X105311000Y-51640000D02*
X105311000Y-57710000D01*
X105351000Y-42712000D02*
X105351000Y-48760000D01*
X105351000Y-51640000D02*
X105351000Y-57688000D01*
X105391000Y-42734000D02*
X105391000Y-48760000D01*
X105391000Y-51640000D02*
X105391000Y-57666000D01*
X105431000Y-42757000D02*
X105431000Y-48760000D01*
X105431000Y-51640000D02*
X105431000Y-57643000D01*
X105471000Y-42780000D02*
X105471000Y-48760000D01*
X105471000Y-51640000D02*
X105471000Y-57620000D01*
X105511000Y-42803000D02*
X105511000Y-48760000D01*
X105511000Y-51640000D02*
X105511000Y-57597000D01*
X105551000Y-42827000D02*
X105551000Y-48760000D01*
X105551000Y-51640000D02*
X105551000Y-57573000D01*
X105591000Y-42851000D02*
X105591000Y-48760000D01*
X105591000Y-51640000D02*
X105591000Y-57549000D01*
X105631000Y-42875000D02*
X105631000Y-48760000D01*
X105631000Y-51640000D02*
X105631000Y-57525000D01*
X105671000Y-42900000D02*
X105671000Y-48760000D01*
X105671000Y-51640000D02*
X105671000Y-57500000D01*
X105711000Y-42924000D02*
X105711000Y-48760000D01*
X105711000Y-51640000D02*
X105711000Y-57476000D01*
X105751000Y-42949000D02*
X105751000Y-48760000D01*
X105751000Y-51640000D02*
X105751000Y-57451000D01*
X105791000Y-42975000D02*
X105791000Y-48760000D01*
X105791000Y-51640000D02*
X105791000Y-57425000D01*
X105831000Y-43001000D02*
X105831000Y-48760000D01*
X105831000Y-51640000D02*
X105831000Y-57399000D01*
X105871000Y-43027000D02*
X105871000Y-48760000D01*
X105871000Y-51640000D02*
X105871000Y-57373000D01*
X105911000Y-43053000D02*
X105911000Y-48760000D01*
X105911000Y-51640000D02*
X105911000Y-57347000D01*
X105951000Y-43080000D02*
X105951000Y-48760000D01*
X105951000Y-51640000D02*
X105951000Y-57320000D01*
X105991000Y-43107000D02*
X105991000Y-48760000D01*
X105991000Y-51640000D02*
X105991000Y-57293000D01*
X106031000Y-43134000D02*
X106031000Y-48760000D01*
X106031000Y-51640000D02*
X106031000Y-57266000D01*
X106071000Y-43162000D02*
X106071000Y-48760000D01*
X106071000Y-51640000D02*
X106071000Y-57238000D01*
X106111000Y-43189000D02*
X106111000Y-48760000D01*
X106111000Y-51640000D02*
X106111000Y-57211000D01*
X106151000Y-43218000D02*
X106151000Y-48760000D01*
X106151000Y-51640000D02*
X106151000Y-57182000D01*
X106191000Y-43246000D02*
X106191000Y-48760000D01*
X106191000Y-51640000D02*
X106191000Y-57154000D01*
X106231000Y-43275000D02*
X106231000Y-48760000D01*
X106231000Y-51640000D02*
X106231000Y-57125000D01*
X106271000Y-43305000D02*
X106271000Y-48760000D01*
X106271000Y-51640000D02*
X106271000Y-57095000D01*
X106311000Y-43335000D02*
X106311000Y-48760000D01*
X106311000Y-51640000D02*
X106311000Y-57065000D01*
X106351000Y-43365000D02*
X106351000Y-57035000D01*
X106391000Y-43395000D02*
X106391000Y-57005000D01*
X106431000Y-43426000D02*
X106431000Y-56974000D01*
X106471000Y-43457000D02*
X106471000Y-56943000D01*
X106511000Y-43489000D02*
X106511000Y-56911000D01*
X106551000Y-43521000D02*
X106551000Y-56879000D01*
X106591000Y-43553000D02*
X106591000Y-56847000D01*
X106631000Y-43586000D02*
X106631000Y-56814000D01*
X106671000Y-43619000D02*
X106671000Y-56781000D01*
X106711000Y-43652000D02*
X106711000Y-56748000D01*
X106751000Y-43686000D02*
X106751000Y-56714000D01*
X106791000Y-43721000D02*
X106791000Y-56679000D01*
X106831000Y-43756000D02*
X106831000Y-56644000D01*
X106871000Y-43791000D02*
X106871000Y-56609000D01*
X106911000Y-43826000D02*
X106911000Y-56574000D01*
X106951000Y-43863000D02*
X106951000Y-56537000D01*
X106991000Y-43899000D02*
X106991000Y-56501000D01*
X107031000Y-43936000D02*
X107031000Y-56464000D01*
X107071000Y-43974000D02*
X107071000Y-56426000D01*
X107111000Y-44012000D02*
X107111000Y-56388000D01*
X107151000Y-44050000D02*
X107151000Y-56350000D01*
X107191000Y-44089000D02*
X107191000Y-56311000D01*
X107231000Y-44129000D02*
X107231000Y-56271000D01*
X107271000Y-44169000D02*
X107271000Y-56231000D01*
X107311000Y-44210000D02*
X107311000Y-56190000D01*
X107351000Y-44251000D02*
X107351000Y-56149000D01*
X107391000Y-44293000D02*
X107391000Y-56107000D01*
X107431000Y-44335000D02*
X107431000Y-56065000D01*
X107471000Y-44378000D02*
X107471000Y-56022000D01*
X107511000Y-44421000D02*
X107511000Y-55979000D01*
X107551000Y-44465000D02*
X107551000Y-55935000D01*
X107591000Y-44510000D02*
X107591000Y-55890000D01*
X107631000Y-44555000D02*
X107631000Y-55845000D01*
X107671000Y-44601000D02*
X107671000Y-55799000D01*
X107711000Y-44647000D02*
X107711000Y-55753000D01*
X107751000Y-44695000D02*
X107751000Y-55705000D01*
X107791000Y-44743000D02*
X107791000Y-55657000D01*
X107831000Y-44791000D02*
X107831000Y-55609000D01*
X107871000Y-44841000D02*
X107871000Y-55559000D01*
X107911000Y-44891000D02*
X107911000Y-55509000D01*
X107951000Y-44942000D02*
X107951000Y-55458000D01*
X107991000Y-44994000D02*
X107991000Y-55406000D01*
X108031000Y-45046000D02*
X108031000Y-55354000D01*
X108071000Y-45100000D02*
X108071000Y-55300000D01*
X108111000Y-45154000D02*
X108111000Y-55246000D01*
X108151000Y-45209000D02*
X108151000Y-55191000D01*
X108191000Y-45265000D02*
X108191000Y-55135000D01*
X108231000Y-45322000D02*
X108231000Y-55078000D01*
X108271000Y-45380000D02*
X108271000Y-55020000D01*
X108311000Y-45440000D02*
X108311000Y-54960000D01*
X108351000Y-45500000D02*
X108351000Y-54900000D01*
X108391000Y-45561000D02*
X108391000Y-54839000D01*
X108431000Y-45624000D02*
X108431000Y-54776000D01*
X108471000Y-45687000D02*
X108471000Y-54713000D01*
X108511000Y-45752000D02*
X108511000Y-54648000D01*
X108551000Y-45819000D02*
X108551000Y-54581000D01*
X108591000Y-45886000D02*
X108591000Y-54514000D01*
X108631000Y-45955000D02*
X108631000Y-54445000D01*
X108671000Y-46026000D02*
X108671000Y-54374000D01*
X108711000Y-46098000D02*
X108711000Y-54302000D01*
X108751000Y-46172000D02*
X108751000Y-54228000D01*
X108791000Y-46248000D02*
X108791000Y-54152000D01*
X108831000Y-46325000D02*
X108831000Y-54075000D01*
X108871000Y-46405000D02*
X108871000Y-53995000D01*
X108911000Y-46486000D02*
X108911000Y-53914000D01*
X108951000Y-46570000D02*
X108951000Y-53830000D01*
X108991000Y-46656000D02*
X108991000Y-53744000D01*
X109031000Y-46745000D02*
X109031000Y-53655000D01*
X109071000Y-46837000D02*
X109071000Y-53563000D01*
X109111000Y-46932000D02*
X109111000Y-53468000D01*
X109151000Y-47029000D02*
X109151000Y-53371000D01*
X109191000Y-47131000D02*
X109191000Y-53269000D01*
X109231000Y-47237000D02*
X109231000Y-53163000D01*
X109271000Y-47346000D02*
X109271000Y-53054000D01*
X109311000Y-47461000D02*
X109311000Y-52939000D01*
X109350000Y-47582000D02*
X109350000Y-52818000D01*
X109390000Y-47708000D02*
X109390000Y-52692000D01*
X109430000Y-47842000D02*
X109430000Y-52558000D01*
X109470000Y-47985000D02*
X109470000Y-52415000D01*
X109510000Y-48138000D02*
X109510000Y-52262000D01*
X109550000Y-48304000D02*
X109550000Y-52096000D01*
X109590000Y-48487000D02*
X109590000Y-51913000D01*
X109630000Y-48692000D02*
X109630000Y-51708000D01*
X109670000Y-48930000D02*
X109670000Y-51470000D01*
X109710000Y-49224000D02*
X109710000Y-51176000D01*
X109750000Y-49653000D02*
X109750000Y-50747000D01*
X91925534Y-45365000D02*
X93625534Y-45365000D01*
X92775534Y-44515000D02*
X92775534Y-46215000D01*
%TO.C,C3*%
X88630000Y-123470000D02*
X88630000Y-120730000D01*
X93870000Y-123470000D02*
X93870000Y-120730000D01*
X93870000Y-120730000D02*
X88630000Y-120730000D01*
X93870000Y-123470000D02*
X88630000Y-123470000D01*
%TO.C,D1*%
X78225000Y-51900000D02*
X87000000Y-51900000D01*
X78200000Y-51900000D02*
G75*
G02*
X87000000Y-51900000I4400000J4252585D01*
G01*
%TO.C,D2*%
X96670000Y-73900000D02*
G75*
G03*
X96670000Y-73900000I-2500000J0D01*
G01*
X91610000Y-72355000D02*
X91610000Y-75445000D01*
X97160000Y-73900462D02*
G75*
G03*
X91610000Y-72355170I-2990000J462D01*
G01*
X97160000Y-73899538D02*
G75*
G02*
X91610000Y-75444830I-2990000J-462D01*
G01*
%TO.C,D3*%
X157070000Y-101300000D02*
G75*
G03*
X157070000Y-101300000I-2500000J0D01*
G01*
X152010000Y-99755000D02*
X152010000Y-102845000D01*
X157560000Y-101300462D02*
G75*
G03*
X152010000Y-99755170I-2990000J462D01*
G01*
X157560000Y-101299538D02*
G75*
G02*
X152010000Y-102844830I-2990000J-462D01*
G01*
%TO.C,D4*%
X152010000Y-90055000D02*
X152010000Y-93145000D01*
X157070000Y-91600000D02*
G75*
G03*
X157070000Y-91600000I-2500000J0D01*
G01*
X157560000Y-91599538D02*
G75*
G02*
X152010000Y-93144830I-2990000J-462D01*
G01*
X157560000Y-91600462D02*
G75*
G03*
X152010000Y-90055170I-2990000J462D01*
G01*
%TO.C,D5*%
X157070000Y-82000000D02*
G75*
G03*
X157070000Y-82000000I-2500000J0D01*
G01*
X152010000Y-80455000D02*
X152010000Y-83545000D01*
X157560000Y-82000462D02*
G75*
G03*
X152010000Y-80455170I-2990000J462D01*
G01*
X157560000Y-81999538D02*
G75*
G02*
X152010000Y-83544830I-2990000J-462D01*
G01*
%TO.C,D6*%
X152010000Y-70655000D02*
X152010000Y-73745000D01*
X157070000Y-72200000D02*
G75*
G03*
X157070000Y-72200000I-2500000J0D01*
G01*
X157560000Y-72199538D02*
G75*
G02*
X152010000Y-73744830I-2990000J-462D01*
G01*
X157560000Y-72200462D02*
G75*
G03*
X152010000Y-70655170I-2990000J462D01*
G01*
%TO.C,D7*%
X157070000Y-62500000D02*
G75*
G03*
X157070000Y-62500000I-2500000J0D01*
G01*
X152010000Y-60955000D02*
X152010000Y-64045000D01*
X157560000Y-62500462D02*
G75*
G03*
X152010000Y-60955170I-2990000J462D01*
G01*
X157560000Y-62499538D02*
G75*
G02*
X152010000Y-64044830I-2990000J-462D01*
G01*
%TO.C,D8*%
X152010000Y-52555000D02*
X152010000Y-55645000D01*
X157070000Y-54100000D02*
G75*
G03*
X157070000Y-54100000I-2500000J0D01*
G01*
X157560000Y-54099538D02*
G75*
G02*
X152010000Y-55644830I-2990000J-462D01*
G01*
X157560000Y-54100462D02*
G75*
G03*
X152010000Y-52555170I-2990000J462D01*
G01*
%TO.C,R1*%
X78940000Y-72860000D02*
X78940000Y-72530000D01*
X78940000Y-72530000D02*
X85480000Y-72530000D01*
X85480000Y-72530000D02*
X85480000Y-72860000D01*
X78940000Y-74940000D02*
X78940000Y-75270000D01*
X78940000Y-75270000D02*
X85480000Y-75270000D01*
X85480000Y-75270000D02*
X85480000Y-74940000D01*
%TO.C,R2*%
X102740000Y-62460000D02*
X102740000Y-62130000D01*
X102740000Y-62130000D02*
X109280000Y-62130000D01*
X109280000Y-62130000D02*
X109280000Y-62460000D01*
X102740000Y-64540000D02*
X102740000Y-64870000D01*
X102740000Y-64870000D02*
X109280000Y-64870000D01*
X109280000Y-64870000D02*
X109280000Y-64540000D01*
%TO.C,R3*%
X102740000Y-66460000D02*
X102740000Y-66130000D01*
X102740000Y-66130000D02*
X109280000Y-66130000D01*
X109280000Y-66130000D02*
X109280000Y-66460000D01*
X102740000Y-68540000D02*
X102740000Y-68870000D01*
X102740000Y-68870000D02*
X109280000Y-68870000D01*
X109280000Y-68870000D02*
X109280000Y-68540000D01*
%TO.C,R4*%
X109280000Y-72970000D02*
X109280000Y-72640000D01*
X102740000Y-72970000D02*
X109280000Y-72970000D01*
X102740000Y-72640000D02*
X102740000Y-72970000D01*
X109280000Y-70230000D02*
X109280000Y-70560000D01*
X102740000Y-70230000D02*
X109280000Y-70230000D01*
X102740000Y-70560000D02*
X102740000Y-70230000D01*
%TO.C,R5*%
X102640000Y-74560000D02*
X102640000Y-74230000D01*
X102640000Y-74230000D02*
X109180000Y-74230000D01*
X109180000Y-74230000D02*
X109180000Y-74560000D01*
X102640000Y-76640000D02*
X102640000Y-76970000D01*
X102640000Y-76970000D02*
X109180000Y-76970000D01*
X109180000Y-76970000D02*
X109180000Y-76640000D01*
%TO.C,R6*%
X109180000Y-80970000D02*
X109180000Y-80640000D01*
X102640000Y-80970000D02*
X109180000Y-80970000D01*
X102640000Y-80640000D02*
X102640000Y-80970000D01*
X109180000Y-78230000D02*
X109180000Y-78560000D01*
X102640000Y-78230000D02*
X109180000Y-78230000D01*
X102640000Y-78560000D02*
X102640000Y-78230000D01*
%TO.C,R7*%
X109180000Y-84970000D02*
X109180000Y-84640000D01*
X102640000Y-84970000D02*
X109180000Y-84970000D01*
X102640000Y-84640000D02*
X102640000Y-84970000D01*
X109180000Y-82230000D02*
X109180000Y-82560000D01*
X102640000Y-82230000D02*
X109180000Y-82230000D01*
X102640000Y-82560000D02*
X102640000Y-82230000D01*
%TO.C,R8*%
X139340000Y-82860000D02*
X139340000Y-82530000D01*
X139340000Y-82530000D02*
X145880000Y-82530000D01*
X145880000Y-82530000D02*
X145880000Y-82860000D01*
X139340000Y-84940000D02*
X139340000Y-85270000D01*
X139340000Y-85270000D02*
X145880000Y-85270000D01*
X145880000Y-85270000D02*
X145880000Y-84940000D01*
%TO.C,R9*%
X145880000Y-81370000D02*
X145880000Y-81040000D01*
X139340000Y-81370000D02*
X145880000Y-81370000D01*
X139340000Y-81040000D02*
X139340000Y-81370000D01*
X145880000Y-78630000D02*
X145880000Y-78960000D01*
X139340000Y-78630000D02*
X145880000Y-78630000D01*
X139340000Y-78960000D02*
X139340000Y-78630000D01*
%TO.C,R10*%
X145880000Y-77570000D02*
X145880000Y-77240000D01*
X139340000Y-77570000D02*
X145880000Y-77570000D01*
X139340000Y-77240000D02*
X139340000Y-77570000D01*
X145880000Y-74830000D02*
X145880000Y-75160000D01*
X139340000Y-74830000D02*
X145880000Y-74830000D01*
X139340000Y-75160000D02*
X139340000Y-74830000D01*
%TO.C,R11*%
X139340000Y-71060000D02*
X139340000Y-70730000D01*
X139340000Y-70730000D02*
X145880000Y-70730000D01*
X145880000Y-70730000D02*
X145880000Y-71060000D01*
X139340000Y-73140000D02*
X139340000Y-73470000D01*
X139340000Y-73470000D02*
X145880000Y-73470000D01*
X145880000Y-73470000D02*
X145880000Y-73140000D01*
%TO.C,R12*%
X145880000Y-69270000D02*
X145880000Y-68940000D01*
X139340000Y-69270000D02*
X145880000Y-69270000D01*
X139340000Y-68940000D02*
X139340000Y-69270000D01*
X145880000Y-66530000D02*
X145880000Y-66860000D01*
X139340000Y-66530000D02*
X145880000Y-66530000D01*
X139340000Y-66860000D02*
X139340000Y-66530000D01*
%TO.C,R13*%
X139340000Y-62860000D02*
X139340000Y-62530000D01*
X139340000Y-62530000D02*
X145880000Y-62530000D01*
X145880000Y-62530000D02*
X145880000Y-62860000D01*
X139340000Y-64940000D02*
X139340000Y-65270000D01*
X139340000Y-65270000D02*
X145880000Y-65270000D01*
X145880000Y-65270000D02*
X145880000Y-64940000D01*
%TO.C,U2*%
X117670000Y-50070000D02*
X117670000Y-47530000D01*
X117670000Y-47530000D02*
X115000000Y-47530000D01*
X115000000Y-50070000D02*
X115000000Y-88300000D01*
X115000000Y-44860000D02*
X115000000Y-47530000D01*
X130370000Y-47530000D02*
X133040000Y-47530000D01*
X130370000Y-47530000D02*
X130370000Y-85630000D01*
X130370000Y-85630000D02*
X133040000Y-85630000D01*
X117670000Y-50070000D02*
X115000000Y-50070000D01*
X117670000Y-50070000D02*
X117670000Y-85630000D01*
X117670000Y-85630000D02*
X115000000Y-85630000D01*
X115000000Y-88300000D02*
X133040000Y-88300000D01*
X133040000Y-88300000D02*
X133040000Y-44860000D01*
X133040000Y-44860000D02*
X115000000Y-44860000D01*
%TO.C,U3*%
X119050000Y-104450000D02*
X106800000Y-104450000D01*
X106750000Y-104450000D02*
X106750000Y-123750000D01*
X119050000Y-123750000D02*
X106800000Y-123750000D01*
X119150000Y-104450000D02*
X119150000Y-123750000D01*
%TO.C,J5*%
X139770000Y-49370000D02*
X141100000Y-49370000D01*
X139770000Y-50700000D02*
X139770000Y-49370000D01*
X139770000Y-51970000D02*
X142430000Y-51970000D01*
X142430000Y-51970000D02*
X142430000Y-54570000D01*
X139770000Y-51970000D02*
X139770000Y-54570000D01*
X139770000Y-54570000D02*
X142430000Y-54570000D01*
D12*
%TO.C,J1*%
X50280000Y-119550000D02*
X50880000Y-119550000D01*
X50280000Y-110050000D02*
X50280000Y-119550000D01*
X50880000Y-110050000D02*
X50280000Y-110050000D01*
X66120000Y-110050000D02*
X50880000Y-110050000D01*
X66120000Y-119550000D02*
X66120000Y-110050000D01*
X50880000Y-119550000D02*
X66120000Y-119550000D01*
X50880000Y-110050000D02*
X50880000Y-119550000D01*
D11*
%TO.C,TR1*%
X47400000Y-71800000D02*
X47400000Y-74800000D01*
X47400000Y-61800000D02*
X47400000Y-69800000D01*
X47400000Y-57300000D02*
X47400000Y-59800000D01*
X69400000Y-54800000D02*
X69400000Y-54300000D01*
X69400000Y-54300000D02*
X47400000Y-54300000D01*
X69400000Y-59800000D02*
X69400000Y-56800000D01*
X69400000Y-64800000D02*
X69400000Y-61800000D01*
X69400000Y-69800000D02*
X69400000Y-66800000D01*
X69400000Y-74800000D02*
X69400000Y-71800000D01*
X47400000Y-76800000D02*
X47400000Y-77300000D01*
X47400000Y-77300000D02*
X69400000Y-77300000D01*
X69400000Y-77300000D02*
X69400000Y-76800000D01*
X72520000Y-50180000D02*
X72520000Y-81420000D01*
X72520000Y-50180000D02*
X44280000Y-50180000D01*
X44280000Y-81420000D02*
X72520000Y-81420000D01*
X44280000Y-81420000D02*
X44280000Y-50180000D01*
%TO.C,J2*%
X97970000Y-115740000D02*
X100630000Y-115740000D01*
X97970000Y-102980000D02*
X97970000Y-115740000D01*
X100630000Y-102980000D02*
X100630000Y-115740000D01*
X97970000Y-102980000D02*
X100630000Y-102980000D01*
X97970000Y-101710000D02*
X97970000Y-100380000D01*
X97970000Y-100380000D02*
X99300000Y-100380000D01*
%TO.C,J3*%
X104970000Y-102530000D02*
X107630000Y-102530000D01*
X104970000Y-89770000D02*
X104970000Y-102530000D01*
X107630000Y-89770000D02*
X107630000Y-102530000D01*
X104970000Y-89770000D02*
X107630000Y-89770000D01*
X104970000Y-88500000D02*
X104970000Y-87170000D01*
X104970000Y-87170000D02*
X106300000Y-87170000D01*
%TO.C,J4*%
X144470000Y-88970000D02*
X145800000Y-88970000D01*
X144470000Y-90300000D02*
X144470000Y-88970000D01*
X144470000Y-91570000D02*
X147130000Y-91570000D01*
X147130000Y-91570000D02*
X147130000Y-104330000D01*
X144470000Y-91570000D02*
X144470000Y-104330000D01*
X144470000Y-104330000D02*
X147130000Y-104330000D01*
%TO.C,J6*%
X121870000Y-120070000D02*
X123200000Y-120070000D01*
X121870000Y-121400000D02*
X121870000Y-120070000D01*
X121870000Y-122670000D02*
X124530000Y-122670000D01*
X124530000Y-122670000D02*
X124530000Y-122730000D01*
X121870000Y-122670000D02*
X121870000Y-122730000D01*
X121870000Y-122730000D02*
X124530000Y-122730000D01*
%TO.C,3\u002C5mm*%
D13*
X48919047Y-120412380D02*
X49538095Y-120412380D01*
X49204761Y-120793333D01*
X49347619Y-120793333D01*
X49442857Y-120840952D01*
X49490476Y-120888571D01*
X49538095Y-120983809D01*
X49538095Y-121221904D01*
X49490476Y-121317142D01*
X49442857Y-121364761D01*
X49347619Y-121412380D01*
X49061904Y-121412380D01*
X48966666Y-121364761D01*
X48919047Y-121317142D01*
X50014285Y-121364761D02*
X50014285Y-121412380D01*
X49966666Y-121507619D01*
X49919047Y-121555238D01*
X50919047Y-120412380D02*
X50442857Y-120412380D01*
X50395238Y-120888571D01*
X50442857Y-120840952D01*
X50538095Y-120793333D01*
X50776190Y-120793333D01*
X50871428Y-120840952D01*
X50919047Y-120888571D01*
X50966666Y-120983809D01*
X50966666Y-121221904D01*
X50919047Y-121317142D01*
X50871428Y-121364761D01*
X50776190Y-121412380D01*
X50538095Y-121412380D01*
X50442857Y-121364761D01*
X50395238Y-121317142D01*
X51395238Y-121412380D02*
X51395238Y-120745714D01*
X51395238Y-120840952D02*
X51442857Y-120793333D01*
X51538095Y-120745714D01*
X51680952Y-120745714D01*
X51776190Y-120793333D01*
X51823809Y-120888571D01*
X51823809Y-121412380D01*
X51823809Y-120888571D02*
X51871428Y-120793333D01*
X51966666Y-120745714D01*
X52109523Y-120745714D01*
X52204761Y-120793333D01*
X52252380Y-120888571D01*
X52252380Y-121412380D01*
X52728571Y-121412380D02*
X52728571Y-120745714D01*
X52728571Y-120840952D02*
X52776190Y-120793333D01*
X52871428Y-120745714D01*
X53014285Y-120745714D01*
X53109523Y-120793333D01*
X53157142Y-120888571D01*
X53157142Y-121412380D01*
X53157142Y-120888571D02*
X53204761Y-120793333D01*
X53300000Y-120745714D01*
X53442857Y-120745714D01*
X53538095Y-120793333D01*
X53585714Y-120888571D01*
X53585714Y-121412380D01*
X48919047Y-43912380D02*
X49538095Y-43912380D01*
X49204761Y-44293333D01*
X49347619Y-44293333D01*
X49442857Y-44340952D01*
X49490476Y-44388571D01*
X49538095Y-44483809D01*
X49538095Y-44721904D01*
X49490476Y-44817142D01*
X49442857Y-44864761D01*
X49347619Y-44912380D01*
X49061904Y-44912380D01*
X48966666Y-44864761D01*
X48919047Y-44817142D01*
X50014285Y-44864761D02*
X50014285Y-44912380D01*
X49966666Y-45007619D01*
X49919047Y-45055238D01*
X50919047Y-43912380D02*
X50442857Y-43912380D01*
X50395238Y-44388571D01*
X50442857Y-44340952D01*
X50538095Y-44293333D01*
X50776190Y-44293333D01*
X50871428Y-44340952D01*
X50919047Y-44388571D01*
X50966666Y-44483809D01*
X50966666Y-44721904D01*
X50919047Y-44817142D01*
X50871428Y-44864761D01*
X50776190Y-44912380D01*
X50538095Y-44912380D01*
X50442857Y-44864761D01*
X50395238Y-44817142D01*
X51395238Y-44912380D02*
X51395238Y-44245714D01*
X51395238Y-44340952D02*
X51442857Y-44293333D01*
X51538095Y-44245714D01*
X51680952Y-44245714D01*
X51776190Y-44293333D01*
X51823809Y-44388571D01*
X51823809Y-44912380D01*
X51823809Y-44388571D02*
X51871428Y-44293333D01*
X51966666Y-44245714D01*
X52109523Y-44245714D01*
X52204761Y-44293333D01*
X52252380Y-44388571D01*
X52252380Y-44912380D01*
X52728571Y-44912380D02*
X52728571Y-44245714D01*
X52728571Y-44340952D02*
X52776190Y-44293333D01*
X52871428Y-44245714D01*
X53014285Y-44245714D01*
X53109523Y-44293333D01*
X53157142Y-44388571D01*
X53157142Y-44912380D01*
X53157142Y-44388571D02*
X53204761Y-44293333D01*
X53300000Y-44245714D01*
X53442857Y-44245714D01*
X53538095Y-44293333D01*
X53585714Y-44388571D01*
X53585714Y-44912380D01*
X161919047Y-120412380D02*
X162538095Y-120412380D01*
X162204761Y-120793333D01*
X162347619Y-120793333D01*
X162442857Y-120840952D01*
X162490476Y-120888571D01*
X162538095Y-120983809D01*
X162538095Y-121221904D01*
X162490476Y-121317142D01*
X162442857Y-121364761D01*
X162347619Y-121412380D01*
X162061904Y-121412380D01*
X161966666Y-121364761D01*
X161919047Y-121317142D01*
X163014285Y-121364761D02*
X163014285Y-121412380D01*
X162966666Y-121507619D01*
X162919047Y-121555238D01*
X163919047Y-120412380D02*
X163442857Y-120412380D01*
X163395238Y-120888571D01*
X163442857Y-120840952D01*
X163538095Y-120793333D01*
X163776190Y-120793333D01*
X163871428Y-120840952D01*
X163919047Y-120888571D01*
X163966666Y-120983809D01*
X163966666Y-121221904D01*
X163919047Y-121317142D01*
X163871428Y-121364761D01*
X163776190Y-121412380D01*
X163538095Y-121412380D01*
X163442857Y-121364761D01*
X163395238Y-121317142D01*
X164395238Y-121412380D02*
X164395238Y-120745714D01*
X164395238Y-120840952D02*
X164442857Y-120793333D01*
X164538095Y-120745714D01*
X164680952Y-120745714D01*
X164776190Y-120793333D01*
X164823809Y-120888571D01*
X164823809Y-121412380D01*
X164823809Y-120888571D02*
X164871428Y-120793333D01*
X164966666Y-120745714D01*
X165109523Y-120745714D01*
X165204761Y-120793333D01*
X165252380Y-120888571D01*
X165252380Y-121412380D01*
X165728571Y-121412380D02*
X165728571Y-120745714D01*
X165728571Y-120840952D02*
X165776190Y-120793333D01*
X165871428Y-120745714D01*
X166014285Y-120745714D01*
X166109523Y-120793333D01*
X166157142Y-120888571D01*
X166157142Y-121412380D01*
X166157142Y-120888571D02*
X166204761Y-120793333D01*
X166300000Y-120745714D01*
X166442857Y-120745714D01*
X166538095Y-120793333D01*
X166585714Y-120888571D01*
X166585714Y-121412380D01*
X161759047Y-43962380D02*
X162378095Y-43962380D01*
X162044761Y-44343333D01*
X162187619Y-44343333D01*
X162282857Y-44390952D01*
X162330476Y-44438571D01*
X162378095Y-44533809D01*
X162378095Y-44771904D01*
X162330476Y-44867142D01*
X162282857Y-44914761D01*
X162187619Y-44962380D01*
X161901904Y-44962380D01*
X161806666Y-44914761D01*
X161759047Y-44867142D01*
X162854285Y-44914761D02*
X162854285Y-44962380D01*
X162806666Y-45057619D01*
X162759047Y-45105238D01*
X163759047Y-43962380D02*
X163282857Y-43962380D01*
X163235238Y-44438571D01*
X163282857Y-44390952D01*
X163378095Y-44343333D01*
X163616190Y-44343333D01*
X163711428Y-44390952D01*
X163759047Y-44438571D01*
X163806666Y-44533809D01*
X163806666Y-44771904D01*
X163759047Y-44867142D01*
X163711428Y-44914761D01*
X163616190Y-44962380D01*
X163378095Y-44962380D01*
X163282857Y-44914761D01*
X163235238Y-44867142D01*
X164235238Y-44962380D02*
X164235238Y-44295714D01*
X164235238Y-44390952D02*
X164282857Y-44343333D01*
X164378095Y-44295714D01*
X164520952Y-44295714D01*
X164616190Y-44343333D01*
X164663809Y-44438571D01*
X164663809Y-44962380D01*
X164663809Y-44438571D02*
X164711428Y-44343333D01*
X164806666Y-44295714D01*
X164949523Y-44295714D01*
X165044761Y-44343333D01*
X165092380Y-44438571D01*
X165092380Y-44962380D01*
X165568571Y-44962380D02*
X165568571Y-44295714D01*
X165568571Y-44390952D02*
X165616190Y-44343333D01*
X165711428Y-44295714D01*
X165854285Y-44295714D01*
X165949523Y-44343333D01*
X165997142Y-44438571D01*
X165997142Y-44962380D01*
X165997142Y-44438571D02*
X166044761Y-44343333D01*
X166140000Y-44295714D01*
X166282857Y-44295714D01*
X166378095Y-44343333D01*
X166425714Y-44438571D01*
X166425714Y-44962380D01*
%TO.C,U1*%
X95038095Y-88162380D02*
X95038095Y-88971904D01*
X95085714Y-89067142D01*
X95133333Y-89114761D01*
X95228571Y-89162380D01*
X95419047Y-89162380D01*
X95514285Y-89114761D01*
X95561904Y-89067142D01*
X95609523Y-88971904D01*
X95609523Y-88162380D01*
X96609523Y-89162380D02*
X96038095Y-89162380D01*
X96323809Y-89162380D02*
X96323809Y-88162380D01*
X96228571Y-88305238D01*
X96133333Y-88400476D01*
X96038095Y-88448095D01*
%TO.C,C2*%
X86633333Y-57657142D02*
X86585714Y-57704761D01*
X86442857Y-57752380D01*
X86347619Y-57752380D01*
X86204761Y-57704761D01*
X86109523Y-57609523D01*
X86061904Y-57514285D01*
X86014285Y-57323809D01*
X86014285Y-57180952D01*
X86061904Y-56990476D01*
X86109523Y-56895238D01*
X86204761Y-56800000D01*
X86347619Y-56752380D01*
X86442857Y-56752380D01*
X86585714Y-56800000D01*
X86633333Y-56847619D01*
X87014285Y-56847619D02*
X87061904Y-56800000D01*
X87157142Y-56752380D01*
X87395238Y-56752380D01*
X87490476Y-56800000D01*
X87538095Y-56847619D01*
X87585714Y-56942857D01*
X87585714Y-57038095D01*
X87538095Y-57180952D01*
X86966666Y-57752380D01*
X87585714Y-57752380D01*
%TO.C,F1*%
X43228571Y-91233333D02*
X43228571Y-91566666D01*
X43752380Y-91566666D02*
X42752380Y-91566666D01*
X42752380Y-91090476D01*
X43752380Y-90185714D02*
X43752380Y-90757142D01*
X43752380Y-90471428D02*
X42752380Y-90471428D01*
X42895238Y-90566666D01*
X42990476Y-90661904D01*
X43038095Y-90757142D01*
X43752380Y-98185714D02*
X43752380Y-98757142D01*
X43752380Y-98471428D02*
X42752380Y-98471428D01*
X42895238Y-98566666D01*
X42990476Y-98661904D01*
X43038095Y-98757142D01*
X42752380Y-97280952D02*
X42752380Y-97757142D01*
X43228571Y-97804761D01*
X43180952Y-97757142D01*
X43133333Y-97661904D01*
X43133333Y-97423809D01*
X43180952Y-97328571D01*
X43228571Y-97280952D01*
X43323809Y-97233333D01*
X43561904Y-97233333D01*
X43657142Y-97280952D01*
X43704761Y-97328571D01*
X43752380Y-97423809D01*
X43752380Y-97661904D01*
X43704761Y-97757142D01*
X43657142Y-97804761D01*
X42752380Y-96614285D02*
X42752380Y-96519047D01*
X42800000Y-96423809D01*
X42847619Y-96376190D01*
X42942857Y-96328571D01*
X43133333Y-96280952D01*
X43371428Y-96280952D01*
X43561904Y-96328571D01*
X43657142Y-96376190D01*
X43704761Y-96423809D01*
X43752380Y-96519047D01*
X43752380Y-96614285D01*
X43704761Y-96709523D01*
X43657142Y-96757142D01*
X43561904Y-96804761D01*
X43371428Y-96852380D01*
X43133333Y-96852380D01*
X42942857Y-96804761D01*
X42847619Y-96757142D01*
X42800000Y-96709523D01*
X42752380Y-96614285D01*
X43752380Y-95852380D02*
X43085714Y-95852380D01*
X43180952Y-95852380D02*
X43133333Y-95804761D01*
X43085714Y-95709523D01*
X43085714Y-95566666D01*
X43133333Y-95471428D01*
X43228571Y-95423809D01*
X43752380Y-95423809D01*
X43228571Y-95423809D02*
X43133333Y-95376190D01*
X43085714Y-95280952D01*
X43085714Y-95138095D01*
X43133333Y-95042857D01*
X43228571Y-94995238D01*
X43752380Y-94995238D01*
X43752380Y-94090476D02*
X43228571Y-94090476D01*
X43133333Y-94138095D01*
X43085714Y-94233333D01*
X43085714Y-94423809D01*
X43133333Y-94519047D01*
X43704761Y-94090476D02*
X43752380Y-94185714D01*
X43752380Y-94423809D01*
X43704761Y-94519047D01*
X43609523Y-94566666D01*
X43514285Y-94566666D01*
X43419047Y-94519047D01*
X43371428Y-94423809D01*
X43371428Y-94185714D01*
X43323809Y-94090476D01*
%TO.C,C1*%
X111253333Y-46917142D02*
X111205714Y-46964761D01*
X111062857Y-47012380D01*
X110967619Y-47012380D01*
X110824761Y-46964761D01*
X110729523Y-46869523D01*
X110681904Y-46774285D01*
X110634285Y-46583809D01*
X110634285Y-46440952D01*
X110681904Y-46250476D01*
X110729523Y-46155238D01*
X110824761Y-46060000D01*
X110967619Y-46012380D01*
X111062857Y-46012380D01*
X111205714Y-46060000D01*
X111253333Y-46107619D01*
X112205714Y-47012380D02*
X111634285Y-47012380D01*
X111920000Y-47012380D02*
X111920000Y-46012380D01*
X111824761Y-46155238D01*
X111729523Y-46250476D01*
X111634285Y-46298095D01*
%TO.C,C3*%
X96033333Y-122557142D02*
X95985714Y-122604761D01*
X95842857Y-122652380D01*
X95747619Y-122652380D01*
X95604761Y-122604761D01*
X95509523Y-122509523D01*
X95461904Y-122414285D01*
X95414285Y-122223809D01*
X95414285Y-122080952D01*
X95461904Y-121890476D01*
X95509523Y-121795238D01*
X95604761Y-121700000D01*
X95747619Y-121652380D01*
X95842857Y-121652380D01*
X95985714Y-121700000D01*
X96033333Y-121747619D01*
X96366666Y-121652380D02*
X96985714Y-121652380D01*
X96652380Y-122033333D01*
X96795238Y-122033333D01*
X96890476Y-122080952D01*
X96938095Y-122128571D01*
X96985714Y-122223809D01*
X96985714Y-122461904D01*
X96938095Y-122557142D01*
X96890476Y-122604761D01*
X96795238Y-122652380D01*
X96509523Y-122652380D01*
X96414285Y-122604761D01*
X96366666Y-122557142D01*
%TO.C,D1*%
X76811904Y-42027380D02*
X76811904Y-41027380D01*
X77050000Y-41027380D01*
X77192857Y-41075000D01*
X77288095Y-41170238D01*
X77335714Y-41265476D01*
X77383333Y-41455952D01*
X77383333Y-41598809D01*
X77335714Y-41789285D01*
X77288095Y-41884523D01*
X77192857Y-41979761D01*
X77050000Y-42027380D01*
X76811904Y-42027380D01*
X78335714Y-42027380D02*
X77764285Y-42027380D01*
X78050000Y-42027380D02*
X78050000Y-41027380D01*
X77954761Y-41170238D01*
X77859523Y-41265476D01*
X77764285Y-41313095D01*
%TO.C,D2*%
X93431904Y-70392380D02*
X93431904Y-69392380D01*
X93670000Y-69392380D01*
X93812857Y-69440000D01*
X93908095Y-69535238D01*
X93955714Y-69630476D01*
X94003333Y-69820952D01*
X94003333Y-69963809D01*
X93955714Y-70154285D01*
X93908095Y-70249523D01*
X93812857Y-70344761D01*
X93670000Y-70392380D01*
X93431904Y-70392380D01*
X94384285Y-69487619D02*
X94431904Y-69440000D01*
X94527142Y-69392380D01*
X94765238Y-69392380D01*
X94860476Y-69440000D01*
X94908095Y-69487619D01*
X94955714Y-69582857D01*
X94955714Y-69678095D01*
X94908095Y-69820952D01*
X94336666Y-70392380D01*
X94955714Y-70392380D01*
%TO.C,D3*%
X153831904Y-97792380D02*
X153831904Y-96792380D01*
X154070000Y-96792380D01*
X154212857Y-96840000D01*
X154308095Y-96935238D01*
X154355714Y-97030476D01*
X154403333Y-97220952D01*
X154403333Y-97363809D01*
X154355714Y-97554285D01*
X154308095Y-97649523D01*
X154212857Y-97744761D01*
X154070000Y-97792380D01*
X153831904Y-97792380D01*
X154736666Y-96792380D02*
X155355714Y-96792380D01*
X155022380Y-97173333D01*
X155165238Y-97173333D01*
X155260476Y-97220952D01*
X155308095Y-97268571D01*
X155355714Y-97363809D01*
X155355714Y-97601904D01*
X155308095Y-97697142D01*
X155260476Y-97744761D01*
X155165238Y-97792380D01*
X154879523Y-97792380D01*
X154784285Y-97744761D01*
X154736666Y-97697142D01*
%TO.C,D4*%
X153831904Y-88092380D02*
X153831904Y-87092380D01*
X154070000Y-87092380D01*
X154212857Y-87140000D01*
X154308095Y-87235238D01*
X154355714Y-87330476D01*
X154403333Y-87520952D01*
X154403333Y-87663809D01*
X154355714Y-87854285D01*
X154308095Y-87949523D01*
X154212857Y-88044761D01*
X154070000Y-88092380D01*
X153831904Y-88092380D01*
X155260476Y-87425714D02*
X155260476Y-88092380D01*
X155022380Y-87044761D02*
X154784285Y-87759047D01*
X155403333Y-87759047D01*
%TO.C,D5*%
X153831904Y-78492380D02*
X153831904Y-77492380D01*
X154070000Y-77492380D01*
X154212857Y-77540000D01*
X154308095Y-77635238D01*
X154355714Y-77730476D01*
X154403333Y-77920952D01*
X154403333Y-78063809D01*
X154355714Y-78254285D01*
X154308095Y-78349523D01*
X154212857Y-78444761D01*
X154070000Y-78492380D01*
X153831904Y-78492380D01*
X155308095Y-77492380D02*
X154831904Y-77492380D01*
X154784285Y-77968571D01*
X154831904Y-77920952D01*
X154927142Y-77873333D01*
X155165238Y-77873333D01*
X155260476Y-77920952D01*
X155308095Y-77968571D01*
X155355714Y-78063809D01*
X155355714Y-78301904D01*
X155308095Y-78397142D01*
X155260476Y-78444761D01*
X155165238Y-78492380D01*
X154927142Y-78492380D01*
X154831904Y-78444761D01*
X154784285Y-78397142D01*
%TO.C,D6*%
X153831904Y-68692380D02*
X153831904Y-67692380D01*
X154070000Y-67692380D01*
X154212857Y-67740000D01*
X154308095Y-67835238D01*
X154355714Y-67930476D01*
X154403333Y-68120952D01*
X154403333Y-68263809D01*
X154355714Y-68454285D01*
X154308095Y-68549523D01*
X154212857Y-68644761D01*
X154070000Y-68692380D01*
X153831904Y-68692380D01*
X155260476Y-67692380D02*
X155070000Y-67692380D01*
X154974761Y-67740000D01*
X154927142Y-67787619D01*
X154831904Y-67930476D01*
X154784285Y-68120952D01*
X154784285Y-68501904D01*
X154831904Y-68597142D01*
X154879523Y-68644761D01*
X154974761Y-68692380D01*
X155165238Y-68692380D01*
X155260476Y-68644761D01*
X155308095Y-68597142D01*
X155355714Y-68501904D01*
X155355714Y-68263809D01*
X155308095Y-68168571D01*
X155260476Y-68120952D01*
X155165238Y-68073333D01*
X154974761Y-68073333D01*
X154879523Y-68120952D01*
X154831904Y-68168571D01*
X154784285Y-68263809D01*
%TO.C,D7*%
X153831904Y-58992380D02*
X153831904Y-57992380D01*
X154070000Y-57992380D01*
X154212857Y-58040000D01*
X154308095Y-58135238D01*
X154355714Y-58230476D01*
X154403333Y-58420952D01*
X154403333Y-58563809D01*
X154355714Y-58754285D01*
X154308095Y-58849523D01*
X154212857Y-58944761D01*
X154070000Y-58992380D01*
X153831904Y-58992380D01*
X154736666Y-57992380D02*
X155403333Y-57992380D01*
X154974761Y-58992380D01*
%TO.C,D8*%
X153831904Y-50592380D02*
X153831904Y-49592380D01*
X154070000Y-49592380D01*
X154212857Y-49640000D01*
X154308095Y-49735238D01*
X154355714Y-49830476D01*
X154403333Y-50020952D01*
X154403333Y-50163809D01*
X154355714Y-50354285D01*
X154308095Y-50449523D01*
X154212857Y-50544761D01*
X154070000Y-50592380D01*
X153831904Y-50592380D01*
X154974761Y-50020952D02*
X154879523Y-49973333D01*
X154831904Y-49925714D01*
X154784285Y-49830476D01*
X154784285Y-49782857D01*
X154831904Y-49687619D01*
X154879523Y-49640000D01*
X154974761Y-49592380D01*
X155165238Y-49592380D01*
X155260476Y-49640000D01*
X155308095Y-49687619D01*
X155355714Y-49782857D01*
X155355714Y-49830476D01*
X155308095Y-49925714D01*
X155260476Y-49973333D01*
X155165238Y-50020952D01*
X154974761Y-50020952D01*
X154879523Y-50068571D01*
X154831904Y-50116190D01*
X154784285Y-50211428D01*
X154784285Y-50401904D01*
X154831904Y-50497142D01*
X154879523Y-50544761D01*
X154974761Y-50592380D01*
X155165238Y-50592380D01*
X155260476Y-50544761D01*
X155308095Y-50497142D01*
X155355714Y-50401904D01*
X155355714Y-50211428D01*
X155308095Y-50116190D01*
X155260476Y-50068571D01*
X155165238Y-50020952D01*
%TO.C,R1*%
X82043333Y-71982380D02*
X81710000Y-71506190D01*
X81471904Y-71982380D02*
X81471904Y-70982380D01*
X81852857Y-70982380D01*
X81948095Y-71030000D01*
X81995714Y-71077619D01*
X82043333Y-71172857D01*
X82043333Y-71315714D01*
X81995714Y-71410952D01*
X81948095Y-71458571D01*
X81852857Y-71506190D01*
X81471904Y-71506190D01*
X82995714Y-71982380D02*
X82424285Y-71982380D01*
X82710000Y-71982380D02*
X82710000Y-70982380D01*
X82614761Y-71125238D01*
X82519523Y-71220476D01*
X82424285Y-71268095D01*
%TO.C,R2*%
X99333333Y-63052380D02*
X99000000Y-62576190D01*
X98761904Y-63052380D02*
X98761904Y-62052380D01*
X99142857Y-62052380D01*
X99238095Y-62100000D01*
X99285714Y-62147619D01*
X99333333Y-62242857D01*
X99333333Y-62385714D01*
X99285714Y-62480952D01*
X99238095Y-62528571D01*
X99142857Y-62576190D01*
X98761904Y-62576190D01*
X99714285Y-62147619D02*
X99761904Y-62100000D01*
X99857142Y-62052380D01*
X100095238Y-62052380D01*
X100190476Y-62100000D01*
X100238095Y-62147619D01*
X100285714Y-62242857D01*
X100285714Y-62338095D01*
X100238095Y-62480952D01*
X99666666Y-63052380D01*
X100285714Y-63052380D01*
%TO.C,R3*%
X99533333Y-67052380D02*
X99200000Y-66576190D01*
X98961904Y-67052380D02*
X98961904Y-66052380D01*
X99342857Y-66052380D01*
X99438095Y-66100000D01*
X99485714Y-66147619D01*
X99533333Y-66242857D01*
X99533333Y-66385714D01*
X99485714Y-66480952D01*
X99438095Y-66528571D01*
X99342857Y-66576190D01*
X98961904Y-66576190D01*
X99866666Y-66052380D02*
X100485714Y-66052380D01*
X100152380Y-66433333D01*
X100295238Y-66433333D01*
X100390476Y-66480952D01*
X100438095Y-66528571D01*
X100485714Y-66623809D01*
X100485714Y-66861904D01*
X100438095Y-66957142D01*
X100390476Y-67004761D01*
X100295238Y-67052380D01*
X100009523Y-67052380D01*
X99914285Y-67004761D01*
X99866666Y-66957142D01*
%TO.C,R4*%
X99633333Y-70852380D02*
X99300000Y-70376190D01*
X99061904Y-70852380D02*
X99061904Y-69852380D01*
X99442857Y-69852380D01*
X99538095Y-69900000D01*
X99585714Y-69947619D01*
X99633333Y-70042857D01*
X99633333Y-70185714D01*
X99585714Y-70280952D01*
X99538095Y-70328571D01*
X99442857Y-70376190D01*
X99061904Y-70376190D01*
X100490476Y-70185714D02*
X100490476Y-70852380D01*
X100252380Y-69804761D02*
X100014285Y-70519047D01*
X100633333Y-70519047D01*
%TO.C,R5*%
X99533333Y-75052380D02*
X99200000Y-74576190D01*
X98961904Y-75052380D02*
X98961904Y-74052380D01*
X99342857Y-74052380D01*
X99438095Y-74100000D01*
X99485714Y-74147619D01*
X99533333Y-74242857D01*
X99533333Y-74385714D01*
X99485714Y-74480952D01*
X99438095Y-74528571D01*
X99342857Y-74576190D01*
X98961904Y-74576190D01*
X100438095Y-74052380D02*
X99961904Y-74052380D01*
X99914285Y-74528571D01*
X99961904Y-74480952D01*
X100057142Y-74433333D01*
X100295238Y-74433333D01*
X100390476Y-74480952D01*
X100438095Y-74528571D01*
X100485714Y-74623809D01*
X100485714Y-74861904D01*
X100438095Y-74957142D01*
X100390476Y-75004761D01*
X100295238Y-75052380D01*
X100057142Y-75052380D01*
X99961904Y-75004761D01*
X99914285Y-74957142D01*
%TO.C,R6*%
X99533333Y-79152380D02*
X99200000Y-78676190D01*
X98961904Y-79152380D02*
X98961904Y-78152380D01*
X99342857Y-78152380D01*
X99438095Y-78200000D01*
X99485714Y-78247619D01*
X99533333Y-78342857D01*
X99533333Y-78485714D01*
X99485714Y-78580952D01*
X99438095Y-78628571D01*
X99342857Y-78676190D01*
X98961904Y-78676190D01*
X100390476Y-78152380D02*
X100200000Y-78152380D01*
X100104761Y-78200000D01*
X100057142Y-78247619D01*
X99961904Y-78390476D01*
X99914285Y-78580952D01*
X99914285Y-78961904D01*
X99961904Y-79057142D01*
X100009523Y-79104761D01*
X100104761Y-79152380D01*
X100295238Y-79152380D01*
X100390476Y-79104761D01*
X100438095Y-79057142D01*
X100485714Y-78961904D01*
X100485714Y-78723809D01*
X100438095Y-78628571D01*
X100390476Y-78580952D01*
X100295238Y-78533333D01*
X100104761Y-78533333D01*
X100009523Y-78580952D01*
X99961904Y-78628571D01*
X99914285Y-78723809D01*
%TO.C,R7*%
X99433333Y-83152380D02*
X99100000Y-82676190D01*
X98861904Y-83152380D02*
X98861904Y-82152380D01*
X99242857Y-82152380D01*
X99338095Y-82200000D01*
X99385714Y-82247619D01*
X99433333Y-82342857D01*
X99433333Y-82485714D01*
X99385714Y-82580952D01*
X99338095Y-82628571D01*
X99242857Y-82676190D01*
X98861904Y-82676190D01*
X99766666Y-82152380D02*
X100433333Y-82152380D01*
X100004761Y-83152380D01*
%TO.C,R8*%
X142443333Y-81982380D02*
X142110000Y-81506190D01*
X141871904Y-81982380D02*
X141871904Y-80982380D01*
X142252857Y-80982380D01*
X142348095Y-81030000D01*
X142395714Y-81077619D01*
X142443333Y-81172857D01*
X142443333Y-81315714D01*
X142395714Y-81410952D01*
X142348095Y-81458571D01*
X142252857Y-81506190D01*
X141871904Y-81506190D01*
X143014761Y-81410952D02*
X142919523Y-81363333D01*
X142871904Y-81315714D01*
X142824285Y-81220476D01*
X142824285Y-81172857D01*
X142871904Y-81077619D01*
X142919523Y-81030000D01*
X143014761Y-80982380D01*
X143205238Y-80982380D01*
X143300476Y-81030000D01*
X143348095Y-81077619D01*
X143395714Y-81172857D01*
X143395714Y-81220476D01*
X143348095Y-81315714D01*
X143300476Y-81363333D01*
X143205238Y-81410952D01*
X143014761Y-81410952D01*
X142919523Y-81458571D01*
X142871904Y-81506190D01*
X142824285Y-81601428D01*
X142824285Y-81791904D01*
X142871904Y-81887142D01*
X142919523Y-81934761D01*
X143014761Y-81982380D01*
X143205238Y-81982380D01*
X143300476Y-81934761D01*
X143348095Y-81887142D01*
X143395714Y-81791904D01*
X143395714Y-81601428D01*
X143348095Y-81506190D01*
X143300476Y-81458571D01*
X143205238Y-81410952D01*
%TO.C,R9*%
X142443333Y-78082380D02*
X142110000Y-77606190D01*
X141871904Y-78082380D02*
X141871904Y-77082380D01*
X142252857Y-77082380D01*
X142348095Y-77130000D01*
X142395714Y-77177619D01*
X142443333Y-77272857D01*
X142443333Y-77415714D01*
X142395714Y-77510952D01*
X142348095Y-77558571D01*
X142252857Y-77606190D01*
X141871904Y-77606190D01*
X142919523Y-78082380D02*
X143110000Y-78082380D01*
X143205238Y-78034761D01*
X143252857Y-77987142D01*
X143348095Y-77844285D01*
X143395714Y-77653809D01*
X143395714Y-77272857D01*
X143348095Y-77177619D01*
X143300476Y-77130000D01*
X143205238Y-77082380D01*
X143014761Y-77082380D01*
X142919523Y-77130000D01*
X142871904Y-77177619D01*
X142824285Y-77272857D01*
X142824285Y-77510952D01*
X142871904Y-77606190D01*
X142919523Y-77653809D01*
X143014761Y-77701428D01*
X143205238Y-77701428D01*
X143300476Y-77653809D01*
X143348095Y-77606190D01*
X143395714Y-77510952D01*
%TO.C,R10*%
X141967142Y-74282380D02*
X141633809Y-73806190D01*
X141395714Y-74282380D02*
X141395714Y-73282380D01*
X141776666Y-73282380D01*
X141871904Y-73330000D01*
X141919523Y-73377619D01*
X141967142Y-73472857D01*
X141967142Y-73615714D01*
X141919523Y-73710952D01*
X141871904Y-73758571D01*
X141776666Y-73806190D01*
X141395714Y-73806190D01*
X142919523Y-74282380D02*
X142348095Y-74282380D01*
X142633809Y-74282380D02*
X142633809Y-73282380D01*
X142538571Y-73425238D01*
X142443333Y-73520476D01*
X142348095Y-73568095D01*
X143538571Y-73282380D02*
X143633809Y-73282380D01*
X143729047Y-73330000D01*
X143776666Y-73377619D01*
X143824285Y-73472857D01*
X143871904Y-73663333D01*
X143871904Y-73901428D01*
X143824285Y-74091904D01*
X143776666Y-74187142D01*
X143729047Y-74234761D01*
X143633809Y-74282380D01*
X143538571Y-74282380D01*
X143443333Y-74234761D01*
X143395714Y-74187142D01*
X143348095Y-74091904D01*
X143300476Y-73901428D01*
X143300476Y-73663333D01*
X143348095Y-73472857D01*
X143395714Y-73377619D01*
X143443333Y-73330000D01*
X143538571Y-73282380D01*
%TO.C,R11*%
X141967142Y-70182380D02*
X141633809Y-69706190D01*
X141395714Y-70182380D02*
X141395714Y-69182380D01*
X141776666Y-69182380D01*
X141871904Y-69230000D01*
X141919523Y-69277619D01*
X141967142Y-69372857D01*
X141967142Y-69515714D01*
X141919523Y-69610952D01*
X141871904Y-69658571D01*
X141776666Y-69706190D01*
X141395714Y-69706190D01*
X142919523Y-70182380D02*
X142348095Y-70182380D01*
X142633809Y-70182380D02*
X142633809Y-69182380D01*
X142538571Y-69325238D01*
X142443333Y-69420476D01*
X142348095Y-69468095D01*
X143871904Y-70182380D02*
X143300476Y-70182380D01*
X143586190Y-70182380D02*
X143586190Y-69182380D01*
X143490952Y-69325238D01*
X143395714Y-69420476D01*
X143300476Y-69468095D01*
%TO.C,R12*%
X141967142Y-65982380D02*
X141633809Y-65506190D01*
X141395714Y-65982380D02*
X141395714Y-64982380D01*
X141776666Y-64982380D01*
X141871904Y-65030000D01*
X141919523Y-65077619D01*
X141967142Y-65172857D01*
X141967142Y-65315714D01*
X141919523Y-65410952D01*
X141871904Y-65458571D01*
X141776666Y-65506190D01*
X141395714Y-65506190D01*
X142919523Y-65982380D02*
X142348095Y-65982380D01*
X142633809Y-65982380D02*
X142633809Y-64982380D01*
X142538571Y-65125238D01*
X142443333Y-65220476D01*
X142348095Y-65268095D01*
X143300476Y-65077619D02*
X143348095Y-65030000D01*
X143443333Y-64982380D01*
X143681428Y-64982380D01*
X143776666Y-65030000D01*
X143824285Y-65077619D01*
X143871904Y-65172857D01*
X143871904Y-65268095D01*
X143824285Y-65410952D01*
X143252857Y-65982380D01*
X143871904Y-65982380D01*
%TO.C,R13*%
X141967142Y-61982380D02*
X141633809Y-61506190D01*
X141395714Y-61982380D02*
X141395714Y-60982380D01*
X141776666Y-60982380D01*
X141871904Y-61030000D01*
X141919523Y-61077619D01*
X141967142Y-61172857D01*
X141967142Y-61315714D01*
X141919523Y-61410952D01*
X141871904Y-61458571D01*
X141776666Y-61506190D01*
X141395714Y-61506190D01*
X142919523Y-61982380D02*
X142348095Y-61982380D01*
X142633809Y-61982380D02*
X142633809Y-60982380D01*
X142538571Y-61125238D01*
X142443333Y-61220476D01*
X142348095Y-61268095D01*
X143252857Y-60982380D02*
X143871904Y-60982380D01*
X143538571Y-61363333D01*
X143681428Y-61363333D01*
X143776666Y-61410952D01*
X143824285Y-61458571D01*
X143871904Y-61553809D01*
X143871904Y-61791904D01*
X143824285Y-61887142D01*
X143776666Y-61934761D01*
X143681428Y-61982380D01*
X143395714Y-61982380D01*
X143300476Y-61934761D01*
X143252857Y-61887142D01*
%TO.C,U2*%
X134538095Y-43162380D02*
X134538095Y-43971904D01*
X134585714Y-44067142D01*
X134633333Y-44114761D01*
X134728571Y-44162380D01*
X134919047Y-44162380D01*
X135014285Y-44114761D01*
X135061904Y-44067142D01*
X135109523Y-43971904D01*
X135109523Y-43162380D01*
X135538095Y-43257619D02*
X135585714Y-43210000D01*
X135680952Y-43162380D01*
X135919047Y-43162380D01*
X136014285Y-43210000D01*
X136061904Y-43257619D01*
X136109523Y-43352857D01*
X136109523Y-43448095D01*
X136061904Y-43590952D01*
X135490476Y-44162380D01*
X136109523Y-44162380D01*
%TO.C,U3*%
X120638095Y-104252380D02*
X120638095Y-105061904D01*
X120685714Y-105157142D01*
X120733333Y-105204761D01*
X120828571Y-105252380D01*
X121019047Y-105252380D01*
X121114285Y-105204761D01*
X121161904Y-105157142D01*
X121209523Y-105061904D01*
X121209523Y-104252380D01*
X121590476Y-104252380D02*
X122209523Y-104252380D01*
X121876190Y-104633333D01*
X122019047Y-104633333D01*
X122114285Y-104680952D01*
X122161904Y-104728571D01*
X122209523Y-104823809D01*
X122209523Y-105061904D01*
X122161904Y-105157142D01*
X122114285Y-105204761D01*
X122019047Y-105252380D01*
X121733333Y-105252380D01*
X121638095Y-105204761D01*
X121590476Y-105157142D01*
%TO.C,J5*%
X140766666Y-46662380D02*
X140766666Y-47376666D01*
X140719047Y-47519523D01*
X140623809Y-47614761D01*
X140480952Y-47662380D01*
X140385714Y-47662380D01*
X141719047Y-46662380D02*
X141242857Y-46662380D01*
X141195238Y-47138571D01*
X141242857Y-47090952D01*
X141338095Y-47043333D01*
X141576190Y-47043333D01*
X141671428Y-47090952D01*
X141719047Y-47138571D01*
X141766666Y-47233809D01*
X141766666Y-47471904D01*
X141719047Y-47567142D01*
X141671428Y-47614761D01*
X141576190Y-47662380D01*
X141338095Y-47662380D01*
X141242857Y-47614761D01*
X141195238Y-47567142D01*
%TO.C,J1*%
D14*
X57766666Y-107952380D02*
X57766666Y-108666666D01*
X57719047Y-108809523D01*
X57623809Y-108904761D01*
X57480952Y-108952380D01*
X57385714Y-108952380D01*
X58766666Y-108952380D02*
X58195238Y-108952380D01*
X58480952Y-108952380D02*
X58480952Y-107952380D01*
X58385714Y-108095238D01*
X58290476Y-108190476D01*
X58195238Y-108238095D01*
%TO.C,TR1*%
D13*
X55438095Y-47252380D02*
X56009523Y-47252380D01*
X55723809Y-48252380D02*
X55723809Y-47252380D01*
X56914285Y-48252380D02*
X56580952Y-47776190D01*
X56342857Y-48252380D02*
X56342857Y-47252380D01*
X56723809Y-47252380D01*
X56819047Y-47300000D01*
X56866666Y-47347619D01*
X56914285Y-47442857D01*
X56914285Y-47585714D01*
X56866666Y-47680952D01*
X56819047Y-47728571D01*
X56723809Y-47776190D01*
X56342857Y-47776190D01*
X57866666Y-48252380D02*
X57295238Y-48252380D01*
X57580952Y-48252380D02*
X57580952Y-47252380D01*
X57485714Y-47395238D01*
X57390476Y-47490476D01*
X57295238Y-47538095D01*
X71352380Y-55990476D02*
X71352380Y-56561904D01*
X71352380Y-56276190D02*
X70352380Y-56276190D01*
X70495238Y-56371428D01*
X70590476Y-56466666D01*
X70638095Y-56561904D01*
X70352380Y-55371428D02*
X70352380Y-55276190D01*
X70400000Y-55180952D01*
X70447619Y-55133333D01*
X70542857Y-55085714D01*
X70733333Y-55038095D01*
X70971428Y-55038095D01*
X71161904Y-55085714D01*
X71257142Y-55133333D01*
X71304761Y-55180952D01*
X71352380Y-55276190D01*
X71352380Y-55371428D01*
X71304761Y-55466666D01*
X71257142Y-55514285D01*
X71161904Y-55561904D01*
X70971428Y-55609523D01*
X70733333Y-55609523D01*
X70542857Y-55561904D01*
X70447619Y-55514285D01*
X70400000Y-55466666D01*
X70352380Y-55371428D01*
X71352380Y-60990476D02*
X71352380Y-60800000D01*
X71304761Y-60704761D01*
X71257142Y-60657142D01*
X71114285Y-60561904D01*
X70923809Y-60514285D01*
X70542857Y-60514285D01*
X70447619Y-60561904D01*
X70400000Y-60609523D01*
X70352380Y-60704761D01*
X70352380Y-60895238D01*
X70400000Y-60990476D01*
X70447619Y-61038095D01*
X70542857Y-61085714D01*
X70780952Y-61085714D01*
X70876190Y-61038095D01*
X70923809Y-60990476D01*
X70971428Y-60895238D01*
X70971428Y-60704761D01*
X70923809Y-60609523D01*
X70876190Y-60561904D01*
X70780952Y-60514285D01*
X70780952Y-65895238D02*
X70733333Y-65990476D01*
X70685714Y-66038095D01*
X70590476Y-66085714D01*
X70542857Y-66085714D01*
X70447619Y-66038095D01*
X70400000Y-65990476D01*
X70352380Y-65895238D01*
X70352380Y-65704761D01*
X70400000Y-65609523D01*
X70447619Y-65561904D01*
X70542857Y-65514285D01*
X70590476Y-65514285D01*
X70685714Y-65561904D01*
X70733333Y-65609523D01*
X70780952Y-65704761D01*
X70780952Y-65895238D01*
X70828571Y-65990476D01*
X70876190Y-66038095D01*
X70971428Y-66085714D01*
X71161904Y-66085714D01*
X71257142Y-66038095D01*
X71304761Y-65990476D01*
X71352380Y-65895238D01*
X71352380Y-65704761D01*
X71304761Y-65609523D01*
X71257142Y-65561904D01*
X71161904Y-65514285D01*
X70971428Y-65514285D01*
X70876190Y-65561904D01*
X70828571Y-65609523D01*
X70780952Y-65704761D01*
X70352380Y-71133333D02*
X70352380Y-70466666D01*
X71352380Y-70895238D01*
X70352380Y-75609523D02*
X70352380Y-75800000D01*
X70400000Y-75895238D01*
X70447619Y-75942857D01*
X70590476Y-76038095D01*
X70780952Y-76085714D01*
X71161904Y-76085714D01*
X71257142Y-76038095D01*
X71304761Y-75990476D01*
X71352380Y-75895238D01*
X71352380Y-75704761D01*
X71304761Y-75609523D01*
X71257142Y-75561904D01*
X71161904Y-75514285D01*
X70923809Y-75514285D01*
X70828571Y-75561904D01*
X70780952Y-75609523D01*
X70733333Y-75704761D01*
X70733333Y-75895238D01*
X70780952Y-75990476D01*
X70828571Y-76038095D01*
X70923809Y-76085714D01*
X44852380Y-75561904D02*
X44852380Y-76038095D01*
X45328571Y-76085714D01*
X45280952Y-76038095D01*
X45233333Y-75942857D01*
X45233333Y-75704761D01*
X45280952Y-75609523D01*
X45328571Y-75561904D01*
X45423809Y-75514285D01*
X45661904Y-75514285D01*
X45757142Y-75561904D01*
X45804761Y-75609523D01*
X45852380Y-75704761D01*
X45852380Y-75942857D01*
X45804761Y-76038095D01*
X45757142Y-76085714D01*
X45185714Y-70609523D02*
X45852380Y-70609523D01*
X44804761Y-70847619D02*
X45519047Y-71085714D01*
X45519047Y-70466666D01*
X44852380Y-66133333D02*
X44852380Y-65514285D01*
X45233333Y-65847619D01*
X45233333Y-65704761D01*
X45280952Y-65609523D01*
X45328571Y-65561904D01*
X45423809Y-65514285D01*
X45661904Y-65514285D01*
X45757142Y-65561904D01*
X45804761Y-65609523D01*
X45852380Y-65704761D01*
X45852380Y-65990476D01*
X45804761Y-66085714D01*
X45757142Y-66133333D01*
X44947619Y-61085714D02*
X44900000Y-61038095D01*
X44852380Y-60942857D01*
X44852380Y-60704761D01*
X44900000Y-60609523D01*
X44947619Y-60561904D01*
X45042857Y-60514285D01*
X45138095Y-60514285D01*
X45280952Y-60561904D01*
X45852380Y-61133333D01*
X45852380Y-60514285D01*
X45852380Y-55514285D02*
X45852380Y-56085714D01*
X45852380Y-55800000D02*
X44852380Y-55800000D01*
X44995238Y-55895238D01*
X45090476Y-55990476D01*
X45138095Y-56085714D01*
%TO.C,J2*%
X98640666Y-98336380D02*
X98640666Y-99050666D01*
X98593047Y-99193523D01*
X98497809Y-99288761D01*
X98354952Y-99336380D01*
X98259714Y-99336380D01*
X99069238Y-98431619D02*
X99116857Y-98384000D01*
X99212095Y-98336380D01*
X99450190Y-98336380D01*
X99545428Y-98384000D01*
X99593047Y-98431619D01*
X99640666Y-98526857D01*
X99640666Y-98622095D01*
X99593047Y-98764952D01*
X99021619Y-99336380D01*
X99640666Y-99336380D01*
%TO.C,J3*%
X108800666Y-93002380D02*
X108800666Y-93716666D01*
X108753047Y-93859523D01*
X108657809Y-93954761D01*
X108514952Y-94002380D01*
X108419714Y-94002380D01*
X109181619Y-93002380D02*
X109800666Y-93002380D01*
X109467333Y-93383333D01*
X109610190Y-93383333D01*
X109705428Y-93430952D01*
X109753047Y-93478571D01*
X109800666Y-93573809D01*
X109800666Y-93811904D01*
X109753047Y-93907142D01*
X109705428Y-93954761D01*
X109610190Y-94002380D01*
X109324476Y-94002380D01*
X109229238Y-93954761D01*
X109181619Y-93907142D01*
%TO.C,J4*%
X137966666Y-93662380D02*
X137966666Y-94376666D01*
X137919047Y-94519523D01*
X137823809Y-94614761D01*
X137680952Y-94662380D01*
X137585714Y-94662380D01*
X138871428Y-93995714D02*
X138871428Y-94662380D01*
X138633333Y-93614761D02*
X138395238Y-94329047D01*
X139014285Y-94329047D01*
%TO.C,J6*%
X123024666Y-117894380D02*
X123024666Y-118608666D01*
X122977047Y-118751523D01*
X122881809Y-118846761D01*
X122738952Y-118894380D01*
X122643714Y-118894380D01*
X123929428Y-117894380D02*
X123738952Y-117894380D01*
X123643714Y-117942000D01*
X123596095Y-117989619D01*
X123500857Y-118132476D01*
X123453238Y-118322952D01*
X123453238Y-118703904D01*
X123500857Y-118799142D01*
X123548476Y-118846761D01*
X123643714Y-118894380D01*
X123834190Y-118894380D01*
X123929428Y-118846761D01*
X123977047Y-118799142D01*
X124024666Y-118703904D01*
X124024666Y-118465809D01*
X123977047Y-118370571D01*
X123929428Y-118322952D01*
X123834190Y-118275333D01*
X123643714Y-118275333D01*
X123548476Y-118322952D01*
X123500857Y-118370571D01*
X123453238Y-118465809D01*
%TD*%
M02*
