M48
; DRILL file {KiCad (5.1.8)-1} date 12/10/21 15:41:35
; FORMAT={-:-/ absolute / inch / decimal}
; #@! TF.CreationDate,2021-12-10T15:41:35+01:00
; #@! TF.GenerationSoftware,Kicad,Pcbnew,(5.1.8)-1
; #@! TF.FileFunction,Plated,1,2,PTH
FMAT,2
INCH
T1C0.0236
T2C0.0276
T3C0.0315
T4C0.0354
T5C0.0394
T6C0.0472
T7C0.0512
T8C0.1260
%
G90
G05
T1
X6.0354Y-3.9882
X6.1354Y-3.9882
X6.0354Y-2.4606
X6.1354Y-2.4606
X3.6575Y-2.9094
X3.7575Y-2.9094
X6.0354Y-3.6063
X6.1354Y-3.6063
X6.0354Y-2.1299
X6.1354Y-2.1299
X6.0354Y-3.2283
X6.1354Y-3.2283
X6.0354Y-2.8425
X6.1354Y-2.8425
T2
X5.1827Y-1.9213
T3
X5.4646Y-3.3031
X5.7646Y-3.3031
X4.8504Y-4.7795
X3.8346Y-1.9764
X4.1299Y-1.9764
X4.0197Y-3.2913
X4.3197Y-3.2913
X5.5551Y-1.9961
X5.5551Y-2.0961
X4.2949Y-4.7799
X4.3949Y-4.7799
X4.4949Y-4.7799
X4.5949Y-4.7799
X3.063Y-2.5
X3.6535Y-2.5
X4.0197Y-2.9764
X4.3197Y-2.9764
X3.5433Y-4.8071
X3.6417Y-4.8071
X5.4646Y-2.5157
X5.7646Y-2.5157
X4.5827Y-1.9213
X4.5827Y-2.0213
X4.5827Y-2.1213
X4.5827Y-2.2213
X4.5827Y-2.3213
X4.5827Y-2.4213
X4.5827Y-2.5213
X4.5827Y-2.6213
X4.5827Y-2.7213
X4.5827Y-2.8213
X4.5827Y-2.9213
X4.5827Y-3.0213
X4.5827Y-3.1213
X4.5827Y-3.2213
X4.5827Y-3.3213
X5.1827Y-2.0213
X5.1827Y-2.1213
X5.1827Y-2.2213
X5.1827Y-2.3213
X5.1827Y-2.4213
X5.1827Y-2.5213
X5.1827Y-2.6213
X5.1827Y-2.7213
X5.1827Y-2.8213
X5.1827Y-2.9213
X5.1827Y-3.0213
X5.1827Y-3.1213
X5.1827Y-3.2213
X5.1827Y-3.3213
X4.0236Y-2.8189
X4.3236Y-2.8189
X5.4646Y-3.1496
X5.7646Y-3.1496
X4.0236Y-2.5
X4.3236Y-2.5
X4.0197Y-3.1339
X4.3197Y-3.1339
X5.4646Y-2.6732
X5.7646Y-2.6732
X4.0236Y-2.6575
X4.3236Y-2.6575
X5.4646Y-3.0
X5.7646Y-3.0
X5.4646Y-2.8386
X5.7646Y-2.8386
X3.0866Y-2.9094
X3.3866Y-2.9094
T4
X1.9055Y-2.1969
X1.9055Y-2.3937
X1.9055Y-2.7874
X1.9055Y-2.9843
X2.6929Y-2.1969
X2.6929Y-2.3937
X2.6929Y-2.5906
X2.6929Y-2.7874
X2.6929Y-2.9843
T5
X3.1535Y-1.7559
X3.1535Y-1.9764
X3.374Y-1.7559
X3.374Y-1.9764
X5.7402Y-3.5551
X5.7402Y-3.6551
X5.7402Y-3.7551
X5.7402Y-3.8551
X5.7402Y-3.9551
X5.7402Y-4.0551
X4.185Y-3.4843
X4.185Y-3.5843
X4.185Y-3.6843
X4.185Y-3.7843
X4.185Y-3.8843
X4.185Y-3.9843
X3.9094Y-4.0043
X3.9094Y-4.1043
X3.9094Y-4.2043
X3.9094Y-4.3043
X3.9094Y-4.4043
X3.9094Y-4.5043
X3.1008Y-4.6343
X3.2008Y-4.6343
X3.3008Y-4.6343
T6
X1.9803Y-3.3268
X1.9803Y-4.2126
T7
X2.1031Y-4.5197
X2.3031Y-4.5197
X2.5031Y-4.5197
T8
X6.1929Y-4.7622
X6.1866Y-1.7524
X1.7441Y-4.7622
X1.7441Y-1.7504
T0
M30
